<svg preserveAspectRatio="none" width="18" height="20" overflow="visible" style="display: block;" viewBox="0 0 18 20" fill="none" xmlns="http://www.w3.org/2000/svg">
<g id="Icon">
<path id="Icon_2" d="M5.75098 10.1523L5.94629 11.0654C6.16016 12.0607 6.93831 12.839 7.93359 13.0527L8.84668 13.248L9.00557 13.2822C9.23591 13.3318 9.40039 13.5354 9.40039 13.771V14.8266C9.40039 15.0622 9.23591 15.2659 9.00557 15.3154L8.84668 15.3496L7.93359 15.5449C6.93822 15.7587 6.16005 16.5368 5.94629 17.5322L5.75098 18.4453L5.71679 18.6042C5.66723 18.8345 5.46359 18.999 5.22798 18.999H4.17241C3.9368 18.999 3.73316 18.8345 3.6836 18.6042L3.64941 18.4453L3.4541 17.5322C3.24034 16.5368 2.46217 15.7587 1.4668 15.5449L0.553711 15.3496L0.394823 15.3154C0.164484 15.2659 0 15.0622 0 14.8266V13.771C0 13.5354 0.164484 13.3318 0.394823 13.2822L0.553711 13.248L1.4668 13.0527C2.46208 12.839 3.24023 12.0607 3.4541 11.0654L3.64941 10.1523L3.6836 9.99346C3.73316 9.76312 3.9368 9.59863 4.17241 9.59863H5.22798C5.46359 9.59863 5.66723 9.76312 5.71679 9.99346L5.75098 10.1523ZM4.7002 11.7949C4.3028 12.9747 3.37609 13.9015 2.19629 14.2988C3.37615 14.6962 4.30288 15.6229 4.7002 16.8027C5.09751 15.6229 6.02425 14.6962 7.2041 14.2988C6.0243 13.9015 5.09759 12.9747 4.7002 11.7949ZM12.4711 1.00196C12.7045 1.00481 12.9049 1.1688 12.9538 1.39705L13.2568 2.80957L13.3262 3.08105C13.7177 4.41932 14.8126 5.44725 16.1904 5.74316L17.605 6.04699C17.8354 6.09649 18 6.30017 18 6.53585V7.86497C18 8.1009 17.8351 8.30472 17.6044 8.35396L17.4463 8.3877L16.1904 8.65723C14.7209 8.97284 13.5725 10.1213 13.2568 11.5908L12.9873 12.8477L12.9532 13.0057C12.9036 13.236 12.7 13.4004 12.4645 13.4004H11.1352C10.8996 13.4004 10.696 13.236 10.6464 13.0057L10.6123 12.8477L10.3428 11.5908C10.0271 10.1213 8.87876 8.97284 7.40918 8.65723L6.15332 8.3877L5.99526 8.35396C5.76453 8.30472 5.59961 8.1009 5.59961 7.86497V6.53585C5.59961 6.30017 5.76419 6.09649 5.99461 6.04699L7.40918 5.74316C8.87879 5.42752 10.0272 4.27919 10.3428 2.80957L10.6458 1.39705C10.6947 1.1688 10.8951 1.00481 11.1286 1.00196L11.2891 1H12.3105L12.4711 1.00196ZM11.7109 3.10352C11.2797 5.11165 9.71127 6.68105 7.70312 7.1123L7.29102 7.2002L7.70312 7.28906C9.71112 7.72035 11.2796 9.28889 11.7109 11.2969L11.7998 11.709L11.8887 11.2969C12.32 9.28889 13.8885 7.72035 15.8965 7.28906L16.3076 7.2002L15.8965 7.1123C13.8883 6.68105 12.32 5.11165 11.8887 3.10352L11.7998 2.69043L11.7109 3.10352Z" fill="currentColor"/>
</g>
</svg>
