<svg preserveAspectRatio="none" width="15" height="20" overflow="visible" style="display: block;" viewBox="0 0 15 20" fill="none" xmlns="http://www.w3.org/2000/svg">
<g id="Icon">
<g id="Icon_2">
<path fill-rule="evenodd" clip-rule="evenodd" d="M15 7.59617C15 7.46577 14.9089 7.35307 14.7814 7.3257L13.5412 7.05937C11.9877 6.72578 10.7742 5.51227 10.4406 3.9588L10.1743 2.71856C10.1469 2.59106 10.0342 2.5 9.90383 2.5H9.59617C9.46577 2.5 9.35307 2.59106 9.3257 2.71856L9.05937 3.9588C8.72578 5.51227 7.51228 6.72578 5.9588 7.05937L4.71856 7.3257C4.59106 7.35307 4.5 7.46577 4.5 7.59617V7.90383C4.5 8.03423 4.59106 8.14693 4.71856 8.1743L5.9588 8.44063C7.51228 8.77422 8.72578 9.98773 9.05937 11.5412L9.3257 12.7814C9.35307 12.9089 9.46577 13 9.59617 13H9.90383C10.0342 13 10.1469 12.9089 10.1743 12.7814L10.4406 11.5412C10.7742 9.98773 11.9877 8.77422 13.5412 8.44063L14.7814 8.1743C14.9089 8.14693 15 8.03423 15 7.90383V7.59617Z" fill="currentColor"/>
<path fill-rule="evenodd" clip-rule="evenodd" d="M7 13.8815C7 13.8039 6.94579 13.7368 6.8699 13.7205L6.02747 13.5396C4.99182 13.3172 4.18281 12.5082 3.96042 11.4725L3.77952 10.6301C3.76322 10.5542 3.69614 10.5 3.61852 10.5H3.38148C3.30386 10.5 3.23678 10.5542 3.22048 10.6301L3.03958 11.4725C2.81719 12.5082 2.00818 13.3172 0.972532 13.5396L0.130095 13.7205C0.0542049 13.7368 0 13.8039 0 13.8815V14.1185C0 14.1961 0.0542053 14.2632 0.130095 14.2795L0.972532 14.4604C2.00818 14.6828 2.81719 15.4918 3.03958 16.5275L3.22048 17.3699C3.23678 17.4458 3.30386 17.5 3.38148 17.5H3.61852C3.69614 17.5 3.76322 17.4458 3.77952 17.3699L3.96042 16.5275C4.18281 15.4918 4.99182 14.6828 6.02747 14.4604L6.86991 14.2795C6.9458 14.2632 7 14.1961 7 14.1185V13.8815Z" fill="currentColor"/>
</g>
</g>
</svg>
