<svg preserveAspectRatio="none" width="14" height="20" overflow="visible" style="display: block;" viewBox="0 0 14 20" fill="none" xmlns="http://www.w3.org/2000/svg">
<g id="Icon">
<path id="Icon_2" d="M7.19084 5.00417C8.06348 4.97033 8.90172 5.19595 9.58341 5.71413C10.2637 6.23156 10.7267 6.99303 10.9447 7.92409C11.0478 8.3654 10.7556 8.80316 10.2924 8.90163C9.82913 8.99988 9.36946 8.72181 9.26603 8.28053C9.11762 7.64679 8.83256 7.23998 8.51115 6.99538C8.1912 6.75211 7.77268 6.62125 7.26212 6.64089C6.21558 6.68147 4.78847 7.37026 3.49748 8.97292C3.49548 8.9754 3.49266 8.9773 3.49064 8.97975C2.6088 10.0771 1.99925 11.3577 1.79337 12.429C1.5735 13.5736 1.85602 14.1185 2.184 14.304C2.31538 14.3782 2.5492 14.4259 3.04045 14.1223C3.52952 13.8199 4.07787 13.2746 4.61662 12.5882C5.14647 11.913 5.62735 11.1526 5.99455 10.4778C6.37303 9.7822 6.59344 9.24447 6.64884 9.00417C6.70806 8.74812 6.88709 8.54675 7.11759 8.44167C7.125 8.43827 7.13254 8.4351 7.14005 8.4319C7.15607 8.42513 7.17243 8.41919 7.18888 8.41335C7.2005 8.4092 7.21222 8.4053 7.22404 8.40163C7.23888 8.39704 7.25383 8.39275 7.26896 8.38893C7.27836 8.38655 7.28778 8.38418 7.29728 8.3821C7.31595 8.37803 7.3349 8.37521 7.35392 8.37233C7.36333 8.3709 7.37275 8.36956 7.38224 8.36843C7.40004 8.36631 7.41792 8.36459 7.43595 8.36354C7.44795 8.36283 7.45999 8.36279 7.47209 8.36257C7.48734 8.3623 7.50262 8.36205 7.51798 8.36257C7.53161 8.36301 7.54528 8.36345 7.559 8.36452C7.57459 8.36576 7.59022 8.36733 7.60587 8.3694C7.61159 8.37015 7.61773 8.3705 7.62345 8.37136C7.63003 8.37234 7.63646 8.37414 7.64298 8.37526C7.65294 8.377 7.66329 8.37806 7.67326 8.38014C7.68085 8.38173 7.68822 8.38423 7.69572 8.386C7.70785 8.38884 7.71996 8.39148 7.73185 8.39479C7.74471 8.39839 7.75738 8.40239 7.76994 8.40651C7.78718 8.41215 7.80405 8.41845 7.82072 8.42507C7.82996 8.42874 7.839 8.43282 7.84806 8.43678C7.86674 8.44494 7.88488 8.45382 7.90275 8.46315C7.90896 8.4664 7.9152 8.46953 7.9213 8.47292C7.93944 8.48296 7.95683 8.49393 7.97404 8.50514C7.97942 8.50865 7.98536 8.51129 7.99064 8.51491C8.21109 8.66568 8.34791 8.91126 8.34806 9.17897C8.34808 9.18645 8.34827 9.19392 8.34806 9.20143C8.34708 9.23629 8.34508 9.27153 8.33927 9.3069C8.11226 10.6839 8.36892 11.4603 8.66252 11.8206C8.91177 12.126 9.2771 12.2453 9.76896 12.1018C9.77189 12.1009 9.77481 12.0998 9.77775 12.0989C10.2059 11.9719 10.6964 11.6084 11.1645 10.888C11.6284 10.1738 12.0278 9.17016 12.2963 7.89968C12.3901 7.45652 12.8438 7.16915 13.309 7.25807C13.7742 7.34734 14.076 7.7788 13.9828 8.22194C13.6867 9.62334 13.2273 10.8253 12.6264 11.7503C12.0369 12.6575 11.2674 13.3602 10.3236 13.6516C10.3119 13.6556 10.3005 13.6608 10.2885 13.6643C9.20212 13.9865 8.05295 13.7428 7.30509 12.8264C7.15876 12.6471 7.03389 12.4481 6.92912 12.2317C6.6449 12.6805 6.33118 13.1384 5.99357 13.5686C5.40719 14.3158 4.71522 15.0405 3.97599 15.4973C3.23868 15.9528 2.25401 16.249 1.30607 15.7132C1.28009 15.6985 1.25558 15.6821 1.23185 15.6653C-0.0140693 14.9053 -0.142315 13.4056 0.101969 12.1341C0.363623 10.7723 1.1028 9.26125 2.11955 7.99343C2.124 7.98759 2.12858 7.98161 2.13322 7.97585C3.61738 6.13343 5.46955 5.07111 7.19084 5.00417Z" fill="currentColor"/>
</g>
</svg>
