<svg preserveAspectRatio="none" width="14" height="20" overflow="visible" style="display: block;" viewBox="0 0 14 20" fill="none" xmlns="http://www.w3.org/2000/svg">
<g id="Icon">
<path id="Icon_2" d="M6.62413 4.90081C7.90518 3.79183 9.81425 3.77093 11.1212 4.87444L11.2648 5.00237C12.6534 6.31075 12.7167 8.50623 11.4064 9.89303L11.2716 10.0288L7.51671 13.5942C6.71856 14.3521 5.48973 14.3847 4.65536 13.7017L4.49423 13.5552C3.63483 12.6953 3.65155 11.2964 4.53134 10.4575L7.84582 7.29829L8.38879 6.78071L9.42395 7.86665L8.88098 8.38423L5.5665 11.5425C5.29621 11.8001 5.29101 12.2304 5.55478 12.4946L5.65732 12.5786C5.91055 12.7471 6.25465 12.7236 6.4835 12.5063L10.2384 8.94088L10.3868 8.78365C11.0311 8.02262 10.9985 6.89046 10.3107 6.1684L10.1534 6.02094C9.43694 5.41598 8.4008 5.4068 7.67687 5.97601L7.53624 6.09808L3.54794 9.89206C2.07535 11.2934 2.25392 13.692 3.91708 14.8608L4.15536 15.0132C5.37081 15.7174 6.9189 15.5547 7.963 14.5825L11.6896 11.1128L12.2384 10.601L13.2609 11.6987L12.7121 12.2104L8.98547 15.6802C7.40416 17.1527 5.03355 17.3588 3.22762 16.2046L3.05477 16.0884C0.616769 14.3751 0.355804 10.859 2.51472 8.80513L6.50206 5.01116L6.62413 4.90081Z" fill="currentColor"/>
</g>
</svg>
