<svg preserveAspectRatio="none" width="15" height="20" overflow="visible" style="display: block;" viewBox="0 0 15 20" fill="none" xmlns="http://www.w3.org/2000/svg">
<g id="Icon">
<path id="Icon_2" fill-rule="evenodd" clip-rule="evenodd" d="M6 3.60003V5.00002L9 5V3.6L6 3.60003ZM2.89998 12H1.49998V13.6H2.89998V15V16.6H12.1V15V13.6H13.5V12H12.1V10.6V8.1C12.1 7.49249 11.6075 7 11 7H3.99998C3.39246 7 2.89998 7.49249 2.89998 8.1V10.6V12ZM13.5 15H14.9V13.6V12V10.6H13.5V9.2V8.1C13.5 6.71929 12.3807 5.6 11 5.6H3.99998C2.61926 5.6 1.49998 6.71929 1.49998 8.1V9.2V10.6H0.0999756V12V13.6V15H1.49998V16.4V16.6V18H2.89998H12.1H13.5V16.6V16.4V15ZM6.5 10.85C6.5 11.5404 5.94036 12.1 5.25 12.1C4.55964 12.1 4 11.5404 4 10.85C4 10.1596 4.55964 9.6 5.25 9.6C5.94036 9.6 6.5 10.1596 6.5 10.85ZM9.75 12.1C10.4404 12.1 11 11.5404 11 10.85C11 10.1596 10.4404 9.6 9.75 9.6C9.05964 9.6 8.5 10.1596 8.5 10.85C8.5 11.5404 9.05964 12.1 9.75 12.1ZM4.00005 15V13.6L11 13.6V15L4.00005 15Z" fill="currentColor"/>
</g>
</svg>
