<svg preserveAspectRatio="none" width="14" height="20" overflow="visible" style="display: block;" viewBox="0 0 14 20" fill="none" xmlns="http://www.w3.org/2000/svg">
<g id="Icon">
<path id="Icon_2" fill-rule="evenodd" clip-rule="evenodd" d="M2.4 9.99999C2.4 13.0928 4.90721 15.6 8 15.6C8.89496 15.6 9.73961 15.3908 10.4891 15.0182L3.46369 6.71537C2.79378 7.63858 2.4 8.77298 2.4 9.99999ZM2.53811 5.62149C1.57575 6.82043 1 8.34297 1 9.99999C1 13.866 4.13401 17 8 17C9.23996 17 10.4046 16.6776 11.4147 16.112C11.7896 15.9022 12.1431 15.6588 12.4714 15.386C12.5033 15.3595 12.5349 15.3327 12.5663 15.3057L9.01301 11.1063C9.31232 10.832 9.5 10.4379 9.5 10C9.5 9.17157 8.82843 8.5 8 8.5C7.65174 8.5 7.3312 8.61868 7.07662 8.81781L3.52328 4.61841C3.49497 4.64198 3.46686 4.66577 3.43893 4.68978C3.11081 4.97187 2.80913 5.28385 2.53811 5.62149ZM8.12112 6.65895C8.50534 6.37058 8.98174 6.2 9.50001 6.2C10.7703 6.2 11.8 7.22975 11.8 8.5C11.8 9.13532 11.5433 9.70936 11.1264 10.1263L12.1163 11.1163C12.7851 10.4475 13.2 9.52153 13.2 8.5C13.2 6.45655 11.5435 4.8 9.50001 4.8C8.66838 4.8 7.899 5.07521 7.28074 5.53924L8.12112 6.65895Z" fill="currentColor"/>
</g>
</svg>
