<svg preserveAspectRatio="none" width="16" height="20" overflow="visible" style="display: block;" viewBox="0 0 16 20" fill="none" xmlns="http://www.w3.org/2000/svg">
<g id="Icon">
<path id="Icon_2" fill-rule="evenodd" clip-rule="evenodd" d="M1.39857 5.22533C1.10158 5.33956 0.918999 5.63972 0.954138 5.95597C1.19491 8.1229 2.32695 10.6603 4.67534 13.177L5.13177 13.6503C5.14177 13.6603 5.15178 13.6704 5.16182 13.6804L5.6653 14.1669C8.18199 16.5153 10.7194 17.6473 12.8863 17.8881C13.2026 17.9232 13.5027 17.7406 13.617 17.4437L14.7955 14.3795C14.9306 14.0283 14.7638 13.6331 14.4179 13.4848L11.118 12.0706C10.9055 11.9795 10.6616 11.9993 10.4665 12.1235L10.1486 12.3258C8.91826 13.1087 7.50231 13.0981 6.62323 12.2191L6.61314 12.209C5.74402 11.3292 5.73652 9.91933 6.51645 8.69373L6.71876 8.37581C6.84293 8.18069 6.86271 7.93683 6.7716 7.72425L5.35739 4.42442C5.20915 4.07852 4.81395 3.91173 4.4627 4.04682L1.39857 5.22533ZM5.33532 7.9421C4.78306 8.80994 4.47968 9.85476 4.55864 10.8665C3.3312 9.23415 2.6737 7.67619 2.42429 6.3308L4.33612 5.59549L5.3392 7.93601L5.33532 7.9421ZM10.9002 13.5069C10.0323 14.0592 8.98752 14.3625 7.97575 14.2836C9.60814 15.511 11.1661 16.1685 12.5115 16.4179L13.2468 14.5061L10.9063 13.503L10.9002 13.5069Z" fill="currentColor"/>
</g>
</svg>
