<svg preserveAspectRatio="none" width="15" height="20" overflow="visible" style="display: block;" viewBox="0 0 15 20" fill="none" xmlns="http://www.w3.org/2000/svg">
<g id="Icon">
<g id="Icon_2">
<path d="M5.85938 12.9682L7.5 11.8301L9.14062 12.9682C9.18467 12.9988 9.23919 13.0078 9.29008 12.993C9.3872 12.9648 9.44409 12.8594 9.41716 12.7576L8.89147 10.7704L10.4311 9.48665C10.4725 9.45218 10.4975 9.40063 10.4998 9.34532C10.5042 9.23979 10.4262 9.1505 10.3255 9.14589L8.35997 9.05587L7.67091 7.12432C7.65241 7.07247 7.61338 7.03156 7.56391 7.01217C7.46952 6.97517 7.36439 7.02539 7.32909 7.12432L6.64003 9.05587L4.67451 9.14589C4.62174 9.14831 4.57256 9.17458 4.53968 9.2179C4.47694 9.30057 4.49002 9.42089 4.56888 9.48665L6.10854 10.7704L5.58284 12.7576C5.56873 12.811 5.57736 12.8681 5.60651 12.9143C5.66213 13.0024 5.77534 13.0265 5.85938 12.9682Z" fill="currentColor"/>
<path fill-rule="evenodd" clip-rule="evenodd" d="M7.39999 4.30005C5.25167 4.30005 3.47538 4.83765 2.22328 5.87784C0.955765 6.93082 0.299988 8.43813 0.299988 10.2033C0.299988 12.2998 1.2252 14.0074 2.94119 15.0363L3.27255 17.1105C3.31261 17.3612 3.48534 17.5707 3.72391 17.6577C3.96247 17.7447 4.22946 17.6957 4.42157 17.5296L6.14364 16.0409C6.54569 16.0845 6.96478 16.1065 7.39999 16.1065C9.54831 16.1065 11.3246 15.5689 12.5767 14.5287C13.8442 13.4757 14.5 11.9684 14.5 10.2033C14.5 8.43813 13.8442 6.93082 12.5767 5.87784C11.3246 4.83765 9.54831 4.30005 7.39999 4.30005ZM1.69999 10.2033C1.69999 8.8074 2.20501 7.71309 3.11789 6.95472C4.04618 6.18354 5.4699 5.70005 7.39999 5.70005C9.33008 5.70005 10.7538 6.18354 11.6821 6.95472C12.595 7.71309 13.1 8.8074 13.1 10.2033C13.1 11.5992 12.595 12.6935 11.6821 13.4518C10.7538 14.223 9.33008 14.7065 7.39999 14.7065C6.90761 14.7065 6.44689 14.6749 6.01835 14.6148C5.81839 14.5868 5.61606 14.6464 5.46331 14.7785L4.45676 15.6486L4.27029 14.4813C4.23543 14.2631 4.09957 14.0742 3.90381 13.9716C2.47306 13.2223 1.69999 11.931 1.69999 10.2033Z" fill="currentColor"/>
</g>
</g>
</svg>
