<svg preserveAspectRatio="none" width="15" height="20" overflow="visible" style="display: block;" viewBox="0 0 15 20" fill="none" xmlns="http://www.w3.org/2000/svg">
<g id="Icon">
<g id="Icon_2">
<path d="M11 7C12.1046 7 13 6.10457 13 5C13 3.89543 12.1046 3 11 3C9.89543 3 9 3.89543 9 5C9 6.10457 9.89543 7 11 7Z" fill="currentColor"/>
<path d="M7.67152 4.30295C7.58169 4.30102 7.49117 4.30005 7.39999 4.30005C5.25167 4.30005 3.47538 4.83765 2.22328 5.87784C0.955765 6.93082 0.299988 8.43813 0.299988 10.2033C0.299988 12.2998 1.2252 14.0074 2.94119 15.0363L3.27255 17.1105C3.31261 17.3612 3.48534 17.5707 3.72391 17.6577C3.96247 17.7447 4.22946 17.6957 4.42157 17.5296L6.14364 16.0409C6.54569 16.0845 6.96478 16.1065 7.39999 16.1065C9.54831 16.1065 11.3246 15.5689 12.5767 14.5287C13.8442 13.4757 14.5 11.9684 14.5 10.2033C14.5 9.04356 14.2169 7.99514 13.6633 7.11374C13.3676 7.48573 12.9957 7.79436 12.5712 8.01597C12.9166 8.63057 13.1 9.36217 13.1 10.2033C13.1 11.5992 12.595 12.6935 11.6821 13.4518C10.7538 14.223 9.33008 14.7065 7.39999 14.7065C6.90761 14.7065 6.44689 14.6749 6.01835 14.6148C5.81839 14.5868 5.61606 14.6464 5.46331 14.7785L4.45676 15.6486L4.27029 14.4813C4.23543 14.2631 4.09957 14.0742 3.90381 13.9716C2.47306 13.2223 1.69999 11.931 1.69999 10.2033C1.69999 8.8074 2.20501 7.71309 3.11789 6.95472C4.04618 6.18354 5.4699 5.70005 7.39999 5.70005C7.49209 5.70005 7.58304 5.70115 7.67285 5.70333C7.62511 5.47639 7.60001 5.24111 7.60001 4.99998C7.60001 4.76108 7.62464 4.52794 7.67152 4.30295Z" fill="currentColor"/>
</g>
</g>
</svg>
