<svg preserveAspectRatio="none" width="15" height="20" overflow="visible" style="display: block;" viewBox="0 0 15 20" fill="none" xmlns="http://www.w3.org/2000/svg">
<g id="Icon">
<path id="Icon_2" fill-rule="evenodd" clip-rule="evenodd" d="M3.11789 6.95472C2.20501 7.71309 1.69999 8.8074 1.69999 10.2033C1.69999 11.931 2.47306 13.2223 3.90381 13.9716C4.09957 14.0742 4.23543 14.2631 4.27029 14.4813L4.45676 15.6486L5.46331 14.7785C5.61606 14.6464 5.81839 14.5868 6.01835 14.6148C6.44689 14.6749 6.90761 14.7065 7.39999 14.7065C9.33008 14.7065 10.7538 14.223 11.6821 13.4518C12.595 12.6935 13.1 11.5992 13.1 10.2033C13.1 8.8074 12.595 7.71309 11.6821 6.95472C10.7538 6.18354 9.33008 5.70005 7.39999 5.70005C5.4699 5.70005 4.04618 6.18354 3.11789 6.95472ZM2.22328 5.87784C3.47538 4.83765 5.25167 4.30005 7.39999 4.30005C9.54831 4.30005 11.3246 4.83765 12.5767 5.87784C13.8442 6.93082 14.5 8.43813 14.5 10.2033C14.5 11.9684 13.8442 13.4757 12.5767 14.5287C11.3246 15.5689 9.54831 16.1065 7.39999 16.1065C6.96478 16.1065 6.54569 16.0845 6.14364 16.0409L4.42157 17.5296C4.22946 17.6957 3.96247 17.7447 3.72391 17.6577C3.48534 17.5707 3.31261 17.3612 3.27255 17.1105L2.94119 15.0363C1.2252 14.0074 0.299988 12.2998 0.299988 10.2033C0.299988 8.43813 0.955765 6.93082 2.22328 5.87784Z" fill="currentColor"/>
</g>
</svg>
