<svg preserveAspectRatio="none" width="18" height="20" overflow="visible" style="display: block;" viewBox="0 0 18 20" fill="none" xmlns="http://www.w3.org/2000/svg">
<g id="Icon">
<path id="Icon_2" fill-rule="evenodd" clip-rule="evenodd" d="M2.4 15.6008V6.40391H15.6V15.6008H2.4ZM1 6.25663C1 5.56477 1.56086 5.00391 2.25273 5.00391H15.7473C16.4391 5.00391 17 5.56477 17 6.25663V15.6008V17.0008H15.6H2.4H1V15.6008V6.25663ZM10.8718 12.3382L13.754 9.26391L12.7327 8.3064L9.8505 11.3807C9.7945 11.4404 9.69867 11.4371 9.64703 11.3735L8.56817 10.0464C7.98444 9.32831 6.9028 9.28609 6.26487 9.95647L4.24925 12.0746L5.26344 13.0397L7.27906 10.9216C7.33522 10.8626 7.43044 10.8663 7.48183 10.9295L8.56069 12.2566C9.14732 12.9783 10.2358 13.0167 10.8718 12.3382Z" fill="currentColor"/>
</g>
</svg>
