<svg preserveAspectRatio="none" width="14" height="20" overflow="visible" style="display: block;" viewBox="0 0 14 20" fill="none" xmlns="http://www.w3.org/2000/svg">
<g id="Icon">
<path id="Icon_2" fill-rule="evenodd" clip-rule="evenodd" d="M4.94091 19.081C5.15678 19.3384 5.46357 19.5 5.83632 19.5C6.32225 19.5 6.75999 19.4027 7.12019 19.1669C7.48936 18.9252 7.70656 18.5842 7.82707 18.23C7.94305 17.8891 7.97384 17.5252 7.97615 17.1941C7.97846 16.8627 7.9516 16.5164 7.92746 16.2052L7.92709 16.2004C7.90189 15.8755 7.87964 15.5868 7.88045 15.322C7.88126 15.0553 7.9063 14.8614 7.95164 14.7241C7.99267 14.5999 8.04189 14.545 8.09369 14.5105C8.15397 14.4704 8.29291 14.4091 8.59386 14.4091H10.662C12.8977 14.4091 13.8354 12.3974 13.2114 11.0047C13.1271 10.8165 13.0595 10.6683 13.0051 10.5487C12.8599 10.2301 12.8073 10.1147 12.7763 9.98762C12.7407 9.84222 12.7407 9.70335 12.7408 9.08757C12.7408 9.0594 12.7408 9.03022 12.7408 9C12.7408 7.85654 12.0669 7.18507 11.7255 6.84481C11.6756 6.7951 11.6328 6.75246 11.6002 6.71645C11.6002 6.71645 11.5841 6.69398 11.5533 6.6321C11.5172 6.55938 11.4777 6.46706 11.4265 6.34341C11.4179 6.32257 11.409 6.30095 11.3998 6.27863C11.3068 6.05308 11.1846 5.75661 11.0245 5.47187C10.6602 4.82424 10.0168 4.10001 8.84455 4.1L2.9501 4.10002C1.87319 4.10001 1 4.973 1 6.05002V12.0694C1 12.5577 1.26744 12.9817 1.64869 13.2181C3.34253 14.2684 3.91547 15.6249 4.21584 16.772C4.29121 17.0599 4.3488 17.3325 4.40432 17.5954L4.40812 17.6133C4.46242 17.8704 4.51871 18.1368 4.58787 18.3673C4.6545 18.5893 4.75549 18.8599 4.94091 19.081Z" fill="currentColor"/>
</g>
</svg>
