<svg width="14" height="20" viewBox="0 0 14 20" fill="none" xmlns="http://www.w3.org/2000/svg">
<path d="M7 13C7.55228 13 8 13.4477 8 14C8 14.5523 7.55228 15 7 15C6.44772 15 6 14.5523 6 14C6 13.4477 6.44772 13 7 13Z" fill="currentColor"/>
<path d="M8 8.5L7.5 12H6.5L6 8.5V7H8V8.5Z" fill="currentColor"/>
<path fill-rule="evenodd" clip-rule="evenodd" d="M7 4C10.866 4 14 7.13401 14 11C14 14.866 10.866 18 7 18C3.13401 18 0 14.866 0 11C0 7.13401 3.13401 4 7 4ZM7 5.40039C3.90721 5.40039 1.40039 7.90721 1.40039 11C1.40039 14.0928 3.90721 16.5996 7 16.5996C10.0928 16.5996 12.5996 14.0928 12.5996 11C12.5996 7.90721 10.0928 5.40039 7 5.40039Z" fill="currentColor"/>
</svg>
