<svg preserveAspectRatio="none" width="15" height="20" overflow="visible" style="display: block;" viewBox="0 0 15 20" fill="none" xmlns="http://www.w3.org/2000/svg">
<g id="Icon">
<path id="Icon_2" d="M7.42234 4.35784C7.67889 4.2472 7.97692 4.2999 8.18015 4.49163L14.02 10.0004L8.18015 15.5092C7.97693 15.7009 7.67888 15.7536 7.42234 15.643C7.16579 15.5323 6.99951 15.2798 6.99949 15.0004V12.4262C5.6157 12.534 4.6687 12.971 3.99461 13.645C3.19349 14.4461 2.67958 15.6788 2.39013 17.4155C2.33244 17.7616 2.02695 18.0119 1.67626 18.0004C1.32569 17.9888 1.03832 17.7186 1.00341 17.3696C0.692564 14.2604 1.25084 11.8191 2.48485 10.1362C3.59098 8.62765 5.18884 7.79888 6.99949 7.63128V5.00042C6.99949 4.721 7.16577 4.46852 7.42234 4.35784ZM8.39987 8.99944H7.69968C5.99635 8.99944 4.56706 9.6642 3.61375 10.9643C3.20273 11.5249 2.86897 12.2199 2.64306 13.0561C2.7569 12.9165 2.87715 12.7829 3.00438 12.6557C4.1222 11.5379 5.67305 11.0004 7.69968 11.0004H8.39987V13.3774L11.979 10.0004L8.39987 6.62347V8.99944Z" fill="currentColor"/>
</g>
</svg>
