<svg preserveAspectRatio="none" width="14" height="20" overflow="visible" style="display: block;" viewBox="0 0 14 20" fill="none" xmlns="http://www.w3.org/2000/svg">
<g id="Icon">
<path id="Icon_2" fill-rule="evenodd" clip-rule="evenodd" d="M8.19939 9.28446L7 6.07688L5.80061 9.28446L2.37939 9.43395L5.05934 11.5658L4.14431 14.8658L7 12.9758L9.85569 14.8658L8.94066 11.5658L11.6206 9.43395L8.19939 9.28446ZM13.5508 8.34501C13.9841 8.36395 14.1616 8.91038 13.8223 9.18036L10.2775 12.0002L11.4878 16.3651C11.6037 16.783 11.1389 17.1207 10.7772 16.8813L7 14.3814L3.22278 16.8813C2.86114 17.1207 2.39631 16.783 2.51219 16.3651L3.72251 12.0002L0.17774 9.18036C-0.161642 8.91038 0.015905 8.36395 0.44916 8.34501L4.9744 8.14728L6.56083 3.90463C6.71272 3.49843 7.28728 3.49843 7.43917 3.90462L9.0256 8.14728L13.5508 8.34501Z" fill="currentColor"/>
</g>
</svg>
