<svg preserveAspectRatio="none" width="16" height="20" overflow="visible" style="display: block;" viewBox="0 0 16 20" fill="none" xmlns="http://www.w3.org/2000/svg">
<g id="Icon">
<g id="Icon_2">
<path d="M1 4.83093L4.3904 8.22133H1.54047V9.75H7V4.29046L5.47133 4.29047V7.1404L2.08093 3.75L1 4.83093Z" fill="currentColor"/>
<path fill-rule="evenodd" clip-rule="evenodd" d="M15.0458 5.94865C15.081 5.6324 14.8984 5.33223 14.6014 5.21801L11.5373 4.0395C11.186 3.9044 10.7908 4.07119 10.6426 4.41709L9.22836 7.71693C9.13726 7.9295 9.15703 8.17336 9.2812 8.36848L9.48352 8.68641C10.2664 9.91671 10.2559 11.3327 9.37678 12.2118C8.49769 13.0908 7.08175 13.1014 5.85145 12.3185L5.53352 12.1162C5.3384 11.992 5.09454 11.9722 4.88197 12.0633L1.58213 13.4775C1.23623 13.6258 1.06944 14.021 1.20453 14.3722L2.38305 17.4364C2.49727 17.7333 2.79744 17.9159 3.11369 17.8808C5.28061 17.64 7.81801 16.508 10.3347 14.1596L11.3246 13.1697C13.673 10.653 14.8051 8.11557 15.0458 5.94865ZM11.4413 10.8592C11.5203 9.84744 11.2169 8.80262 10.6646 7.93478L10.6608 7.92868L11.6638 5.58816L13.5757 6.32348C13.3263 7.66886 12.6688 9.22683 11.4413 10.8592ZM8.02426 14.2763C7.01248 14.3552 5.96766 14.0519 5.09982 13.4996L5.09372 13.4957L2.7532 14.4988L3.48852 16.4106C4.8339 16.1612 6.39187 15.5037 8.02426 14.2763Z" fill="currentColor"/>
</g>
</g>
</svg>
