<svg width="14" height="20" viewBox="0 0 14 20" fill="none" xmlns="http://www.w3.org/2000/svg">
<g clip-path="url(#clip0_1981_32471)">
<path d="M8.00098 15H6.60059V11.4004H6.10059C5.71405 11.4004 5.40049 11.0867 5.40039 10.7002C5.40039 10.3136 5.71399 10 6.10059 10H8.00098V15Z" fill="currentColor"/>
<path d="M7.10059 7C7.65319 7 8.10156 7.44837 8.10156 8.00098C8.10135 8.55341 7.65306 9.00098 7.10059 9.00098C6.54811 9.00097 6.09982 8.5534 6.09961 8.00098C6.09961 7.44837 6.54798 7 7.10059 7Z" fill="currentColor"/>
<path fill-rule="evenodd" clip-rule="evenodd" d="M7 4C10.866 4 14 7.13401 14 11C14 14.866 10.866 18 7 18C3.13401 18 0 14.866 0 11C0 7.13401 3.13401 4 7 4ZM7 5.40039C3.90721 5.40039 1.40039 7.90721 1.40039 11C1.40039 14.0928 3.90721 16.5996 7 16.5996C10.0928 16.5996 12.5996 14.0928 12.5996 11C12.5996 7.90721 10.0928 5.40039 7 5.40039Z" fill="currentColor"/>
</g>
<defs>
<clipPath id="clip0_1981_32471">
<rect width="14" height="20" fill="currentColor"/>
</clipPath>
</defs>
</svg>
