<svg preserveAspectRatio="none" width="14" height="20" overflow="visible" style="display: block;" viewBox="0 0 14 20" fill="none" xmlns="http://www.w3.org/2000/svg">
<g id="Icon">
<path id="Icon_2" fill-rule="evenodd" clip-rule="evenodd" d="M2.4 9.46332V15.45C2.4 15.7537 2.64627 16 2.95009 16L8.84454 16C9.30177 16 9.56479 15.7676 9.8042 15.3419C9.92057 15.1349 10.0114 14.9152 10.109 14.6789C10.117 14.6597 10.125 14.6404 10.133 14.6209C10.1833 14.4995 10.2395 14.3658 10.2998 14.2446C10.3575 14.1285 10.4392 13.9813 10.5543 13.8528C10.6355 13.7622 10.7133 13.681 10.7862 13.605C11.1124 13.2646 11.3408 13.0262 11.3408 12.5C11.3408 12.4314 11.3406 12.3658 11.3404 12.3026C11.3392 11.8282 11.3383 11.499 11.4163 11.1798C11.4814 10.9138 11.6078 10.6377 11.781 10.2592C11.8285 10.1554 11.8795 10.044 11.9338 9.92287C12.1461 9.44896 11.8747 8.49091 10.662 8.49091H8.59386C8.11142 8.49091 7.67574 8.39311 7.31784 8.15484C6.95145 7.91091 6.73892 7.56809 6.62229 7.21502C6.50997 6.875 6.48145 6.51216 6.48045 6.18224C6.47947 5.85893 6.50573 5.52055 6.52942 5.21535L6.53129 5.19133C6.55641 4.86739 6.57803 4.57923 6.57619 4.31568C6.57433 4.05016 6.54804 3.85724 6.50166 3.72089C6.45981 3.59788 6.40938 3.5411 6.35332 3.5044C6.29883 3.46872 6.18813 3.41954 5.97319 3.40453C5.96059 3.4366 5.94556 3.47927 5.92878 3.53516C5.87955 3.69921 5.83512 3.90513 5.77745 4.17812L5.77216 4.20316C5.71777 4.46067 5.65418 4.76178 5.57018 5.08259C5.2168 6.4322 4.49356 8.15963 2.4 9.46332ZM4.94091 2.419C5.15678 2.1616 5.46357 2 5.83632 2C6.32225 2 6.75999 2.09728 7.12019 2.3331C7.48936 2.57481 7.70656 2.91575 7.82707 3.27002C7.94305 3.61094 7.97384 3.97484 7.97615 4.30591C7.97846 4.63725 7.9516 4.98361 7.92746 5.29481L7.92709 5.29958C7.90189 5.62454 7.87964 5.91322 7.88045 6.17799C7.88126 6.44466 7.9063 6.63864 7.95164 6.77589C7.99267 6.90009 8.04189 6.95499 8.09369 6.98948C8.15397 7.02961 8.29291 7.09091 8.59386 7.09091H10.662C12.8977 7.09091 13.8354 9.10256 13.2114 10.4953C13.1271 10.6835 13.0595 10.8317 13.0051 10.9513C12.8599 11.2699 12.8073 11.3853 12.7763 11.5124C12.7407 11.6578 12.7407 11.7966 12.7408 12.4124C12.7408 12.4406 12.7408 12.4698 12.7408 12.5C12.7408 13.6435 12.0669 14.3149 11.7255 14.6552C11.6756 14.7049 11.6328 14.7475 11.6002 14.7836C11.6002 14.7841 11.5841 14.806 11.5533 14.8679C11.5172 14.9406 11.4777 15.0329 11.4265 15.1566C11.4179 15.1774 11.409 15.1991 11.3998 15.2214C11.3068 15.4469 11.1846 15.7434 11.0245 16.0281C10.6602 16.6758 10.0168 17.4 8.84455 17.4L2.9501 17.4C1.87319 17.4 1 16.527 1 15.45V9.43061C1 8.94228 1.26744 8.51832 1.64869 8.2819C3.34253 7.23156 3.91547 5.87511 4.21584 4.72797C4.29121 4.44013 4.3488 4.16746 4.40432 3.90464L4.40812 3.88668C4.46242 3.62964 4.51871 3.36317 4.58787 3.13275C4.6545 2.91069 4.75549 2.64009 4.94091 2.419Z" fill="currentColor"/>
</g>
</svg>
