<svg preserveAspectRatio="none" width="14" height="20" overflow="visible" style="display: block;" viewBox="0 0 14 20" fill="none" xmlns="http://www.w3.org/2000/svg">
<g id="Icon">
<path id="Icon_2" fill-rule="evenodd" clip-rule="evenodd" d="M4.94091 2.419C5.15678 2.1616 5.46357 2 5.83632 2C6.32225 2 6.75999 2.09728 7.12019 2.3331C7.48936 2.57481 7.70656 2.91575 7.82707 3.27002C7.94305 3.61094 7.97384 3.97484 7.97615 4.30591C7.97846 4.63725 7.9516 4.98361 7.92746 5.29481L7.92709 5.29958C7.90189 5.62454 7.87964 5.91322 7.88045 6.17799C7.88126 6.44466 7.9063 6.63864 7.95164 6.77589C7.99267 6.90009 8.04189 6.95499 8.09369 6.98948C8.15397 7.02961 8.29291 7.09091 8.59386 7.09091H10.662C12.8977 7.09091 13.8354 9.10256 13.2114 10.4953C13.1271 10.6835 13.0595 10.8317 13.0051 10.9513C12.8599 11.2699 12.8073 11.3853 12.7763 11.5124C12.7407 11.6578 12.7407 11.7966 12.7408 12.4124C12.7408 12.4406 12.7408 12.4698 12.7408 12.5C12.7408 13.6435 12.0669 14.3149 11.7255 14.6552C11.6756 14.7049 11.6328 14.7475 11.6002 14.7836C11.6002 14.7836 11.5841 14.806 11.5533 14.8679C11.5172 14.9406 11.4777 15.0329 11.4265 15.1566C11.4179 15.1774 11.409 15.1991 11.3998 15.2214C11.3068 15.4469 11.1846 15.7434 11.0245 16.0281C10.6602 16.6758 10.0168 17.4 8.84455 17.4L2.9501 17.4C1.87319 17.4 1 16.527 1 15.45V9.43061C1 8.94228 1.26744 8.51832 1.64869 8.2819C3.34253 7.23156 3.91547 5.87511 4.21584 4.72797C4.29121 4.44013 4.3488 4.16746 4.40432 3.90464L4.40812 3.88668C4.46242 3.62964 4.51871 3.36317 4.58787 3.13275C4.6545 2.91069 4.75549 2.64009 4.94091 2.419Z" fill="currentColor"/>
</g>
</svg>
