<svg preserveAspectRatio="none" width="14" height="20" overflow="visible" style="display: block;" viewBox="0 0 14 20" fill="none" xmlns="http://www.w3.org/2000/svg">
<g id="Icon">
<g id="Icon_2">
<path d="M2.40039 10C2.40039 12.5405 4.45949 14.5996 7 14.5996C9.54051 14.5996 11.5996 12.5405 11.5996 10H13C13 10.1028 12.9973 10.2051 12.9922 10.3066C12.9572 10.9898 12.8053 11.6625 12.543 12.2959C12.3641 12.7278 12.1348 13.1355 11.8623 13.5127C11.8456 13.5358 11.8295 13.5592 11.8125 13.582C11.7539 13.6607 11.6943 13.7387 11.6318 13.8145C11.427 14.0629 11.2016 14.2933 10.96 14.5059C10.8379 14.6131 10.7121 14.7157 10.582 14.8125C10.5592 14.8295 10.5358 14.8456 10.5127 14.8623C10.1355 15.1348 9.72778 15.3641 9.2959 15.543C8.78469 15.7547 8.24752 15.8918 7.7002 15.9561V18H6.2998V15.957C5.75244 15.8928 5.21535 15.7547 4.7041 15.543C4.27197 15.364 3.86368 15.135 3.48633 14.8623C3.46327 14.8456 3.4398 14.8295 3.41699 14.8125C3.28712 14.7158 3.16188 14.6129 3.04004 14.5059C2.79841 14.2933 2.57296 14.0629 2.36816 13.8145C2.30562 13.7385 2.2452 13.6609 2.18652 13.582C2.16952 13.5592 2.1534 13.5358 2.13672 13.5127C1.86439 13.1357 1.63585 12.7276 1.45703 12.2959C1.19469 11.6625 1.04179 10.9898 1.00684 10.3066C1.00172 10.2051 1 10.1028 1 10H2.40039Z" fill="currentColor"/>
<path fill-rule="evenodd" clip-rule="evenodd" d="M7 4C8.65685 4 10 5.34315 10 7V10C10 11.6569 8.65685 13 7 13C5.39489 13 4.08421 11.7394 4.00391 10.1543L4 10V7C4 5.34315 5.34315 4 7 4ZM7 5.40039C6.11634 5.40039 5.40039 6.11634 5.40039 7V10C5.40039 10.8837 6.11634 11.5996 7 11.5996C7.88366 11.5996 8.59961 10.8837 8.59961 10V7C8.59961 6.11634 7.88366 5.40039 7 5.40039Z" fill="currentColor"/>
</g>
</g>
</svg>
