<svg preserveAspectRatio="none" width="16" height="20" overflow="visible" style="display: block;" viewBox="0 0 16 20" fill="none" xmlns="http://www.w3.org/2000/svg">
<g id="Icon">
<g id="Vector">
<path fill-rule="evenodd" clip-rule="evenodd" d="M1.39857 5.21801C1.10158 5.33224 0.918999 5.6324 0.954138 5.94866C1.19491 8.11558 2.32695 10.653 4.67534 13.1697L5.13177 13.643C5.14177 13.653 5.15178 13.6631 5.16182 13.6731L5.6653 14.1596C8.18199 16.508 10.7194 17.64 12.8863 17.8808C13.2026 17.9159 13.5027 17.7333 13.617 17.4363L14.7955 14.3722C14.9306 14.021 14.7638 13.6258 14.4179 13.4775L11.118 12.0633C10.9055 11.9722 10.6616 11.992 10.4665 12.1161L10.1486 12.3185C8.91826 13.1014 7.50231 13.0908 6.62323 12.2117L6.61314 12.2016C5.74402 11.3218 5.73652 9.91202 6.51645 8.68641L6.71876 8.36849C6.84293 8.17337 6.86271 7.92951 6.7716 7.71693L5.35739 4.4171C5.20915 4.0712 4.81395 3.90441 4.4627 4.0395L1.39857 5.21801ZM5.33532 7.93479C4.78306 8.80262 4.47968 9.84745 4.55864 10.8592C3.3312 9.22684 2.6737 7.66887 2.42429 6.32349L4.33612 5.58817L5.3392 7.92869L5.33532 7.93479ZM10.9002 13.4996C10.0323 14.0518 8.98752 14.3552 7.97575 14.2763C9.60814 15.5037 11.1661 16.1612 12.5115 16.4106L13.2468 14.4988L10.9063 13.4957L10.9002 13.4996Z" fill="currentColor"/>
<path fill-rule="evenodd" clip-rule="evenodd" d="M12 7.74161L14.0083 9.75L15 8.75839L12.9916 6.75L15 4.74161L14.0083 3.75L12 5.75839L9.99156 3.75L8.99995 4.74161L11.0083 6.75L8.99995 8.75839L9.99156 9.75L12 7.74161Z" fill="currentColor"/>
</g>
</g>
</svg>
