<svg preserveAspectRatio="none" width="16" height="20" overflow="visible" style="display: block;" viewBox="0 0 16 20" fill="none" xmlns="http://www.w3.org/2000/svg">
<g id="Icon">
<path id="Icon_2" fill-rule="evenodd" clip-rule="evenodd" d="M6.66949 7.40002L6.91982 7.29988L9.9999 6.06786V12.3321L6.91982 11.1001L6.66949 11H6.39988H3.79983C2.80573 11 1.99985 10.1941 1.99985 9.2C1.99985 8.20589 2.80573 7.40002 3.79984 7.40002H6.39988H6.66949ZM6.39988 6.00002L10.7142 4.27429C11.0426 4.14292 11.3999 4.3848 11.3999 4.73853V13.6615C11.3999 14.0152 11.0426 14.2571 10.7142 14.1257L6.4 12.4V15V16.4H5H4H2.6V15V12.4V12.1674C1.42719 11.6928 0.599854 10.543 0.599854 9.2C0.599854 7.43269 2.03253 6.00002 3.79984 6.00002H6.39988ZM5 12.4V13.6V13.8V15H4V13.8V13.6V12.4H5ZM13 13H13.7C13.8657 13 14 13.1343 14 13.3V14H15.4V13.3C15.4 12.3611 14.6389 11.6 13.7 11.6H13V13ZM13 10.2H15.4V8.80002H13V10.2ZM13 7.40001L13.7 7.40002C14.6389 7.40002 15.4 6.6389 15.4 5.70001V5.00002L14 5.00002V5.70002C14 5.8657 13.8657 6.00002 13.7 6.00002H13V7.40001Z" fill="currentColor"/>
</g>
</svg>
