<svg preserveAspectRatio="none" width="15" height="20" overflow="visible" style="display: block;" viewBox="0 0 15 20" fill="none" xmlns="http://www.w3.org/2000/svg">
<g id="Icon">
<g id="Icon_2">
<path fill-rule="evenodd" clip-rule="evenodd" d="M10.6983 4.04999V6.48906L13.6951 6.48906V15.25C13.6951 16.6031 12.5982 17.7 11.2451 17.7H3.75005C2.39695 17.7 1.30005 16.6031 1.30005 15.25V4.04999L10.6983 4.04999ZM10.6983 7.88906V14.9949H9.29834V5.44999L2.70005 5.44999V15.25C2.70005 15.8299 3.17015 16.3 3.75005 16.3H11.2451C11.825 16.3 12.2951 15.8299 12.2951 15.25V7.88906L10.6983 7.88906Z" fill="currentColor"/>
<path fill-rule="evenodd" clip-rule="evenodd" d="M8.01502 8.4202L3.99664 8.4202V7.0202L8.01502 7.0202V8.4202Z" fill="currentColor"/>
<path fill-rule="evenodd" clip-rule="evenodd" d="M8.01502 10.8702L3.99664 10.8702V9.4702L8.01502 9.4702V10.8702Z" fill="currentColor"/>
<path fill-rule="evenodd" clip-rule="evenodd" d="M6.00664 13.3202L3.99664 13.3202V11.9202L6.00664 11.9202V13.3202Z" fill="currentColor"/>
</g>
</g>
</svg>
