<svg preserveAspectRatio="none" width="12" height="20" overflow="visible" style="display: block;" viewBox="0 0 12 20" fill="none" xmlns="http://www.w3.org/2000/svg">
<g id="Icon" clip-path="url(#clip0_0_6)">
<path id="Icon_2" fill-rule="evenodd" clip-rule="evenodd" d="M1.98995 12.99L2.4 12.5799L2.4 12V9C2.4 7.01178 4.01177 5.4 5.99999 5.4C7.98822 5.4 9.6 7.01177 9.6 9L9.6 12L9.6 12.5799L10.01 12.99L10.6 13.5799V14.5C10.6 14.5552 10.5552 14.6 10.5 14.6H1.5C1.44477 14.6 1.4 14.5552 1.4 14.5V13.5799L1.98995 12.99ZM12 14.5L12 13L11 12L11 9C11 6.23858 8.76142 4 5.99999 4C3.23857 4 0.999998 6.23858 0.999998 9L0.999999 12L0 13V14.5C0 15.3284 0.671573 16 1.5 16H5V17H7V16H10.5C11.3284 16 12 15.3284 12 14.5Z" fill="currentColor"/>
</g>
<defs>
<clipPath id="clip0_0_6">
<rect width="12" height="20" fill="currentColor"/>
</clipPath>
</defs>
</svg>
