<svg preserveAspectRatio="none" width="14" height="20" overflow="visible" style="display: block;" viewBox="0 0 14 20" fill="none" xmlns="http://www.w3.org/2000/svg">
<g id="Icon">
<path id="Icon_2" fill-rule="evenodd" clip-rule="evenodd" d="M11.5656 6.95856L13.5504 4.43246L12.4496 3.5675L10.7657 5.71061C9.84918 4.66222 8.50192 3.99999 6.99999 4C4.23857 4 2 6.23857 2 8.99999L2 12L1 13V14.5C1 15.3284 1.67157 16 2.5 16H2.68119L1.44958 17.5675L2.55042 18.4325L4.46164 16L11.5 16C12.3284 16 13 15.3284 13 14.5L13 13L12 12V9C12 8.27282 11.8448 7.5819 11.5656 6.95856ZM9.87932 6.83874C9.22247 5.96505 8.17722 5.39999 6.99999 5.4C5.01177 5.4 3.4 7.01177 3.4 8.99999L3.4 12.5799L2.4 13.5799V14.5C2.4 14.5552 2.44477 14.6 2.5 14.6H3.78119L9.87932 6.83874ZM5.56164 14.6L10.5279 8.27936C10.5752 8.5122 10.6 8.7532 10.6 9L10.6 12.5799L11.6 13.5799V14.5C11.6 14.5552 11.5552 14.6 11.5 14.6H5.56164Z" fill="currentColor"/>
</g>
</svg>
