<svg preserveAspectRatio="none" width="14" height="20" overflow="visible" style="display: block;" viewBox="0 0 14 20" fill="none" xmlns="http://www.w3.org/2000/svg">
<g id="Icon">
<g id="Icon_2">
<path fill-rule="evenodd" clip-rule="evenodd" d="M6.99512 6.7998C8.21024 6.7998 9.19605 7.78493 9.19629 9C9.19629 10.2153 8.21039 11.2012 6.99512 11.2012C5.78011 11.2009 4.79492 10.2151 4.79492 9C4.79516 7.78512 5.78025 6.80011 6.99512 6.7998ZM6.99512 8.2002C6.55345 8.2005 6.19555 8.55832 6.19531 9C6.19531 9.44188 6.5533 9.80048 6.99512 9.80078C7.43719 9.80078 7.7959 9.44207 7.7959 9C7.79566 8.55813 7.43704 8.2002 6.99512 8.2002Z" fill="currentColor"/>
<path fill-rule="evenodd" clip-rule="evenodd" d="M7 4C10.866 4 14 7.13401 14 11C14 14.866 10.866 18 7 18C3.13401 18 0 14.866 0 11C0 7.13401 3.13401 4 7 4ZM5.93945 13.4004C5.27187 13.4005 4.71219 13.9061 4.64551 14.5703L4.5 16.0107C5.25261 16.3869 6.10131 16.5996 7 16.5996C7.8976 16.5996 8.74514 16.3871 9.49707 16.0117L9.35352 14.5703C9.28682 13.9061 8.72806 13.4006 8.06055 13.4004H5.93945ZM7 5.40039C3.90721 5.40039 1.40039 7.90721 1.40039 11C1.40039 12.6185 2.08786 14.0754 3.18555 15.0977L3.25293 14.4307C3.39136 13.0509 4.55276 12.0001 5.93945 12H8.06055C9.44719 12.0002 10.6087 13.0509 10.7471 14.4307L10.8135 15.0977C11.9115 14.0754 12.5996 12.6187 12.5996 11C12.5996 7.90721 10.0928 5.40039 7 5.40039Z" fill="currentColor"/>
</g>
</g>
</svg>
