<svg preserveAspectRatio="none" width="12" height="20" overflow="visible" style="display: block;" viewBox="0 0 12 20" fill="none" xmlns="http://www.w3.org/2000/svg">
<g id="Icon">
<path id="Icon_2" fill-rule="evenodd" clip-rule="evenodd" d="M2.44582 14.8353L1.03266 17.1055L2.22104 17.8448L11.0004 3.74119L9.81198 3.00195L9.29034 3.83995H2.00023C1.2866 3.83995 0.802649 4.56566 1.07719 5.22408L3.00081 9.83743L1.00081 12.8362V13.4359V14.8353H2.40081H2.44582ZM3.31694 13.4359L8.41922 5.23936H2.6003L4.29306 9.29906L4.58135 9.99045L4.16568 10.6137L2.40081 13.2599V13.4359H3.31694ZM5.30083 15.6731L6.69361 13.4359H9.60081V13.2599L8.15386 11.0904L8.99603 9.73762L11.0008 12.8362V13.4359V14.8353H9.60081H6.70083V17.9999H5.30083V15.6731Z" fill="currentColor"/>
</g>
</svg>
