<svg preserveAspectRatio="none" width="14" height="20" overflow="visible" style="display: block;" viewBox="0 0 14 20" fill="none" xmlns="http://www.w3.org/2000/svg">
<g id="Icon">
<g id="Icon_2">
<path d="M7 13C7.55228 13 8 13.4477 8 14C8 14.5523 7.55228 15 7 15C6.44772 15 6 14.5523 6 14C6 13.4477 6.44772 13 7 13Z" fill="currentColor"/>
<path d="M7.00098 6.83008C8.23641 6.83008 9.2332 7.83474 9.2334 9.06836C9.23331 9.89633 8.78475 10.6203 8.11914 11.0068C7.83398 11.1715 7.70117 11.2734 7.70117 11.6455V12.0039H6.30078V11.6455C6.30078 10.7852 6.67741 10.2223 7.41602 9.7959C8.15462 9.36946 7.84766 8.23047 7.00098 8.23047C6.61216 8.23049 6.28188 8.50003 6.19238 8.86816L6.02734 9.54883L4.66602 9.21875L4.83105 8.53906C5.06828 7.56058 5.94765 6.8301 7.00098 6.83008Z" fill="currentColor"/>
<path fill-rule="evenodd" clip-rule="evenodd" d="M7 4C10.866 4 14 7.13401 14 11C14 14.866 10.866 18 7 18C3.13401 18 0 14.866 0 11C0 7.13401 3.13401 4 7 4ZM7 5.40039C3.90721 5.40039 1.40039 7.90721 1.40039 11C1.40039 14.0928 3.90721 16.5996 7 16.5996C10.0928 16.5996 12.5996 14.0928 12.5996 11C12.5996 7.90721 10.0928 5.40039 7 5.40039Z" fill="currentColor"/>
</g>
</g>
</svg>
