<svg preserveAspectRatio="none" width="15" height="20" overflow="visible" style="display: block;" viewBox="0 0 15 20" fill="none" xmlns="http://www.w3.org/2000/svg">
<g id="Icon">
<path id="Icon_2" fill-rule="evenodd" clip-rule="evenodd" d="M13.3235 18C13.6742 17.9885 13.9622 17.7192 13.9971 17.37C14.308 14.2606 13.7492 11.8192 12.5151 10.1361C11.4089 8.62764 9.8112 7.79931 8.00055 7.63171V5.00037C8.00055 4.72095 7.83438 4.4683 7.57781 4.35762C7.32125 4.24695 7.02344 4.29945 6.82019 4.49119L0.980469 10.0004L6.82019 15.5095C7.02344 15.7013 7.32125 15.7538 7.57781 15.6431C7.83438 15.5324 8.00055 15.2798 8.00055 15.0004V12.4265C9.38454 12.5344 10.3315 12.9712 11.0056 13.6453C11.8067 14.4465 12.3206 15.6788 12.6101 17.4154C12.6678 17.7616 12.9728 18.0115 13.3235 18ZM11.9955 12.6554C10.8777 11.5376 9.32718 11.0004 7.30055 11.0004H6.60055V13.3777L3.02063 10.0004L6.60055 6.62309V8.99978H7.30055C9.00389 8.99978 10.4327 9.66391 11.386 10.964C11.7972 11.5247 12.1314 12.2197 12.3573 13.0561C12.2434 12.9164 12.1229 12.7828 11.9955 12.6554Z" fill="currentColor"/>
</g>
</svg>
