<svg width="20" height="20" viewBox="0 0 20 20" fill="none" xmlns="http://www.w3.org/2000/svg">
<path fill-rule="evenodd" clip-rule="evenodd" d="M13.6 10.1001C13.6 12.3645 11.7644 14.2001 9.5 14.2001C7.23563 14.2001 5.4 12.3645 5.4 10.1001C5.4 7.83573 7.23563 6.0001 9.5 6.0001C11.7644 6.0001 13.6 7.83573 13.6 10.1001ZM12.8627 14.4527C11.933 15.172 10.7665 15.6001 9.5 15.6001C6.46243 15.6001 4 13.1377 4 10.1001C4 7.06253 6.46243 4.6001 9.5 4.6001C12.5376 4.6001 15 7.06253 15 10.1001C15 11.3666 14.5719 12.533 13.8526 13.4628L16.495 16.1051L15.505 17.0951L12.8627 14.4527Z" fill="currentColor"/>
</svg>
