<svg preserveAspectRatio="none" width="16" height="20" overflow="visible" style="display: block;" viewBox="0 0 16 20" fill="none" xmlns="http://www.w3.org/2000/svg">
<g id="Icon">
<path id="Icon_2" fill-rule="evenodd" clip-rule="evenodd" d="M6.99769 7.44624L6.96183 7.41216C5.83414 6.34091 4.0058 6.02993 2.87812 7.10118C1.75043 8.17242 1.75043 10.2202 2.87812 11.2915L8.0001 15.742L11.2599 12.9095L9.77419 11.4238L9.07562 12.1224C8.14307 13.055 6.63112 13.055 5.69857 12.1224C4.76603 11.1899 4.76603 9.67791 5.69857 8.74536L6.99769 7.44624ZM8.47833 7.94447L8.47885 7.94499L6.68852 9.73531C6.30271 10.1211 6.30271 10.7466 6.68852 11.1325C7.07433 11.5183 7.69986 11.5183 8.08567 11.1325L9.27922 9.93891L9.77419 9.44393L10.2692 9.93891L12.3193 11.989L13.1221 11.2915C14.2498 10.2202 14.2498 8.17242 13.1221 7.10118C11.9944 6.02993 10.1661 6.34091 9.03837 7.41215L8.47833 7.94447ZM8.05162 6.37403L8.0001 6.42301L7.94827 6.37374C6.47862 4.97765 3.76092 4.28708 1.89168 6.06277C0.997163 6.91251 0.600098 8.0923 0.600098 9.19633C0.600098 10.3004 0.997163 11.4801 1.89168 12.3299L7.60648 17.2973C7.83221 17.4935 8.16798 17.4935 8.39372 17.2973L14.1085 12.3299C15.003 11.4801 15.4001 10.3004 15.4001 9.19633C15.4001 8.0923 15.003 6.91251 14.1085 6.06276C12.2393 4.28707 9.52127 4.97794 8.05162 6.37403Z" fill="currentColor"/>
</g>
</svg>
