<svg preserveAspectRatio="none" width="16" height="20" overflow="visible" style="display: block;" viewBox="0 0 16 20" fill="none" xmlns="http://www.w3.org/2000/svg">
<g id="Icon">
<path id="Icon_2" fill-rule="evenodd" clip-rule="evenodd" d="M8 5.00006C10.8886 5.00006 13.4912 6.22484 15.3167 8.18342L14.2553 9.24485C12.7019 7.55737 10.4744 6.50006 8 6.50006C5.52561 6.50006 3.29816 7.55735 1.74479 9.24479L0.68335 8.18336C2.50887 6.22481 5.1114 5.00006 8 5.00006ZM8 9.00006C9.78409 9.00006 11.3863 9.77874 12.4853 11.0148L11.4222 12.0779C10.5969 11.1122 9.36992 10.5001 8 10.5001C6.6301 10.5001 5.40318 11.1122 4.57782 12.0778L3.51471 11.0147C4.61374 9.77871 6.21594 9.00006 8 9.00006ZM9.79995 15.2C9.79995 16.1941 8.99406 17 7.99995 17C7.00584 17 6.19995 16.1941 6.19995 15.2C6.19995 14.2059 7.00584 13.4 7.99995 13.4C8.99406 13.4 9.79995 14.2059 9.79995 15.2ZM8.49994 15.2C8.49994 15.4761 8.27608 15.7 7.99994 15.7C7.7238 15.7 7.49994 15.4761 7.49994 15.2C7.49994 14.9239 7.7238 14.7 7.99994 14.7C8.27608 14.7 8.49994 14.9239 8.49994 15.2Z" fill="currentColor"/>
</g>
</svg>
