<svg preserveAspectRatio="none" width="17" height="20" overflow="visible" style="display: block;" viewBox="0 0 17 20" fill="none" xmlns="http://www.w3.org/2000/svg">
<g id="Icon">
<path id="Icon_2" fill-rule="evenodd" clip-rule="evenodd" d="M5.29993 3.60468C4.91333 3.60468 4.59993 3.91808 4.59993 4.30468V5.99999H2C1.44772 5.99999 1 6.4477 1 6.99999V16.4C1 16.9523 1.44772 17.4 2 17.4H15C15.5523 17.4 16 16.9523 16 16.4V6.99999C16 6.4477 15.5523 5.99999 15 5.99999H12.4V4.30468C12.4 3.91808 12.0866 3.60468 11.7 3.60468H5.29993ZM11 5.99999V5.00468H5.99993V5.99999H11ZM2.4 7.39999V9.99999H14.6V7.39999H2.4ZM2.4 16V11.4H7V12.4H10V11.4H14.6V16H2.4Z" fill="currentColor"/>
</g>
</svg>
