<svg width="20" height="20" viewBox="0 0 20 20" fill="none" xmlns="http://www.w3.org/2000/svg">
<path d="M12.347 2.6448C13.3677 2.3989 14.44 2.46695 15.4213 2.83914C16.4026 3.21144 17.248 3.87166 17.8431 4.73269C18.4375 5.59263 18.7545 6.61196 18.7504 7.65554L18.7455 7.85769C18.6596 9.92986 17.2661 11.4317 16.1283 12.5579L16.1185 12.5677L11.7699 16.7307L11.7689 16.7298C11.5524 16.9616 11.2945 17.1511 11.0052 17.2825C10.6942 17.4238 10.3566 17.4981 10.015 17.5003C9.67343 17.5024 9.33462 17.4326 9.02185 17.2952C8.72729 17.1657 8.46371 16.9767 8.24255 16.7434V16.7454L3.8822 12.5667L3.87244 12.5579C2.69871 11.3961 1.25037 9.84094 1.25037 7.65554C1.25041 6.61312 1.56971 5.59605 2.16541 4.73855C2.76105 3.88121 3.60462 3.22421 4.58337 2.85281C5.56223 2.48147 6.632 2.41265 7.65076 2.65554C8.59683 2.8812 9.40056 3.5137 9.99841 4.11453C10.5956 3.50942 11.3997 2.87313 12.347 2.6448ZM2.91638 7.65554C2.91638 9.07074 3.83808 10.1782 5.03455 11.3635L9.39587 15.5413L9.43787 15.5852C9.50819 15.6631 9.59496 15.7259 9.69275 15.7688C9.79053 15.8118 9.89671 15.8339 10.0043 15.8333C10.112 15.8326 10.2185 15.8091 10.3158 15.7649C10.4128 15.7208 10.4985 15.657 10.5677 15.5784L10.6176 15.5266L14.9652 11.3635C16.161 10.1789 17.0834 9.06344 17.0834 7.65554V7.65164C17.0868 6.94902 16.8739 6.26131 16.472 5.67996C16.0702 5.09853 15.4979 4.65095 14.8304 4.39773C14.1629 4.14448 13.4327 4.09845 12.7377 4.26589C12.135 4.41118 11.5036 4.91764 10.9437 5.54031C10.9391 5.54541 10.9338 5.54996 10.9291 5.55496C10.8092 5.68182 10.665 5.78321 10.5052 5.85183C10.3457 5.92034 10.1738 5.9553 10.0004 5.95535C9.82676 5.95535 9.65428 5.92045 9.49451 5.85183C9.33472 5.7832 9.19058 5.68185 9.07068 5.55496C9.06691 5.55096 9.06265 5.5473 9.05896 5.54324C8.49642 4.92361 7.86564 4.42011 7.26404 4.27664C6.56999 4.11116 5.84144 4.15775 5.17517 4.41042C4.50888 4.66319 3.93716 5.11022 3.53455 5.68972C3.13211 6.26904 2.91642 6.95427 2.91638 7.65554Z" fill="currentColor"/>
</svg>
