<svg preserveAspectRatio="none" width="18" height="20" overflow="visible" style="display: block;" viewBox="0 0 18 20" fill="none" xmlns="http://www.w3.org/2000/svg">
<g id="Icon">
<path id="Icon_2" d="M6.34277 10.8252C6.54002 11.7436 7.25736 12.4609 8.17578 12.6582L9.01111 12.8379C9.4718 12.937 9.80078 13.3443 9.80078 13.8156V14.3856C9.80078 14.8569 9.4718 15.2641 9.01111 15.3633L8.17578 15.543C7.25742 15.7402 6.54011 16.4577 6.34277 17.376L6.16306 18.2113C6.06394 18.672 5.65666 19.001 5.18543 19.001H4.61535C4.14412 19.001 3.73684 18.672 3.63772 18.2113L3.45801 17.376C3.26067 16.4577 2.54336 15.7402 1.625 15.543L0.789669 15.3633C0.32898 15.2641 0 14.8569 0 14.3856V13.8156C0 13.3443 0.32898 12.937 0.789668 12.8379L1.625 12.6582C2.54342 12.4609 3.26076 11.7436 3.45801 10.8252L3.63772 9.98986C3.73684 9.52918 4.14412 9.2002 4.61535 9.2002H5.18543C5.65666 9.2002 6.06394 9.52918 6.16306 9.98986L6.34277 10.8252ZM4.90039 12.1289C4.48796 12.9919 3.79166 13.6881 2.92871 14.1006C3.79136 14.5129 4.48788 15.2088 4.90039 16.0713C5.31278 15.209 6.00881 14.5129 6.87109 14.1006C6.00852 13.6881 5.3127 12.9916 4.90039 12.1289ZM12.1123 1C12.5331 1.00457 12.8947 1.30007 12.9829 1.71159L13.252 2.9668L13.3174 3.22461C13.6885 4.49264 14.7267 5.46666 16.0322 5.74707L17.2096 5.9995C17.6707 6.09834 18 6.50578 18 6.97728V7.90185C18 8.32647 17.7033 8.69337 17.2881 8.78223L16.0322 9.05273C14.6397 9.35185 13.5512 10.4396 13.252 11.832L12.9995 13.0094C12.9007 13.4705 12.4932 13.7998 12.0217 13.7998H11.1775C10.706 13.7998 10.2985 13.4705 10.1997 13.0094L9.94727 11.832C9.64806 10.4396 8.55948 9.35186 7.16699 9.05273L5.91113 8.78223C5.49591 8.69337 5.19922 8.32647 5.19922 7.90185V6.97728C5.19922 6.50578 5.52857 6.09834 5.98959 5.9995L7.16699 5.74707C8.55966 5.44795 9.64818 4.35948 9.94727 2.9668L10.2163 1.71159C10.3045 1.30007 10.6661 1.00457 11.0869 1C11.1142 0.999785 12.0851 0.999785 12.1123 1ZM11.5996 3.75879C11.0774 5.50738 9.70754 6.87714 7.95898 7.39941C9.70745 7.92161 11.0773 9.29163 11.5996 11.04C12.1219 9.29193 13.4912 7.92181 15.2393 7.39941C13.4911 6.87694 12.1217 5.50708 11.5996 3.75879Z" fill="currentColor"/>
</g>
</svg>
