<svg preserveAspectRatio="none" width="16" height="20" overflow="visible" style="display: block;" viewBox="0 0 16 20" fill="none" xmlns="http://www.w3.org/2000/svg">
<g id="Icon">
<g id="Icon_2">
<path fill-rule="evenodd" clip-rule="evenodd" d="M16 7.33885C16 7.20223 15.9046 7.08417 15.771 7.05549L14.4717 6.77648C12.8443 6.42701 11.573 5.15572 11.2235 3.52826L10.9445 2.22897C10.9158 2.0954 10.7978 2 10.6612 2H10.3388C10.2022 2 10.0842 2.0954 10.0555 2.22897L9.77649 3.52826C9.42701 5.15572 8.15572 6.42701 6.52826 6.77648L5.22897 7.05549C5.0954 7.08417 5 7.20223 5 7.33885V7.66115C5 7.79777 5.0954 7.91583 5.22897 7.94451L6.52826 8.22352C8.15572 8.57299 9.42701 9.84428 9.77649 11.4717L10.0555 12.771C10.0842 12.9046 10.2022 13 10.3388 13H10.6612C10.7978 13 10.9158 12.9046 10.9445 12.771L11.2235 11.4717C11.573 9.84428 12.8443 8.57299 14.4717 8.22352L15.771 7.94451C15.9046 7.91583 16 7.79777 16 7.66115V7.33885Z" fill="currentColor"/>
<path fill-rule="evenodd" clip-rule="evenodd" d="M7.5 14.123C7.5 14.0399 7.44192 13.968 7.36061 13.9505L6.458 13.7567C5.34838 13.5184 4.48159 12.6516 4.24331 11.542L4.04948 10.6394C4.03202 10.5581 3.96015 10.5 3.87699 10.5H3.62301C3.53985 10.5 3.46798 10.5581 3.45052 10.6394L3.25669 11.542C3.01841 12.6516 2.15162 13.5184 1.042 13.7567L0.139387 13.9505C0.0580763 13.968 0 14.0399 0 14.123V14.377C0 14.4602 0.0580763 14.532 0.139387 14.5495L1.042 14.7433C2.15163 14.9816 3.01841 15.8484 3.25669 16.958L3.45052 17.8606C3.46798 17.9419 3.53985 18 3.62301 18H3.87699C3.96015 18 4.03202 17.9419 4.04948 17.8606L4.24331 16.958C4.48159 15.8484 5.34838 14.9816 6.458 14.7433L7.36061 14.5495C7.44192 14.532 7.5 14.4601 7.5 14.377V14.123Z" fill="currentColor"/>
</g>
</g>
</svg>
