<svg preserveAspectRatio="none" width="15" height="20" overflow="visible" style="display: block;" viewBox="0 0 15 20" fill="none" xmlns="http://www.w3.org/2000/svg">
<g id="Icon" clip-path="url(#clip0_0_4)">
<path id="Icon_2" d="M7.69618 5.00385C8.64245 4.96669 9.55659 5.2152 10.3017 5.78999C11.045 6.36359 11.5454 7.20329 11.7802 8.22065C11.9045 8.75962 11.5527 9.2938 10.995 9.41401C10.4374 9.534 9.88404 9.19508 9.75966 8.6562C9.60856 8.00146 9.32131 7.59296 9.00966 7.35249C8.70001 7.11395 8.29117 6.981 7.78114 7.00092C6.73035 7.04226 5.26032 7.75022 3.91591 9.44233L3.91493 9.44428C2.99315 10.6053 2.35742 11.9592 2.14442 13.0839C1.91533 14.2946 2.22405 14.8005 2.49501 14.956L2.49794 14.958C2.57664 15.0022 2.76765 15.0736 3.26064 14.7646C3.75684 14.4533 4.32385 13.8849 4.88759 13.1562C5.44071 12.4411 5.94398 11.6349 6.32802 10.9189C6.72543 10.1779 6.95013 9.61599 7.00478 9.37592C7.02271 9.29712 7.05088 9.22279 7.08583 9.15327C7.08897 9.14702 7.09233 9.14089 7.0956 9.13471C7.16922 8.99578 7.27326 8.8772 7.39931 8.78706C7.40598 8.78227 7.41303 8.77801 7.41982 8.77339C7.44013 8.75957 7.46103 8.74669 7.48232 8.73432C7.48911 8.73036 7.49593 8.72642 7.50282 8.7226C7.52371 8.71108 7.54461 8.69951 7.5663 8.6894C7.57817 8.68386 7.59033 8.67889 7.60243 8.67378C7.61885 8.66686 7.63544 8.66034 7.65224 8.65424C7.66759 8.64866 7.68345 8.64448 7.69911 8.6396C7.71472 8.63474 7.73011 8.6291 7.74599 8.62495C7.76238 8.62066 7.77913 8.61772 7.79579 8.61421C7.80622 8.61201 7.81653 8.60925 7.82704 8.60737L7.86513 8.60151C7.87 8.60082 7.87488 8.60018 7.87978 8.59956C7.90498 8.59634 7.93036 8.59413 7.95595 8.59272C7.96892 8.59201 7.98194 8.59199 7.99501 8.59174C8.01222 8.59143 8.02944 8.59122 8.04677 8.59174C8.0633 8.59224 8.07993 8.59242 8.09657 8.5937C8.11995 8.59551 8.14339 8.59813 8.16688 8.60151C8.17011 8.60197 8.17342 8.60297 8.17665 8.60346C8.18286 8.60441 8.18904 8.60535 8.19521 8.60639C8.20919 8.60879 8.2232 8.61124 8.2372 8.61421C8.24405 8.61566 8.25091 8.61751 8.25771 8.61909C8.27388 8.62283 8.28973 8.62734 8.30556 8.63178C8.32532 8.63736 8.34498 8.64275 8.36415 8.64936C8.37706 8.65381 8.38959 8.6591 8.40224 8.66401C8.41934 8.67067 8.43644 8.67705 8.45302 8.68452C8.46929 8.69183 8.48511 8.69988 8.50087 8.70796C8.51649 8.71598 8.53168 8.72461 8.54677 8.73335C8.55768 8.73966 8.56837 8.7462 8.57899 8.75288C8.59357 8.76205 8.60795 8.77137 8.62196 8.7812C8.63995 8.7938 8.65765 8.80662 8.6747 8.82026C8.68464 8.82823 8.69439 8.83637 8.70399 8.84467C8.71781 8.8566 8.73092 8.86919 8.74403 8.88178C8.7535 8.8909 8.76327 8.89968 8.77235 8.90913C8.81145 8.94971 8.84622 8.99379 8.87782 9.03999C8.88098 9.04461 8.88451 9.04898 8.88759 9.05366C8.89975 9.0721 8.91086 9.09111 8.92177 9.1103C8.92875 9.1226 8.93583 9.13483 8.94228 9.14741C8.95245 9.16725 8.96178 9.18745 8.9706 9.20796C8.97341 9.21451 8.97671 9.22087 8.97938 9.22749C8.98664 9.24543 8.99273 9.26379 8.99892 9.28217C9.00391 9.29701 9.00831 9.31201 9.01259 9.3271C9.03666 9.4121 9.04898 9.5007 9.04872 9.59174C9.04871 9.5989 9.0489 9.60605 9.04872 9.61323C9.04815 9.63593 9.04701 9.65868 9.04481 9.68159C9.04385 9.6917 9.0422 9.70173 9.04091 9.71186C9.03951 9.72283 9.03976 9.73406 9.03798 9.74507C8.80163 11.1996 9.07503 11.9886 9.35341 12.3349C9.57768 12.6135 9.90188 12.7309 10.372 12.5937C10.3769 12.5921 10.3817 12.5903 10.3866 12.5888C10.7975 12.4652 11.292 12.1032 11.7753 11.3486C12.2536 10.6016 12.6704 9.54471 12.9511 8.19721C13.0639 7.65585 13.6106 7.306 14.1708 7.41499C14.7304 7.5244 15.092 8.05071 14.9794 8.59174C14.6655 10.0988 14.1781 11.3971 13.535 12.4013C12.8969 13.3977 12.0526 14.1828 11.0018 14.499C10.9971 14.5004 10.992 14.5005 10.9872 14.5019C9.80264 14.8534 8.54139 14.5832 7.71962 13.5615C7.6067 13.421 7.50683 13.2696 7.41689 13.1093C7.14811 13.5289 6.85531 13.9511 6.54482 14.3525C5.92368 15.1555 5.18402 15.9434 4.38661 16.4433C3.59176 16.9416 2.49901 17.2842 1.43935 16.6767C1.43527 16.6744 1.43166 16.6713 1.42763 16.6689C-0.0226288 15.8286 -0.154525 14.1171 0.109268 12.7236C0.388969 11.2466 1.17676 9.61357 2.25771 8.24604C2.26244 8.23978 2.26744 8.23368 2.27235 8.22749C3.84981 6.2408 5.83278 5.07731 7.69618 5.00385Z" fill="currentColor"/>
</g>
<defs>
<clipPath id="clip0_0_4">
<rect width="15" height="20" fill="currentColor"/>
</clipPath>
</defs>
</svg>
