<svg preserveAspectRatio="none" width="18" height="20" overflow="visible" style="display: block;" viewBox="0 0 18 20" fill="none" xmlns="http://www.w3.org/2000/svg">
<g id="Icon">
<path id="Icon_2" d="M8.58884 3.95214C10.0694 2.69985 12.2467 2.6761 13.7568 3.92089L13.9297 4.07226C15.6037 5.61643 15.6617 8.25246 14.0576 9.86914L13.8916 10.0273L9.73533 13.7754C8.87705 14.5492 7.60877 14.624 6.6699 13.9844L6.48631 13.8477C5.32449 12.89 5.27313 11.1275 6.37693 10.1035L9.9658 6.77539L10.624 6.16503L11.8457 7.48144L11.1875 8.09179L7.59861 11.4199C7.29131 11.7049 7.3055 12.1953 7.62888 12.4619L7.73338 12.5332C7.98773 12.6744 8.30937 12.6423 8.5322 12.4414L12.6894 8.69433L12.8672 8.51464C13.6406 7.64341 13.6113 6.31352 12.7998 5.47753L12.6142 5.30664C11.8034 4.63842 10.6463 4.62892 9.8281 5.25878L9.6699 5.39355L4.98728 9.74121C3.23599 11.3673 3.44424 14.1981 5.41502 15.5498L5.68845 15.7197C7.07829 16.507 8.83345 16.3238 10.0332 15.2334L14.5029 11.1709L15.167 10.5674L16.375 11.8955L15.7109 12.5L11.2402 16.5625C9.40366 18.2315 6.68923 18.4652 4.60056 17.1611L4.40037 17.0303C1.48051 15.0279 1.17118 10.8349 3.7656 8.42578L8.44822 4.07812L8.58884 3.95214Z" fill="currentColor"/>
</g>
</svg>
