<svg preserveAspectRatio="none" width="16" height="20" overflow="visible" style="display: block;" viewBox="0 0 16 20" fill="none" xmlns="http://www.w3.org/2000/svg">
<g id="Icon">
<path id="Icon_2" fill-rule="evenodd" clip-rule="evenodd" d="M6.5 2.40003V3.80002L9.5 3.8V2.4L6.5 2.40003ZM2.0001 7.8V9.4H0.600098V11V12.4V14H2.0001V15.2V15.6V16.8H3.6001H12.4001H14.0001V15.6V15.2V14H15.4001V12.4V11V9.4H14.0001V7.8V6.9C14.0001 5.51929 12.8808 4.4 11.5001 4.4H4.5001C3.11939 4.4 2.0001 5.51929 2.0001 6.9V7.8ZM13.8001 11H12.4001V9.4V6.9C12.4001 6.40294 11.9972 6 11.5001 6H4.5001C4.00304 6 3.6001 6.40294 3.6001 6.9V9.4V11H2.2001V12.4H3.6001V14V15.2H12.4001V14V12.4H13.8001V11ZM7 9.65C7 10.3404 6.44036 10.9 5.75 10.9C5.05964 10.9 4.5 10.3404 4.5 9.65C4.5 8.95964 5.05964 8.4 5.75 8.4C6.44036 8.4 7 8.95964 7 9.65ZM10.25 10.9C10.9404 10.9 11.5 10.3404 11.5 9.65C11.5 8.95964 10.9404 8.4 10.25 8.4C9.55964 8.4 9 8.95964 9 9.65C9 10.3404 9.55964 10.9 10.25 10.9ZM4.50005 13.8V12.4L11.5 12.4V13.8L4.50005 13.8Z" fill="currentColor"/>
</g>
</svg>
