<svg preserveAspectRatio="none" width="16" height="20" overflow="visible" style="display: block;" viewBox="0 0 16 20" fill="none" xmlns="http://www.w3.org/2000/svg">
<g id="Icon">
<path id="Icon_2" fill-rule="evenodd" clip-rule="evenodd" d="M1.32683 5.23871C0.944989 5.38557 0.71024 5.7715 0.755419 6.17811C0.997258 8.35466 2.11473 10.876 4.39801 13.3715L4.99015 13.9915C5.00023 14.0016 5.01033 14.0118 5.02046 14.0219L5.67084 14.6443C8.1664 16.9276 10.6877 18.045 12.8643 18.2869C13.2709 18.3321 13.6568 18.0973 13.8037 17.7155L14.9822 14.6513C15.1559 14.1997 14.9414 13.6916 14.4967 13.501L11.1969 12.0868C10.9235 11.9697 10.61 11.9951 10.3591 12.1548L10.0412 12.3571C8.86262 13.1071 7.55697 13.0699 6.76468 12.2777L6.7551 12.2681C5.97207 11.4749 5.93825 10.175 6.68524 9.00115L6.88755 8.68323C7.0472 8.43236 7.07262 8.11883 6.95549 7.84551L5.54127 4.54568C5.35068 4.10095 4.84256 3.8865 4.39096 4.0602L1.32683 5.23871ZM5.11427 8.11879C4.68797 8.81679 4.41266 9.62559 4.35687 10.4437C3.42197 9.08317 2.88901 7.79234 2.65302 6.65718L4.22821 6.05134L5.11427 8.11879ZM10.9236 13.928C10.2256 14.3543 9.41678 14.6296 8.59867 14.6854C9.9592 15.6203 11.25 16.1533 12.3852 16.3893L12.991 14.8141L10.9236 13.928Z" fill="currentColor"/>
</g>
</svg>
