<svg preserveAspectRatio="none" width="15" height="20" overflow="visible" style="display: block;" viewBox="0 0 15 20" fill="none" xmlns="http://www.w3.org/2000/svg">
<g id="Icon">
<g id="Icon_2">
<path d="M12.8225 5.72478C12.9365 5.47331 13 5.19407 13 4.9C13 3.79543 12.1045 2.9 11 2.9C10.1685 2.9 9.45547 3.40744 9.15377 4.12954C9.0547 4.36667 8.99997 4.62694 8.99997 4.9C8.99997 6.00457 9.8954 6.9 11 6.9C11.3451 6.9 11.6699 6.81256 11.9533 6.65861C12.3353 6.45108 12.6422 6.1227 12.8225 5.72478Z" fill="currentColor"/>
<path d="M2.09546 5.62396C3.37535 4.5607 5.16858 4.01565 7.30711 4.00034C7.23709 4.28876 7.19998 4.59004 7.19998 4.89999C7.19998 5.21021 7.23716 5.51175 7.30729 5.80039C5.4563 5.81563 4.1133 6.28775 3.24568 7.00852C2.38346 7.72481 1.89998 8.76011 1.89998 10.1032C1.89998 11.7605 2.6352 12.9814 3.99659 13.6944C4.24829 13.8262 4.42296 14.0692 4.46778 14.3497L4.59761 15.1624L5.3325 14.5271C5.5289 14.3573 5.78904 14.2806 6.04613 14.3167C6.46471 14.3754 6.91611 14.4065 7.39998 14.4065C9.29889 14.4065 10.6722 13.9307 11.5543 13.198C12.4165 12.4817 12.9 11.4464 12.9 10.1032C12.9 9.44955 12.7855 8.86877 12.5685 8.3622C13.1392 8.10323 13.6345 7.70731 14.0126 7.21638C14.4684 8.06338 14.7 9.0403 14.7 10.1032C14.7 11.9211 14.0227 13.4875 12.7045 14.5825C11.4061 15.6611 9.57947 16.2065 7.39998 16.2065C6.98921 16.2065 6.59194 16.1872 6.20896 16.1488L4.55236 17.5809C4.30536 17.7944 3.96209 17.8574 3.65536 17.7455C3.34863 17.6336 3.12655 17.3644 3.07505 17.042L2.75825 15.0589C1.03061 13.9875 0.0999756 12.2341 0.0999756 10.1032C0.0999756 8.28534 0.777289 6.71903 2.09546 5.62396Z" fill="currentColor"/>
</g>
</g>
</svg>
