<svg preserveAspectRatio="none" width="15" height="20" overflow="visible" style="display: block;" viewBox="0 0 15 20" fill="none" xmlns="http://www.w3.org/2000/svg">
<g id="Icon">
<g id="Icon_2">
<path d="M5.85935 12.8682L7.49997 11.7301L9.14059 12.8682C9.18464 12.8988 9.23916 12.9078 9.29005 12.893C9.38717 12.8648 9.44406 12.7594 9.41713 12.6576L8.89144 10.6705L10.4311 9.38667C10.4724 9.35221 10.4975 9.30065 10.4998 9.24534C10.5042 9.13982 10.4261 9.05053 10.3255 9.04592L8.35994 8.9559L7.67088 7.02435C7.65238 6.97249 7.61335 6.93158 7.56388 6.91219C7.46949 6.8752 7.36436 6.92541 7.32906 7.02435L6.64 8.9559L4.67448 9.04592C4.62171 9.04834 4.57253 9.0746 4.53965 9.11793C4.47691 9.20059 4.48999 9.32091 4.56885 9.38667L6.10851 10.6705L5.58281 12.6576C5.5687 12.711 5.57733 12.7681 5.60648 12.8143C5.6621 12.9024 5.77531 12.9265 5.85935 12.8682Z" fill="currentColor"/>
<path fill-rule="evenodd" clip-rule="evenodd" d="M7.39998 4C5.22048 4 3.39383 4.54534 2.09546 5.62395C0.777289 6.71902 0.0999756 8.28533 0.0999756 10.1032C0.0999756 12.2341 1.03061 13.9875 2.75825 15.0589L3.07504 17.042C3.12655 17.3644 3.34863 17.6336 3.65536 17.7455C3.96209 17.8574 4.30536 17.7944 4.55236 17.5809L6.20896 16.1488C6.59194 16.1872 6.98921 16.2065 7.39998 16.2065C9.57947 16.2065 11.4061 15.6611 12.7045 14.5825C14.0227 13.4874 14.7 11.9211 14.7 10.1032C14.7 8.28533 14.0227 6.71902 12.7045 5.62395C11.4061 4.54534 9.57947 4 7.39998 4ZM1.89998 10.1032C1.89998 8.7601 2.38346 7.7248 3.24568 7.00851C4.12771 6.27576 5.50106 5.8 7.39998 5.8C9.29889 5.8 10.6722 6.27576 11.5543 7.00851C12.4165 7.7248 12.9 8.7601 12.9 10.1032C12.9 11.4464 12.4165 12.4817 11.5543 13.198C10.6722 13.9307 9.29889 14.4065 7.39998 14.4065C6.91611 14.4065 6.46471 14.3754 6.04613 14.3167C5.78904 14.2806 5.5289 14.3573 5.3325 14.5271L4.5976 15.1624L4.46777 14.3497C4.42295 14.0691 4.24828 13.8262 3.99659 13.6944C2.6352 12.9814 1.89998 11.7605 1.89998 10.1032Z" fill="currentColor"/>
</g>
</g>
</svg>
