<svg preserveAspectRatio="none" width="15" height="20" overflow="visible" style="display: block;" viewBox="0 0 15 20" fill="none" xmlns="http://www.w3.org/2000/svg">
<g id="Icon">
<path id="Icon_2" fill-rule="evenodd" clip-rule="evenodd" d="M3.24568 7.00851C2.38346 7.7248 1.89998 8.7601 1.89998 10.1032C1.89998 11.7605 2.6352 12.9814 3.99659 13.6944C4.24828 13.8262 4.42295 14.0691 4.46777 14.3497L4.5976 15.1624L5.3325 14.5271C5.5289 14.3573 5.78904 14.2806 6.04613 14.3167C6.46471 14.3754 6.91611 14.4065 7.39998 14.4065C9.29889 14.4065 10.6722 13.9307 11.5543 13.198C12.4165 12.4817 12.9 11.4464 12.9 10.1032C12.9 8.7601 12.4165 7.7248 11.5543 7.00851C10.6722 6.27576 9.29889 5.8 7.39998 5.8C5.50106 5.8 4.12771 6.27576 3.24568 7.00851ZM2.09546 5.62395C3.39383 4.54534 5.22048 4 7.39998 4C9.57947 4 11.4061 4.54534 12.7045 5.62395C14.0227 6.71902 14.7 8.28533 14.7 10.1032C14.7 11.9211 14.0227 13.4874 12.7045 14.5825C11.4061 15.6611 9.57947 16.2065 7.39998 16.2065C6.98921 16.2065 6.59194 16.1872 6.20896 16.1488L4.55236 17.5809C4.30536 17.7944 3.96209 17.8574 3.65536 17.7455C3.34863 17.6336 3.12655 17.3644 3.07504 17.042L2.75825 15.0589C1.03061 13.9875 0.0999756 12.2341 0.0999756 10.1032C0.0999756 8.28533 0.777289 6.71902 2.09546 5.62395Z" fill="currentColor"/>
</g>
</svg>
