<svg preserveAspectRatio="none" width="18" height="20" overflow="visible" style="display: block;" viewBox="0 0 18 20" fill="none" xmlns="http://www.w3.org/2000/svg">
<g id="Icon">
<path id="Icon_2" fill-rule="evenodd" clip-rule="evenodd" d="M2.8 15.2V5.8H15.2V15.2H2.8ZM1 5.5C1 4.67157 1.67157 4 2.5 4H15.5C16.3284 4 17 4.67157 17 5.5V15.2V17H15.2H2.8H1V15.2V5.5ZM11.4843 11.7317L14.1831 8.58602L12.8169 7.41398L10.1182 10.5597C10.0792 10.6052 10.0092 10.6064 9.96867 10.5623L8.71729 9.20196C7.97323 8.39312 6.70017 8.38236 5.94255 9.17851L3.84802 11.3796L5.15198 12.6204L7.24651 10.4194C7.28638 10.3775 7.35339 10.378 7.39255 10.4206L8.64393 11.7809C9.41439 12.6185 10.7433 12.5955 11.4843 11.7317Z" fill="currentColor"/>
</g>
</svg>
