<svg preserveAspectRatio="none" width="15" height="20" overflow="visible" style="display: block;" viewBox="0 0 15 20" fill="none" xmlns="http://www.w3.org/2000/svg">
<g id="Icon">
<path id="Icon_2" fill-rule="evenodd" clip-rule="evenodd" d="M2.9 12.1265V6.25002C2.9 6.05679 3.05671 5.90002 3.25009 5.90002L9.14454 5.9C9.49963 5.90001 9.7083 6.06219 9.92988 6.45619C10.0401 6.65211 10.1265 6.86108 10.2252 7.0999C10.2328 7.1183 10.2405 7.13687 10.2483 7.15563C10.2984 7.27665 10.3569 7.41628 10.4207 7.54445C10.4811 7.66597 10.5724 7.83216 10.7054 7.98062C10.7968 8.08263 10.8804 8.17031 10.9557 8.24937C11.2696 8.57863 11.4408 8.75823 11.4408 9.2C11.4408 9.26822 11.4406 9.33411 11.4404 9.39793C11.4389 9.86628 11.4378 10.223 11.5221 10.5677C11.5921 10.854 11.7295 11.154 11.9044 11.5359C11.9509 11.6373 12 11.7446 12.0512 11.8589C12.1271 12.0283 12.1256 12.312 11.9642 12.5625C11.8266 12.7759 11.5394 13.0091 10.962 13.0091H8.89386C8.38549 13.0091 7.90743 13.1121 7.50701 13.3787C7.09568 13.6525 6.85982 14.0365 6.73238 14.4223C6.6105 14.7912 6.58148 15.1782 6.58045 15.5172C6.57945 15.8487 6.60626 16.1941 6.62979 16.4971L6.63189 16.5241C6.65714 16.8497 6.67796 17.1293 6.67619 17.3829C6.6744 17.6391 6.64876 17.8076 6.61232 17.9147C6.58222 18.0032 6.55599 18.0203 6.54435 18.0279C6.53146 18.0363 6.49246 18.0584 6.41108 18.0757C6.3682 17.9261 6.32737 17.7373 6.27313 17.4805L6.26761 17.4544C6.21335 17.1975 6.1489 16.8923 6.06366 16.5668C5.70794 15.2082 4.97951 13.4594 2.9 12.1265ZM5.08767 19.4095C5.33907 19.7093 5.7007 19.9 6.13632 19.9C6.64784 19.9 7.12738 19.7977 7.52974 19.5342C7.94364 19.2632 8.18466 18.8817 8.31641 18.4944C8.44233 18.1242 8.47377 17.7359 8.47615 17.3955C8.47852 17.0557 8.45111 16.7023 8.42716 16.3935L8.4265 16.385C8.40114 16.0581 8.37967 15.7778 8.38044 15.5226C8.38123 15.265 8.40578 15.0951 8.44155 14.9868C8.47057 14.899 8.49559 14.8828 8.50361 14.8776C8.50394 14.8774 8.50425 14.8772 8.50452 14.877C8.52228 14.8652 8.61884 14.8091 8.89386 14.8091H10.962C13.3439 14.8091 14.3767 12.6469 13.6939 11.1229C13.6026 10.9191 13.5318 10.7637 13.4765 10.6422C13.3396 10.3417 13.2969 10.2478 13.2705 10.1401C13.2408 10.0185 13.2408 9.90679 13.2408 9.20846V9.2C13.2408 7.96366 12.4962 7.22788 12.1608 6.8965C12.1207 6.85687 12.0865 6.82303 12.0601 6.7948C12.0552 6.78664 12.046 6.77026 12.0324 6.74305C11.9997 6.67727 11.9626 6.59086 11.9113 6.46688C11.9027 6.44614 11.8938 6.42447 11.8845 6.40197C11.792 6.1774 11.6652 5.86982 11.4988 5.57383C11.1167 4.8945 10.4189 4.10002 9.14456 4.1L3.2501 4.10002C2.06275 4.10001 1.1 5.06253 1.1 6.25002V12.2694C1.1 12.8325 1.40813 13.3182 1.84329 13.5881C3.47854 14.6021 4.02968 15.9049 4.32236 17.0227C4.3965 17.3059 4.45325 17.5745 4.50898 17.8383L4.51346 17.8595C4.56702 18.113 4.62475 18.3863 4.69631 18.6247C4.76505 18.8538 4.87542 19.1564 5.08767 19.4095Z" fill="currentColor"/>
</g>
</svg>
