<svg width="15" height="20" viewBox="0 0 15 20" fill="none" xmlns="http://www.w3.org/2000/svg">
<path d="M7.5 12.2998C8.16265 12.2999 8.7002 12.8373 8.7002 13.5C8.70019 14.1627 8.16265 14.7001 7.5 14.7002C6.83726 14.7002 6.29981 14.1627 6.2998 13.5C6.2998 12.8373 6.83726 12.2998 7.5 12.2998Z" fill="currentColor"/>
<path d="M8.7002 7.80078L8.2002 11H6.7998L6.2998 7.80078V6H8.7002V7.80078Z" fill="currentColor"/>
<path fill-rule="evenodd" clip-rule="evenodd" d="M7.5 3.2002C11.6421 3.2002 15 6.55806 15 10.7002C14.9999 14.8422 11.6421 18.2002 7.5 18.2002C3.35795 18.2002 0.000131943 14.8422 0 10.7002C0 6.55806 3.35786 3.2002 7.5 3.2002ZM7.5 5C4.35198 5 1.7998 7.55217 1.7998 10.7002C1.79994 13.8481 4.35206 16.4004 7.5 16.4004C10.6479 16.4004 13.2001 13.8481 13.2002 10.7002C13.2002 7.55217 10.648 5 7.5 5Z" fill="currentColor"/>
</svg>
