<svg width="15" height="20" viewBox="0 0 15 20" fill="none" xmlns="http://www.w3.org/2000/svg">
<path fill-rule="evenodd" clip-rule="evenodd" d="M7.5 3.2002C11.6421 3.2002 15 6.55806 15 10.7002C14.9999 14.8422 11.6421 18.2002 7.5 18.2002C3.35795 18.2002 0.000131943 14.8422 0 10.7002C0 6.55806 3.35786 3.2002 7.5 3.2002ZM7.5 12.2998C6.83726 12.2998 6.2998 12.8373 6.2998 13.5C6.29981 14.1627 6.83726 14.7002 7.5 14.7002C8.16265 14.7001 8.70019 14.1627 8.7002 13.5C8.7002 12.8373 8.16265 12.2999 7.5 12.2998ZM6.2998 7.80078L6.7998 11H8.2002L8.7002 7.80078V6H6.2998V7.80078Z" fill="currentColor"/>
</svg>
