<svg preserveAspectRatio="none" width="15" height="20" overflow="visible" style="display: block;" viewBox="0 0 15 20" fill="none" xmlns="http://www.w3.org/2000/svg">
<g id="Icon">
<path id="Icon_2" d="M7.7537 4.16662C8.09207 4.02852 8.48021 4.10888 8.73613 4.36974L14.2537 9.99965L8.73613 15.6296C8.48018 15.8907 8.09221 15.9709 7.7537 15.8327C7.4152 15.6944 7.19413 15.3653 7.19413 14.9997V12.9225C5.52261 13.0123 4.3887 13.3617 3.61991 13.9167C2.75644 14.5401 2.21245 15.5283 1.98514 17.1266C1.92063 17.5802 1.5251 17.9125 1.06717 17.8991C0.609374 17.8855 0.234913 17.5304 0.197046 17.0739C-0.0642528 13.9231 0.580525 11.411 2.0281 9.67348C3.30455 8.1415 5.11591 7.31909 7.19413 7.13831V4.99963C7.19424 4.63406 7.41525 4.30481 7.7537 4.16662ZM8.99394 8.90003H8.09355C6.04736 8.90009 4.45276 9.57535 3.41092 10.8258C3.01806 11.2974 2.68784 11.8704 2.44022 12.5514C2.48153 12.5197 2.5236 12.4884 2.56619 12.4577C3.91722 11.4822 5.76958 11.1003 8.09355 11.1002H8.99394V12.7956L11.7332 9.99965L8.99394 7.20374V8.90003Z" fill="currentColor"/>
</g>
</svg>
