<svg preserveAspectRatio="none" width="14" height="20" overflow="visible" style="display: block;" viewBox="0 0 14 20" fill="none" xmlns="http://www.w3.org/2000/svg">
<g id="Icon" clip-path="url(#clip0_0_4)">
<path id="Icon_2" fill-rule="evenodd" clip-rule="evenodd" d="M7 5.97691L8.19939 9.18448L11.6206 9.33398L11.6205 9.33403L8.19939 9.18454L7 5.97696L5.80061 9.18454L2.37946 9.33403L2.37939 9.33398L5.80061 9.18448L7 5.97691ZM5.05933 11.4659L4.14431 14.7658L4.14433 14.7658L5.05935 11.4659L5.05933 11.4659ZM13.8223 9.08038C14.1616 8.81041 13.9841 8.26397 13.5508 8.24504L9.0256 8.0473L7.43917 3.80465C7.28728 3.39845 6.71272 3.39845 6.56083 3.80465L4.9744 8.0473L0.44916 8.24504C0.015905 8.26397 -0.161642 8.81041 0.17774 9.08038L3.72251 11.9002L2.51219 16.2651C2.39631 16.683 2.86114 17.0207 3.22278 16.7814L7 14.2815L10.7772 16.7814C11.1389 17.0207 11.6037 16.683 11.4878 16.2651L10.2775 11.9002L13.8223 9.08038ZM7.91745 9.5726L10.5344 9.68695L8.48447 11.3177L9.1844 13.8419L7 12.3962L4.8156 13.8419L5.51554 11.3177L3.46557 9.68695L6.08256 9.5726L7 7.11904L7.91745 9.5726Z" fill="currentColor"/>
</g>
<defs>
<clipPath id="clip0_0_4">
<rect width="14" height="20" fill="currentColor"/>
</clipPath>
</defs>
</svg>
