<svg preserveAspectRatio="none" width="16" height="20" overflow="visible" style="display: block;" viewBox="0 0 16 20" fill="none" xmlns="http://www.w3.org/2000/svg">
<g id="Icon">
<g id="Icon_2">
<path d="M1 5.03088L4.3904 8.42128H1.54047V9.94995H7V4.49042L5.47133 4.49042V7.34035L2.08093 3.94995L1 5.03088Z" fill="currentColor"/>
<path fill-rule="evenodd" clip-rule="evenodd" d="M15.2446 6.17078C15.2898 5.76417 15.055 5.37825 14.6732 5.23138L11.609 4.05287C11.1574 3.87918 10.6493 4.09363 10.4587 4.53836L9.04451 7.83819C8.92737 8.1115 8.9528 8.42503 9.11244 8.6759L9.31476 8.99383C10.0648 10.1724 10.0276 11.4781 9.23533 12.2704C8.44304 13.0627 7.13739 13.0998 5.95879 12.3498L5.64087 12.1475C5.39 11.9878 5.07647 11.9624 4.80315 12.0795L1.50332 13.4938C1.05859 13.6844 0.844146 14.1925 1.01784 14.6441L2.19635 17.7082C2.34321 18.09 2.72914 18.3248 3.13575 18.2796C5.31231 18.0378 7.83362 16.9203 10.3292 14.637L11 14.0145L11.602 13.3642C13.8853 10.8687 15.0027 8.34734 15.2446 6.17078ZM11.6431 10.4364C11.5873 9.61826 11.312 8.80946 10.8857 8.11147L11.7718 6.04401L13.347 6.64986C13.111 7.78501 12.578 9.07585 11.6431 10.4364ZM7.40134 14.6782C6.58323 14.6224 5.77443 14.3471 5.07643 13.9208L3.00898 14.8068L3.61482 16.382C4.74998 16.146 6.04081 15.6131 7.40134 14.6782Z" fill="currentColor"/>
</g>
</g>
</svg>
