<svg width="15" height="20" viewBox="0 0 15 20" fill="none" xmlns="http://www.w3.org/2000/svg">
<g clip-path="url(#clip0_1981_32474)">
<path d="M8.7998 15H7V11.8008H6.7002C6.20326 11.8008 5.8 11.3973 5.7998 10.9004C5.7998 10.4033 6.20314 10 6.7002 10H8.7998V15Z" fill="currentColor"/>
<path d="M7.60059 6.5C8.26324 6.50011 8.80078 7.03752 8.80078 7.7002C8.80068 8.36278 8.26317 8.90029 7.60059 8.90039C6.93791 8.90039 6.4005 8.36285 6.40039 7.7002C6.40039 7.03745 6.93784 6.5 7.60059 6.5Z" fill="currentColor"/>
<path fill-rule="evenodd" clip-rule="evenodd" d="M7.5 3.2002C11.6421 3.2002 15 6.55806 15 10.7002C14.9999 14.8422 11.6421 18.2002 7.5 18.2002C3.35793 18.2002 9.89584e-05 14.8422 0 10.7002C0 6.55806 3.35786 3.2002 7.5 3.2002ZM7.5 5C4.35198 5 1.7998 7.55217 1.7998 10.7002C1.7999 13.8481 4.35204 16.4004 7.5 16.4004C10.648 16.4004 13.2001 13.8481 13.2002 10.7002C13.2002 7.55217 10.648 5 7.5 5Z" fill="currentColor"/>
</g>
<defs>
<clipPath id="clip0_1981_32474">
<rect width="15" height="20" fill="currentColor"/>
</clipPath>
</defs>
</svg>
