<svg preserveAspectRatio="none" width="15" height="20" overflow="visible" style="display: block;" viewBox="0 0 15 20" fill="none" xmlns="http://www.w3.org/2000/svg">
<g id="Icon">
<path id="Icon_2" fill-rule="evenodd" clip-rule="evenodd" d="M2.9 9.87341V15.7499C2.9 15.9431 3.05671 16.0999 3.25009 16.0999L9.14454 16.0999C9.49963 16.0999 9.7083 15.9377 9.92988 15.5437C10.0401 15.3478 10.1265 15.1388 10.2252 14.9C10.2328 14.8816 10.2405 14.863 10.2483 14.8443C10.2984 14.7232 10.3569 14.5836 10.4207 14.4554C10.4811 14.3339 10.5724 14.1677 10.7054 14.0193C10.7968 13.9172 10.8804 13.8296 10.9557 13.7505C11.2696 13.4212 11.4408 13.2417 11.4408 12.7999C11.4408 12.7317 11.4406 12.6658 11.4404 12.6019C11.4389 12.1336 11.4378 11.7768 11.5221 11.4322C11.5921 11.1459 11.7295 10.8459 11.9044 10.464C11.9509 10.3626 12 10.2553 12.0512 10.141C12.1271 9.97158 12.1256 9.68789 11.9642 9.43739C11.8266 9.22394 11.5394 8.99079 10.962 8.99079H8.89386C8.38549 8.99079 7.90743 8.88778 7.50701 8.6212C7.09568 8.34735 6.85982 7.9634 6.73238 7.57763C6.6105 7.20864 6.58148 6.82168 6.58045 6.48272C6.57945 6.15121 6.60626 5.80582 6.62979 5.50274L6.63189 5.47574C6.65714 5.15016 6.67796 4.87058 6.67619 4.61695C6.6744 4.3608 6.64876 4.1923 6.61232 4.08518C6.58222 3.9967 6.55599 3.97958 6.54435 3.97198C6.53146 3.96354 6.49246 3.94147 6.41108 3.92413C6.3682 4.07375 6.32737 4.26258 6.27313 4.51934L6.26761 4.54545C6.21335 4.80238 6.1489 5.10759 6.06366 5.43313C5.70794 6.79169 4.97951 8.54052 2.9 9.87341ZM5.08767 2.59036C5.33907 2.29059 5.7007 2.09988 6.13632 2.09988C6.64784 2.09988 7.12738 2.20222 7.52974 2.46566C7.94364 2.73665 8.18466 3.11819 8.31641 3.50548C8.44233 3.87564 8.47377 4.26396 8.47615 4.60439C8.47852 4.94422 8.45111 5.2976 8.42716 5.60636L8.4265 5.61492C8.40114 5.94182 8.37967 6.22207 8.38044 6.47726C8.38123 6.73489 8.40578 6.90475 8.44155 7.01304C8.47057 7.10088 8.49559 7.11709 8.50361 7.12228C8.50394 7.1225 8.50425 7.12269 8.50452 7.12288C8.52228 7.1347 8.61884 7.19079 8.89386 7.19079H10.962C13.3439 7.19079 14.3767 9.35295 13.6939 10.877C13.6026 11.0808 13.5318 11.2361 13.4765 11.3577C13.3396 11.6582 13.2969 11.752 13.2705 11.8598C13.2408 11.9814 13.2408 12.0931 13.2408 12.7914V12.7999C13.2408 14.0362 12.4962 14.772 12.1608 15.1034C12.1207 15.143 12.0865 15.1769 12.0601 15.2051C12.0552 15.2132 12.046 15.2296 12.0324 15.2568C11.9997 15.3226 11.9626 15.409 11.9113 15.533C11.9027 15.5537 11.8938 15.5754 11.8845 15.5979C11.792 15.8225 11.6652 16.1301 11.4988 16.426C11.1167 17.1054 10.4189 17.8999 9.14456 17.8999L3.2501 17.8999C2.06275 17.8999 1.1 16.9373 1.1 15.7499V9.73048C1.1 9.16737 1.40813 8.68165 1.84329 8.41181C3.47854 7.39779 4.02968 6.09499 4.32236 4.97719C4.3965 4.69403 4.45325 4.42539 4.50898 4.16158L4.51346 4.14039C4.56702 3.88684 4.62475 3.61359 4.69631 3.37514C4.76505 3.14608 4.87542 2.84344 5.08767 2.59036Z" fill="currentColor"/>
</g>
</svg>
