<svg preserveAspectRatio="none" width="15" height="20" overflow="visible" style="display: block;" viewBox="0 0 15 20" fill="none" xmlns="http://www.w3.org/2000/svg">
<g id="Icon">
<path id="Icon_2" fill-rule="evenodd" clip-rule="evenodd" d="M5.08767 2.59036C5.33907 2.29059 5.7007 2.09988 6.13632 2.09988C6.64784 2.09988 7.12738 2.20222 7.52974 2.46566C7.94364 2.73665 8.18466 3.11819 8.31641 3.50548C8.44233 3.87564 8.47377 4.26396 8.47615 4.60439C8.47852 4.94422 8.45111 5.2976 8.42716 5.60636L8.4265 5.61492C8.40114 5.94182 8.37967 6.22207 8.38044 6.47726C8.38123 6.73489 8.40578 6.90475 8.44155 7.01304C8.47057 7.10088 8.49559 7.11709 8.50361 7.12228L8.50452 7.12288C8.52228 7.1347 8.61884 7.19079 8.89386 7.19079H10.962C13.3439 7.19079 14.3767 9.35295 13.6939 10.877C13.6026 11.0808 13.5318 11.2361 13.4765 11.3577C13.3396 11.6582 13.2969 11.752 13.2705 11.8598C13.2408 11.9814 13.2408 12.0931 13.2408 12.7914V12.7999C13.2408 14.0362 12.4962 14.772 12.1608 15.1034C12.1207 15.143 12.0865 15.1769 12.0601 15.2051C12.0552 15.2132 12.046 15.2296 12.0324 15.2568C11.9997 15.3226 11.9626 15.409 11.9113 15.533C11.9027 15.5537 11.8938 15.5754 11.8845 15.5979C11.792 15.8225 11.6652 16.1301 11.4988 16.426C11.1167 17.1054 10.4189 17.8999 9.14456 17.8999L3.2501 17.8999C2.06275 17.8999 1.1 16.9373 1.1 15.7499V9.73048C1.1 9.16737 1.40813 8.68165 1.84329 8.41181C3.47854 7.39779 4.02968 6.09499 4.32236 4.97719C4.3965 4.69403 4.45325 4.42539 4.50898 4.16158L4.51346 4.14039C4.56702 3.88684 4.62475 3.61359 4.69631 3.37514C4.76505 3.14608 4.87542 2.84344 5.08767 2.59036Z" fill="currentColor"/>
</g>
</svg>
