<svg preserveAspectRatio="none" width="14" height="20" overflow="visible" style="display: block;" viewBox="0 0 14 20" fill="none" xmlns="http://www.w3.org/2000/svg">
<g id="Icon">
<g id="Icon_2">
<path d="M2.7998 10C2.7998 12.3196 4.6804 14.2002 7 14.2002C9.3196 14.2002 11.2002 12.3196 11.2002 10H13C13 10.1028 12.9973 10.2051 12.9922 10.3066C12.9572 10.9898 12.8053 11.6625 12.543 12.2959C12.3641 12.7278 12.1348 13.1355 11.8623 13.5127C11.5842 13.897 11.2618 14.2464 10.9023 14.5547C10.7981 14.644 10.692 14.7307 10.582 14.8125C10.5592 14.8295 10.5358 14.8456 10.5127 14.8623C10.1355 15.1348 9.72778 15.3641 9.2959 15.543C8.84716 15.7288 8.3784 15.8573 7.90039 15.9297V18H6.09961V15.9297C5.6216 15.8573 5.15283 15.7288 4.7041 15.543C4.27197 15.364 3.86368 15.135 3.48633 14.8623C3.46327 14.8456 3.4398 14.8295 3.41699 14.8125C3.30709 14.7307 3.20087 14.644 3.09668 14.5547C2.73733 14.2464 2.41476 13.897 2.13672 13.5127C1.86439 13.1357 1.63585 12.7276 1.45703 12.2959C1.19469 11.6625 1.04179 10.9898 1.00684 10.3066C1.00172 10.2051 1 10.1028 1 10H2.7998Z" fill="currentColor"/>
<path fill-rule="evenodd" clip-rule="evenodd" d="M7 4C8.65685 4 10 5.34315 10 7V10C10 11.6569 8.65685 13 7 13C5.39489 13 4.08421 11.7394 4.00391 10.1543L4 10V7C4 5.34315 5.34315 4 7 4ZM7 5.7998C6.33726 5.7998 5.7998 6.33726 5.7998 7V10C5.7998 10.6627 6.33726 11.2002 7 11.2002C7.66274 11.2002 8.2002 10.6627 8.2002 10V7C8.2002 6.33726 7.66274 5.7998 7 5.7998Z" fill="currentColor"/>
</g>
</g>
</svg>
