<svg preserveAspectRatio="none" width="14" height="20" overflow="visible" style="display: block;" viewBox="0 0 14 20" fill="none" xmlns="http://www.w3.org/2000/svg">
<g id="Icon">
<g id="Icon_2">
<path fill-rule="evenodd" clip-rule="evenodd" d="M13.708 4.55664L2.70215 18.5527L1.28711 17.4395L3.37695 14.7803C3.28157 14.7076 3.18785 14.6328 3.09668 14.5547C2.73733 14.2464 2.41476 13.897 2.13672 13.5127C1.86439 13.1357 1.63585 12.7276 1.45703 12.2959C1.19469 11.6625 1.04179 10.9898 1.00684 10.3066C1.00172 10.2051 1 10.1028 1 10H2.7998C2.7998 11.3781 3.4649 12.5995 4.49023 13.3652L5.23242 12.4199C4.5253 11.9025 4.0511 11.0859 4.00391 10.1543L4 10V7C4 5.34315 5.34315 4 7 4C8.46148 4 9.67852 5.04512 9.94531 6.42871L12.293 3.44434L13.708 4.55664ZM7 5.7998C6.33726 5.7998 5.7998 6.33726 5.7998 7V10C5.7998 10.4211 6.01744 10.7907 6.3457 11.0049L8.2002 8.64746V7C8.2002 6.33726 7.66274 5.7998 7 5.7998Z" fill="currentColor"/>
<path d="M12.9922 10.3066C12.9572 10.9898 12.8053 11.6625 12.543 12.2959C12.3641 12.7278 12.1348 13.1355 11.8623 13.5127C11.5842 13.897 11.2618 14.2464 10.9023 14.5547C10.7981 14.644 10.692 14.7307 10.582 14.8125C10.5592 14.8295 10.5358 14.8456 10.5127 14.8623C10.1355 15.1348 9.72778 15.3641 9.2959 15.543C8.84716 15.7288 8.3784 15.8573 7.90039 15.9297V18H6.09961V15.9512L7.5 14.1689C9.58383 13.9216 11.2002 12.1503 11.2002 10H13C13 10.1028 12.9973 10.2051 12.9922 10.3066Z" fill="currentColor"/>
</g>
</g>
</svg>
