<svg preserveAspectRatio="none" width="16" height="20" overflow="visible" style="display: block;" viewBox="0 0 16 20" fill="none" xmlns="http://www.w3.org/2000/svg">
<g id="Icon">
<g id="Vector">
<path fill-rule="evenodd" clip-rule="evenodd" d="M1.32683 5.23135C0.944989 5.37822 0.71024 5.76414 0.755419 6.17075C0.997258 8.34731 2.11473 10.8686 4.39801 13.3642L4.99015 13.9842C5.00023 13.9943 5.01033 14.0044 5.02046 14.0145L5.67084 14.6369C8.1664 16.9202 10.6877 18.0377 12.8643 18.2795C13.2709 18.3247 13.6568 18.09 13.8037 17.7081L14.9822 14.644C15.1559 14.1924 14.9414 13.6843 14.4967 13.4937L11.1969 12.0795C10.9235 11.9623 10.61 11.9878 10.3591 12.1474L10.0412 12.3497C8.86262 13.0997 7.55697 13.0626 6.76468 12.2703L6.7551 12.2607C5.97207 11.4675 5.93825 10.1676 6.68524 8.9938L6.88755 8.67587C7.0472 8.425 7.07262 8.11147 6.95549 7.83816L5.54127 4.53833C5.35068 4.0936 4.84256 3.87915 4.39096 4.05284L1.32683 5.23135ZM5.11427 8.11144C4.68797 8.80943 4.41266 9.61823 4.35687 10.4363C3.42197 9.07582 2.88901 7.78498 2.65302 6.64983L4.22821 6.04398L5.11427 8.11144ZM10.9236 13.9207C10.2256 14.347 9.41678 14.6223 8.59867 14.6781C9.9592 15.613 11.25 16.1459 12.3852 16.3819L12.991 14.8067L10.9236 13.9207Z" fill="currentColor"/>
<path fill-rule="evenodd" clip-rule="evenodd" d="M12 7.94161L14.0084 9.95L15 8.95839L12.9916 6.95L15 4.94161L14.0084 3.95L12 5.95839L9.9916 3.95L8.99999 4.94161L11.0084 6.95L8.99999 8.95839L9.9916 9.95L12 7.94161Z" fill="currentColor"/>
</g>
</g>
</svg>
