<svg preserveAspectRatio="none" width="15" height="20" overflow="visible" style="display: block;" viewBox="0 0 15 20" fill="none" xmlns="http://www.w3.org/2000/svg">
<g id="Icon">
<g id="Icon_2">
<path fill-rule="evenodd" clip-rule="evenodd" d="M1.12254 2.66257H10.7507V5.10273H13.8725V14.043C13.8725 15.4928 12.6973 16.668 11.2475 16.668H3.74754C2.29779 16.668 1.12254 15.4928 1.12254 14.043V2.66257ZM10.7507 6.85273V13.3379H9.00067V4.41257H2.87254V14.043C2.87254 14.5263 3.26429 14.918 3.74754 14.918H11.2475C11.7308 14.918 12.1225 14.5263 12.1225 14.043V6.85273H10.7507Z" fill="currentColor"/>
<path fill-rule="evenodd" clip-rule="evenodd" d="M7.70519 7.20942L4.03553 7.20942V5.45942L7.70519 5.45942V7.20942Z" fill="currentColor"/>
<path fill-rule="evenodd" clip-rule="evenodd" d="M7.70519 10.2094L4.03553 10.2094V8.45942L7.70519 8.45942V10.2094Z" fill="currentColor"/>
<path fill-rule="evenodd" clip-rule="evenodd" d="M6.29563 13.2094H4.03553V11.4594H6.29563V13.2094Z" fill="currentColor"/>
</g>
</g>
</svg>
