<svg preserveAspectRatio="none" width="14" height="20" overflow="visible" style="display: block;" viewBox="0 0 14 20" fill="none" xmlns="http://www.w3.org/2000/svg">
<g id="Icon">
<path id="Icon_2" fill-rule="evenodd" clip-rule="evenodd" d="M11.6543 7.16946L13.7077 4.55605L12.2923 3.44397L10.6292 5.56067C9.71799 4.59948 8.429 4 6.99999 4.00001C4.23857 4.00001 2 6.23858 2 9L2 12L1 13V14.5C1 15.3044 1.63311 15.9608 2.42818 15.9983L1.29231 17.444L2.70769 18.556L4.716 16H11.5C12.3284 16 13 15.3284 13 14.5L13 13L12 12V9.00001C12 8.35387 11.8774 7.73636 11.6543 7.16946ZM9.49822 7.00009C8.91177 6.26847 8.01059 5.8 7 5.80001C5.23268 5.80001 3.8 7.23269 3.8 9V12L3.8 12.7456L3.27279 13.2728L2.8 13.7456L2.8 14.2H3.84114L9.49822 7.00009ZM6.13029 14.2L10.2 9.02038V12V12.7456L10.7272 13.2728L11.2 13.7456V14.2L6.13029 14.2Z" fill="currentColor"/>
</g>
</svg>
