<svg preserveAspectRatio="none" width="16" height="20" overflow="visible" style="display: block;" viewBox="0 0 16 20" fill="none" xmlns="http://www.w3.org/2000/svg">
<g id="Icon">
<g id="Icon_2">
<path fill-rule="evenodd" clip-rule="evenodd" d="M1.32683 5.23131C0.944989 5.37817 0.71024 5.76409 0.755419 6.1707C0.99726 8.34728 2.11475 10.8686 4.39807 13.3642L5.02048 14.0146C5.03045 14.0245 5.04042 14.0345 5.0504 14.0444L5.67078 14.637C8.16636 16.9203 10.6877 18.0378 12.8643 18.2796C13.2709 18.3248 13.6568 18.09 13.8037 17.7082L14.9822 14.6441C15.1559 14.1925 14.9414 13.6844 14.4967 13.4938L11.1969 12.0795C10.9235 11.9624 10.61 11.9878 10.3591 12.1475L10.0412 12.3498C8.86731 13.0968 7.56735 13.063 6.77415 12.2798L6.76465 12.2703C5.97236 11.478 5.93522 10.1723 6.68524 8.99375L6.88755 8.67582C7.0472 8.42496 7.07262 8.11142 6.95549 7.83811L5.54127 4.53828C5.35068 4.09355 4.84256 3.8791 4.39096 4.05279L1.32683 5.23131ZM5.11427 8.11139C4.68797 8.80938 4.41266 9.61818 4.35687 10.4363C3.42197 9.07577 2.88901 7.78493 2.65302 6.64978L4.22821 6.04394L5.11427 8.11139ZM10.9236 13.9208C10.2256 14.3471 9.41678 14.6224 8.59867 14.6782C9.9592 15.6131 11.25 16.146 12.3852 16.382L12.991 14.8068L10.9236 13.9208Z" fill="currentColor"/>
<path fill-rule="evenodd" clip-rule="evenodd" d="M15 3.94995V9.40949L13.4713 9.40948V6.55955L10.0809 9.94995L8.99999 8.86902L12.3904 5.47862H9.54046V3.94995H15Z" fill="currentColor"/>
</g>
</g>
</svg>
