<svg preserveAspectRatio="none" width="15" height="20" overflow="visible" style="display: block;" viewBox="0 0 15 20" fill="none" xmlns="http://www.w3.org/2000/svg">
<g id="Icon">
<g id="Icon_2">
<path fill-rule="evenodd" clip-rule="evenodd" d="M7.5 6.09961C8.96355 6.09961 10.1504 7.28645 10.1504 8.75C10.1504 10.2136 8.96355 11.4004 7.5 11.4004C6.03645 11.4004 4.84961 10.2136 4.84961 8.75C4.84961 7.28645 6.03645 6.09961 7.5 6.09961ZM7.5 7.90039C7.03056 7.90039 6.65039 8.28056 6.65039 8.75C6.65039 9.21944 7.03056 9.59961 7.5 9.59961C7.96944 9.59961 8.34961 9.21944 8.34961 8.75C8.34961 8.28056 7.96944 7.90039 7.5 7.90039Z" fill="currentColor"/>
<path fill-rule="evenodd" clip-rule="evenodd" d="M7.5 3.2002C11.6421 3.2002 15 6.55806 15 10.7002C14.9999 14.8422 11.6421 18.2002 7.5 18.2002C3.35793 18.2002 9.89584e-05 14.8422 0 10.7002C0 6.55806 3.35786 3.2002 7.5 3.2002ZM6.53027 13.8008C5.60942 13.8008 4.83706 14.4954 4.74023 15.4111L4.71191 15.6709C5.53638 16.1343 6.4869 16.4004 7.5 16.4004C8.51279 16.4004 9.46281 16.1341 10.2871 15.6709L10.2607 15.4111C10.164 14.4956 9.39132 13.8011 8.4707 13.8008H6.53027ZM7.5 5C4.35198 5 1.7998 7.55217 1.7998 10.7002C1.79985 12.1011 2.30602 13.3835 3.14453 14.376C3.64904 12.9791 4.98504 12 6.53027 12H8.4707C10.0153 12.0002 11.3506 12.9789 11.8555 14.375C12.6937 13.3826 13.2002 12.1009 13.2002 10.7002C13.2002 7.55217 10.648 5 7.5 5Z" fill="currentColor"/>
</g>
</g>
</svg>
