<svg preserveAspectRatio="none" width="12" height="20" overflow="visible" style="display: block;" viewBox="0 0 12 20" fill="none" xmlns="http://www.w3.org/2000/svg">
<g id="Icon">
<path id="Icon_2" fill-rule="evenodd" clip-rule="evenodd" d="M2.22407 14.9894L1.00422 17.0106L2.54384 17.9464L10.9998 3.9358L9.46017 3L8.8732 4H2C1.32668 4 0.84727 4.60482 1.04607 5.25039L2.5 9.97175L1 12.9823V13.183V14.9894H2.22407ZM3.31428 13.183L7.79626 5.75692H3.08605L4.21975 9.43841L4.43307 10.1311L4.10997 10.7796L2.91246 13.183H3.31428ZM5.09885 18V17.1406L7.49576 13.183H9.09003L8.37373 11.7334L9.48018 9.90656L11 12.9823V13.183V14.9894H9.2H6.89885V18H5.09885Z" fill="currentColor"/>
</g>
</svg>
