<svg preserveAspectRatio="none" width="15" height="20" overflow="visible" style="display: block;" viewBox="0 0 15 20" fill="none" xmlns="http://www.w3.org/2000/svg">
<g id="Icon">
<g id="Icon_2">
<path d="M7.5 12.7998C8.16265 12.7999 8.7002 13.3373 8.7002 14C8.70019 14.6627 8.16265 15.2001 7.5 15.2002C6.83726 15.2002 6.29981 14.6627 6.2998 14C6.2998 13.3373 6.83726 12.7998 7.5 12.7998Z" fill="currentColor"/>
<path d="M7.53125 6.09961C8.87766 6.09983 9.96659 7.19326 9.9668 8.53809C9.9668 9.44088 9.47568 10.2287 8.75 10.6494C8.49741 10.7952 8.43066 10.8359 8.43066 11.1152V11.5H6.63086V11.1152C6.63086 10.2422 6.9871 9.58961 7.84766 9.09277C8.4024 8.77249 8.1875 7.90039 7.53125 7.90039C7.2346 7.90039 6.9812 8.10538 6.91309 8.38574L6.78418 8.89453L5.04004 8.45215L5.16602 7.95215C5.42826 6.89015 6.38607 6.09961 7.53125 6.09961Z" fill="currentColor"/>
<path fill-rule="evenodd" clip-rule="evenodd" d="M7.5 3.2002C11.6421 3.2002 15 6.55806 15 10.7002C14.9997 14.8421 11.642 18.2002 7.5 18.2002C3.35803 18.2002 0.000263881 14.8421 0 10.7002C0 6.55806 3.35786 3.2002 7.5 3.2002ZM7.5 5C4.35198 5 1.7998 7.55217 1.7998 10.7002C1.80007 13.848 4.35214 16.4004 7.5 16.4004C10.6479 16.4004 13.1999 13.848 13.2002 10.7002C13.2002 7.55217 10.648 5 7.5 5Z" fill="currentColor"/>
</g>
</g>
</svg>
