<svg preserveAspectRatio="none" width="15" height="20" overflow="visible" style="display: block;" viewBox="0 0 15 20" fill="none" xmlns="http://www.w3.org/2000/svg">
<g id="Icon">
<path id="Icon_2" fill-rule="evenodd" clip-rule="evenodd" d="M13.9208 17.8996C14.3788 17.8862 14.7535 17.5309 14.7914 17.0743C15.0528 13.9234 14.4078 11.4114 12.9601 9.67385C11.6837 8.14177 9.8728 7.3191 7.7945 7.13832V4.99994C7.7945 4.63427 7.57325 4.30495 7.23472 4.16672C6.89618 4.02849 6.50766 4.10884 6.25171 4.37001L0.734375 9.99994L6.25171 15.6299C6.50766 15.891 6.89618 15.9714 7.23472 15.8332C7.57325 15.6949 7.7945 15.3656 7.7945 14.9999V12.923C9.46623 13.0127 10.5997 13.362 11.3685 13.9171C12.232 14.5406 12.7762 15.5283 13.0035 17.1267C13.068 17.5802 13.4629 17.913 13.9208 17.8996ZM12.4222 12.4578C11.0711 11.4822 9.21865 11.0999 6.8945 11.0999H5.9945V12.7957L3.25463 9.99994L5.9945 7.20415V8.89994H6.8945C8.94082 8.89994 10.5353 9.57549 11.5772 10.826C11.9701 11.2976 12.3007 11.8705 12.5483 12.5516C12.5069 12.5199 12.4649 12.4886 12.4222 12.4578Z" fill="currentColor"/>
</g>
</svg>
