<svg preserveAspectRatio="none" width="17" height="20" overflow="visible" style="display: block;" viewBox="0 0 17 20" fill="none" xmlns="http://www.w3.org/2000/svg">
<g id="Icon">
<path id="Icon_2" fill-rule="evenodd" clip-rule="evenodd" d="M5.1001 2.40469C4.60304 2.40469 4.2001 2.80764 4.2001 3.30469V5.00001H2C1.44772 5.00001 1 5.44772 1 6.00001V15.4C1 15.9523 1.44772 16.4 2 16.4H15C15.5523 16.4 16 15.9523 16 15.4V6.00001C16 5.44772 15.5523 5.00001 15 5.00001H12.8V3.30469C12.8 2.80764 12.3971 2.40469 11.9 2.40469H5.1001ZM11 5.00001V4.20469H6.0001V5.00001H11ZM2.8 6.80001V9.00001H14.2V6.80001H2.8ZM2.8 14.6V10.6H7V11.6H10V10.6H14.2V14.6H2.8Z" fill="currentColor"/>
</g>
</svg>
