<svg width="16" height="16" viewBox="0 0 16 16" fill="none" xmlns="http://www.w3.org/2000/svg">
<path d="M1.66667 6.12471C1.66668 5.42713 1.88048 4.74597 2.27982 4.17118C2.67917 3.59639 3.24527 3.15502 3.90336 2.90536C4.56145 2.6557 5.28058 2.6095 5.96575 2.77287C6.65093 2.93623 7.2699 3.46765 7.74096 3.98652C7.77414 4.02163 7.81425 4.04963 7.85881 4.06877C7.90337 4.0879 7.95142 4.09778 8 4.09778C8.04857 4.09778 8.09662 4.0879 8.14118 4.06877C8.18574 4.04963 8.22585 4.02163 8.25903 3.98652C8.72861 3.46428 9.34777 2.92979 10.0341 2.76444C10.7203 2.59909 11.4412 2.64455 12.1008 2.89475C12.7603 3.14496 13.3272 3.58805 13.7261 4.16506C14.1249 4.74206 14.3367 5.4256 14.3334 6.12471C14.3334 7.56025 13.3834 8.63219 12.4334 9.5725L8.95509 12.9031C8.83707 13.0372 8.69157 13.145 8.52825 13.2192C8.36492 13.2934 8.18751 13.3324 8.0078 13.3335C7.82809 13.3346 7.65019 13.2979 7.48593 13.2257C7.32167 13.1536 7.1748 13.0476 7.05508 12.915L3.56667 9.5725C2.61667 8.63219 1.66667 7.56652 1.66667 6.12471Z" fill="currentColor"/>
<path d="M9.87765 2.11602C10.6942 1.91928 11.5523 1.9738 12.3373 2.27162C13.1224 2.56946 13.7987 3.09714 14.2748 3.78595C14.7503 4.4739 15.0034 5.28962 15.0001 6.1245C15.0001 7.8662 13.842 9.11641 12.9024 10.0464C12.8998 10.049 12.8972 10.0517 12.8946 10.0542L9.42973 13.3706C9.25383 13.5629 9.04149 13.7185 8.80408 13.8264C8.55529 13.9394 8.285 13.9985 8.01176 14.0002C7.73867 14.0019 7.4682 13.9459 7.21813 13.8361C6.98272 13.7327 6.77061 13.583 6.59378 13.3967L3.10548 10.0542C3.10288 10.0517 3.10023 10.0489 3.09767 10.0464C2.15868 9.11699 1 7.87282 1 6.1245C1.00006 5.29054 1.25582 4.47651 1.73243 3.79051C2.20896 3.10471 2.88371 2.57911 3.66668 2.28203C4.44977 1.98496 5.30546 1.93016 6.12047 2.12448C6.8774 2.30497 7.52042 2.81111 7.99873 3.2918C8.4765 2.80772 9.11973 2.29868 9.87765 2.11602ZM2.33334 6.1245C2.33334 7.25976 3.07483 8.14729 4.03582 9.09848L7.51631 12.4338L7.55016 12.4683C7.60642 12.5306 7.67571 12.581 7.75394 12.6154C7.83225 12.6498 7.91779 12.6674 8.00394 12.6669C8.09 12.6663 8.17489 12.6475 8.25264 12.6122C8.3303 12.5769 8.39908 12.526 8.45447 12.4631L8.49418 12.4214L11.9642 9.09848C12.9247 8.14787 13.6667 7.25385 13.6667 6.1245V6.12125C13.6694 5.55934 13.4991 5.00938 13.1778 4.54442C12.8563 4.07934 12.3985 3.72096 11.8646 3.51837C11.3306 3.31577 10.7462 3.27894 10.1902 3.4129C9.70799 3.52913 9.2025 3.9343 8.7546 4.43244C8.751 4.43643 8.74722 4.44025 8.74353 4.44415C8.64763 4.54565 8.53213 4.62623 8.40434 4.68113C8.27652 4.73603 8.13892 4.76447 8.00004 4.76447C7.86115 4.76447 7.72355 4.73603 7.59574 4.68113C7.46794 4.62623 7.35244 4.54565 7.25654 4.44415C7.25353 4.44096 7.25038 4.43764 7.24743 4.43439C6.7974 3.93871 6.29249 3.53612 5.81122 3.42136C5.25591 3.28896 4.67307 3.32657 4.13999 3.52879C3.60698 3.73099 3.14958 4.088 2.82748 4.55158C2.5055 5.01503 2.3334 5.56347 2.33334 6.1245Z" fill="currentColor"/>
</svg>
