<svg width="16" height="20" viewBox="0 0 16 20" fill="none" xmlns="http://www.w3.org/2000/svg">
<g clip-path="url(#clip0_1370_51119)">
<path fill-rule="evenodd" clip-rule="evenodd" d="M14.1834 15.7516L8.40892 5.75C8.21647 5.41667 7.73535 5.41666 7.54289 5.75L1.76846 15.7516C1.57601 16.0849 1.81657 16.5016 2.20147 16.5016H13.7503C14.1352 16.5016 14.3758 16.085 14.1834 15.7516ZM9.70796 5C8.93816 3.66666 7.01366 3.66667 6.24385 5L0.469419 15.0016C-0.300382 16.335 0.661874 18.0016 2.20147 18.0016H13.7503C15.2899 18.0016 16.2522 16.3349 15.4824 15.0016L9.70796 5Z" fill="#F79900"/>
<path fill-rule="evenodd" clip-rule="evenodd" d="M6.97602 8.26944V8.75077L7.47602 12.2508H8.47602L8.97602 8.75077V8.26944H6.97602ZM7.97602 15.2508C8.5283 15.2508 8.97602 14.8031 8.97602 14.2508C8.97602 13.6985 8.5283 13.2508 7.97602 13.2508C7.42373 13.2508 6.97602 13.6985 6.97602 14.2508C6.97602 14.8031 7.42373 15.2508 7.97602 15.2508Z" fill="#F79900"/>
</g>
<defs>
<clipPath id="clip0_1370_51119">
<rect width="16" height="20" fill="white"/>
</clipPath>
</defs>
</svg>
