<svg width="32" height="32" viewBox="0 0 32 32" fill="none" xmlns="http://www.w3.org/2000/svg">
<path d="M19.7552 4.23203C21.3883 3.83856 23.1044 3.9476 24.6744 4.54323C26.2446 5.13892 27.5972 6.19427 28.5494 7.57188C29.5004 8.94777 30.0066 10.5792 30 12.249C30 15.7323 27.6838 18.2327 25.8047 20.0927C25.7994 20.0979 25.7943 20.1033 25.789 20.1083L18.8593 26.7411C18.5076 27.1256 18.0829 27.4368 17.608 27.6526C17.1105 27.8787 16.5699 27.9968 16.0234 28.0003C15.4772 28.0036 14.9363 27.8918 14.4362 27.6721C13.9653 27.4653 13.5411 27.1658 13.1875 26.7932L6.21091 20.1083C6.2057 20.1033 6.20041 20.0978 6.19528 20.0927C4.31732 18.2339 1.99997 15.7456 1.99997 12.249C2.00009 10.581 2.5116 8.95299 3.46481 7.58099C4.41788 6.20941 5.76737 5.15822 7.3333 4.56406C8.89947 3.96992 10.6108 3.86033 12.2409 4.24896C13.7547 4.60994 15.0407 5.62222 15.9974 6.5836C16.9529 5.61543 18.2394 4.59737 19.7552 4.23203ZM4.66664 12.249C4.66664 14.5195 6.14961 16.2945 8.07158 18.1969L15.0325 24.8675L15.1002 24.9365C15.2127 25.0611 15.3513 25.162 15.5078 25.2307C15.6644 25.2995 15.8355 25.3347 16.0078 25.3336C16.1799 25.3324 16.3497 25.2949 16.5052 25.2242C16.6605 25.1536 16.7981 25.0518 16.9088 24.926L16.9882 24.8427L23.9284 18.1969C25.8492 16.2957 27.3333 14.5077 27.3333 12.249V12.2425C27.3386 11.1186 26.9981 10.0187 26.3554 9.0888C25.7125 8.15865 24.7968 7.44191 23.7291 7.03672C22.661 6.63153 21.4922 6.55787 20.3802 6.82578C19.4159 7.05824 18.4049 7.86857 17.5091 8.86485C17.5019 8.87284 17.4943 8.88047 17.4869 8.88828C17.2952 9.09126 17.0642 9.25243 16.8086 9.36224C16.5529 9.47204 16.2777 9.52891 16 9.52891C15.7222 9.52891 15.447 9.47204 15.1914 9.36224C14.9358 9.25243 14.7048 9.09126 14.513 8.88828C14.507 8.88189 14.5007 8.87526 14.4948 8.86875C13.5947 7.8774 12.5849 7.07223 11.6224 6.84271C10.5117 6.57791 9.34606 6.65313 8.27992 7.05755C7.2139 7.46196 6.2991 8.17597 5.65492 9.10313C5.01094 10.03 4.66676 11.1269 4.66664 12.249Z" fill="currentColor"/>
</svg>
