<svg width="32" height="32" viewBox="0 0 32 32" fill="none" xmlns="http://www.w3.org/2000/svg">
<path d="M3.33333 12.2494C3.33336 10.8542 3.76095 9.4919 4.55963 8.34233C5.35831 7.19276 6.49051 6.31002 7.80669 5.81071C9.12287 5.3114 10.5611 5.219 11.9315 5.54572C13.3018 5.87245 14.5397 6.93528 15.4819 7.97302C15.5482 8.04325 15.6284 8.09923 15.7176 8.13751C15.8067 8.17579 15.9028 8.19554 15.9999 8.19554C16.0971 8.19554 16.1932 8.17579 16.2823 8.13751C16.3714 8.09923 16.4516 8.04325 16.518 7.97302C17.4571 6.92853 18.6954 5.85956 20.068 5.52887C21.4406 5.19818 22.8824 5.28909 24.2014 5.7895C25.5205 6.28991 26.6543 7.17609 27.452 8.33009C28.2497 9.48409 28.6733 10.8512 28.6666 12.2494C28.6666 15.1204 26.7666 17.2643 24.8666 19.1449L17.9101 25.806C17.6741 26.0743 17.3831 26.2898 17.0564 26.4383C16.7298 26.5867 16.3749 26.6646 16.0155 26.6669C15.6561 26.6691 15.3003 26.5957 14.9718 26.4513C14.6433 26.307 14.3495 26.0952 14.1101 25.8298L7.13332 19.1449C5.23333 17.2643 3.33333 15.133 3.33333 12.2494Z" fill="currentColor"/>
<path d="M19.7552 4.23203C21.3883 3.83856 23.1044 3.9476 24.6745 4.54323C26.2446 5.13892 27.5973 6.19427 28.5495 7.57188C29.5005 8.94777 30.0066 10.5792 30 12.249C30 15.7323 27.6838 18.2327 25.8047 20.0927C25.7995 20.0979 25.7944 20.1033 25.7891 20.1083L18.8594 26.7411C18.5076 27.1256 18.0829 27.4368 17.6081 27.6526C17.1105 27.8787 16.5699 27.9968 16.0234 28.0003C15.4773 28.0036 14.9363 27.8918 14.4362 27.6721C13.9654 27.4653 13.5412 27.1658 13.1875 26.7932L6.21094 20.1083C6.20573 20.1033 6.20044 20.0978 6.19531 20.0927C4.31735 18.2339 2 15.7456 2 12.249C2.00012 10.581 2.51163 8.95299 3.46484 7.58099C4.41791 6.20941 5.7674 5.15822 7.33333 4.56406C8.8995 3.96992 10.6109 3.86033 12.2409 4.24896C13.7547 4.60994 15.0408 5.62222 15.9974 6.5836C16.9529 5.61543 18.2394 4.59737 19.7552 4.23203ZM4.66667 12.249C4.66667 14.5195 6.14964 16.2945 8.07161 18.1969L15.0326 24.8675L15.1003 24.9365C15.2128 25.0611 15.3513 25.162 15.5078 25.2307C15.6644 25.2995 15.8355 25.3347 16.0078 25.3336C16.1799 25.3324 16.3497 25.2949 16.5052 25.2242C16.6605 25.1536 16.7981 25.0518 16.9089 24.926L16.9883 24.8427L23.9284 18.1969C25.8492 16.2957 27.3333 14.5077 27.3333 12.249V12.2425C27.3386 11.1186 26.9981 10.0187 26.3555 9.0888C25.7125 8.15865 24.7968 7.44191 23.7292 7.03672C22.6611 6.63153 21.4922 6.55787 20.3802 6.82578C19.4159 7.05824 18.4049 7.86857 17.5091 8.86485C17.5019 8.87284 17.4944 8.88047 17.487 8.88828C17.2952 9.09126 17.0642 9.25243 16.8086 9.36224C16.553 9.47204 16.2778 9.52891 16 9.52891C15.7222 9.52891 15.447 9.47204 15.1914 9.36224C14.9358 9.25243 14.7048 9.09126 14.513 8.88828C14.507 8.88189 14.5007 8.87526 14.4948 8.86875C13.5947 7.8774 12.5849 7.07223 11.6224 6.84271C10.5118 6.57791 9.34609 6.65313 8.27995 7.05755C7.21393 7.46196 6.29913 8.17597 5.65495 9.10313C5.01098 10.03 4.66679 11.1269 4.66667 12.249Z" fill="currentColor"/>
</svg>
