<svg preserveAspectRatio="none" width="13" height="16" overflow="visible" style="display: block;" viewBox="0 0 13 16" fill="none" xmlns="http://www.w3.org/2000/svg">
<g id="Icon">
<path id="Icon_2" d="M4.41016 9.08008C4.57255 9.83625 5.16375 10.4275 5.91992 10.5898L7 10.8213V12.1787L5.91992 12.4102C5.16375 12.5725 4.57255 13.1638 4.41016 13.9199L4.17871 15H2.82129L2.58984 13.9199C2.42745 13.1638 1.83625 12.5725 1.08008 12.4102L0 12.1787V10.8213L1.08008 10.5898C1.83625 10.4275 2.42745 9.83625 2.58984 9.08008L2.82129 8H4.17871L4.41016 9.08008ZM3.5 9.54199C3.21126 10.478 2.47804 11.2113 1.54199 11.5C2.47774 11.7886 3.21107 12.5214 3.5 13.457C3.78884 12.5217 4.52171 11.7888 5.45703 11.5C4.52141 11.2111 3.78865 10.4777 3.5 9.54199ZM9.27051 1.50488L9.55078 2.80859C9.78107 3.88091 10.6191 4.71893 11.6914 4.94922L13 5.23047V6.76953L11.6914 7.05078C10.6191 7.28107 9.78107 8.11909 9.55078 9.19141L9.26953 10.5H7.73047L7.44922 9.19141C7.21893 8.11909 6.38093 7.28107 5.30859 7.05078L4 6.76953V5.23047L5.30859 4.94922C6.38093 4.71893 7.21893 3.88091 7.44922 2.80859L7.72949 1.50488L8.12891 1.5H8.87109L9.27051 1.50488ZM8.42676 3.01855C8.11386 4.47554 6.97555 5.61387 5.51855 5.92676L5.17676 6L5.51855 6.07324C6.97554 6.38613 8.11386 7.52446 8.42676 8.98145L8.5 9.32227L8.57324 8.98145C8.88614 7.52446 10.0245 6.38613 11.4814 6.07324L11.8223 6L11.4814 5.92676C10.0245 5.61387 8.88614 4.47554 8.57324 3.01855L8.5 2.67773L8.42676 3.01855Z" fill="currentColor"/>
</g>
</svg>
