<svg preserveAspectRatio="none" width="12" height="16" overflow="visible" style="display: block;" viewBox="0 0 12 16" fill="none" xmlns="http://www.w3.org/2000/svg">
<g id="Icon">
<g id="Icon_2">
<path d="M3.10156 8C3.16801 8 3.2252 8.04641 3.23926 8.11133L3.39453 8.83398C3.58523 9.7214 4.2786 10.4148 5.16602 10.6055L5.88867 10.7607C5.95359 10.7748 6 10.832 6 10.8984V11.1016C6 11.168 5.95359 11.2252 5.88867 11.2393L5.16602 11.3945C4.2786 11.5852 3.58523 12.2786 3.39453 13.166L3.23926 13.8887C3.2252 13.9536 3.16801 14 3.10156 14H2.89844C2.83199 14 2.7748 13.9536 2.76074 13.8887L2.60547 13.166C2.41477 12.2786 1.7214 11.5852 0.833984 11.3945L0.111328 11.2393C0.0464062 11.2252 0 11.168 0 11.1016V10.8984C0 10.832 0.0464061 10.7748 0.111328 10.7607L0.833984 10.6055C1.7214 10.4148 2.41477 9.7214 2.60547 8.83398L2.76074 8.11133C2.7748 8.04641 2.83199 8 2.89844 8H3.10156Z" fill="currentColor"/>
<path d="M8.11719 2C8.21654 2 8.30238 2.06985 8.32324 2.16699L8.52637 3.11133C8.78053 4.29493 9.70507 5.21947 10.8887 5.47363L11.833 5.67676C11.9301 5.69762 12 5.78346 12 5.88281V6.11719C12 6.21654 11.9301 6.30238 11.833 6.32324L10.8887 6.52637C9.70507 6.78053 8.78053 7.70507 8.52637 8.88867L8.32324 9.83301C8.30238 9.93015 8.21654 10 8.11719 10H7.88281C7.78346 10 7.69762 9.93015 7.67676 9.83301L7.47363 8.88867C7.21947 7.70507 6.29493 6.78053 5.11133 6.52637L4.16699 6.32324C4.06985 6.30238 4 6.21654 4 6.11719V5.88281C4 5.78346 4.06985 5.69762 4.16699 5.67676L5.11133 5.47363C6.29493 5.21947 7.21947 4.29493 7.47363 3.11133L7.67676 2.16699C7.69762 2.06985 7.78346 2 7.88281 2H8.11719Z" fill="currentColor"/>
</g>
</g>
</svg>
