<svg preserveAspectRatio="none" width="11" height="16" overflow="visible" style="display: block;" viewBox="0 0 11 16" fill="none" xmlns="http://www.w3.org/2000/svg">
<g id="Icon" clip-path="url(#clip0_0_8)">
<path id="Icon_2" d="M5.66143 4.00197C6.33081 3.975 6.96834 4.15734 7.4876 4.56936C8.00719 4.98173 8.36801 5.59383 8.53936 6.35744C8.60697 6.6599 8.42298 6.96168 8.12725 7.03127C7.83136 7.1006 7.53622 6.9108 7.46807 6.60842C7.34402 6.05594 7.10161 5.68662 6.81377 5.45803C6.52547 5.22922 6.15046 5.10892 5.7044 5.12697C4.7986 5.1637 3.61299 5.77833 2.55889 7.14357C1.83486 8.08153 1.33258 9.1783 1.16241 10.1016C0.984133 11.0698 1.19731 11.6028 1.53936 11.8047L1.54034 11.8057L1.61065 11.8399C1.78573 11.9084 2.02839 11.8844 2.39288 11.6494C2.80781 11.3818 3.26098 10.9079 3.69854 10.3262C4.13063 9.75167 4.52209 9.10566 4.82061 8.53322C5.12676 7.94613 5.31064 7.48313 5.3587 7.26565C5.36159 7.25255 5.36668 7.24022 5.37041 7.22756C5.37567 7.20969 5.38016 7.19181 5.38702 7.17482C5.39501 7.15501 5.40534 7.13664 5.41534 7.11818C5.42233 7.10528 5.42891 7.09231 5.43682 7.0801C5.44933 7.06079 5.46323 7.04283 5.47784 7.02541C5.48721 7.01423 5.49696 7.00355 5.50713 6.99318C5.52079 6.97928 5.53515 6.96645 5.5501 6.95412C5.56139 6.9448 5.57232 6.93516 5.58428 6.92678C5.58998 6.92279 5.59504 6.91785 5.60088 6.91408L5.66436 6.8799C5.66884 6.87778 5.67349 6.87604 5.67803 6.87404C5.69484 6.86666 5.71227 6.86114 5.72979 6.85549C5.74685 6.84997 5.7639 6.84465 5.78155 6.84084C5.79698 6.83751 5.81264 6.83597 5.82842 6.834C5.84877 6.83146 5.86912 6.8293 5.88995 6.82912C5.9062 6.82899 5.92234 6.83067 5.93877 6.83205C5.9533 6.83325 5.96809 6.83258 5.98272 6.83498C5.98871 6.83597 5.99439 6.83869 6.0003 6.83986C6.00535 6.84088 6.01086 6.84065 6.01592 6.84182C6.02672 6.84432 6.03667 6.84945 6.04717 6.85256C6.06789 6.85866 6.0882 6.8647 6.10772 6.87307C6.12162 6.87903 6.13454 6.88655 6.14776 6.89357C6.16621 6.90338 6.1844 6.91306 6.20147 6.92482C6.2136 6.93318 6.22526 6.94194 6.23663 6.95119C6.25458 6.96581 6.27145 6.98136 6.28741 6.99807C6.29477 7.00578 6.30101 7.01437 6.30791 7.02248C6.32364 7.04094 6.33861 7.05972 6.35186 7.0801C6.35887 7.09089 6.36512 7.10204 6.37139 7.1133C6.38218 7.13266 6.39219 7.15226 6.40069 7.17287C6.40647 7.18688 6.41067 7.20135 6.41534 7.21584C6.42136 7.23456 6.42786 7.25306 6.43194 7.27248C6.43572 7.29044 6.43673 7.30876 6.43877 7.32717C6.44092 7.34659 6.44255 7.36592 6.44268 7.38576C6.44278 7.40041 6.44177 7.41492 6.44073 7.42971C6.43957 7.44613 6.44138 7.46295 6.43877 7.47951C6.25374 8.6511 6.457 9.34091 6.72295 9.68166C6.96353 9.98932 7.32803 10.1052 7.78252 9.96584L7.78741 9.96486C8.17948 9.84342 8.59695 9.50624 8.98272 8.88674C9.3666 8.27018 9.69414 7.41175 9.91241 6.334C9.97414 6.03003 10.2654 5.83452 10.5628 5.89748C10.8599 5.96076 11.0501 6.25859 10.9886 6.56252C10.7516 7.73254 10.386 8.72895 9.91143 9.49123C9.43885 10.2502 8.83162 10.8171 8.10479 11.042L7.95049 11.084C7.17926 11.2693 6.39292 11.0602 5.86455 10.3848C5.69852 10.1724 5.56653 9.92421 5.46905 9.64357C5.20525 10.0983 4.90123 10.5721 4.57061 11.0117C4.10125 11.6357 3.55486 12.2297 2.97979 12.6006C2.40577 12.9707 1.68046 13.1868 0.989555 12.7793C0.00597848 12.1989 -0.119394 10.98 0.080375 9.89455C0.288519 8.76409 0.879816 7.50305 1.69463 6.44729C2.87767 4.91483 4.33594 4.05566 5.66143 4.00197Z" fill="currentColor"/>
</g>
<defs>
<clipPath id="clip0_0_8">
<rect width="11" height="16" fill="currentColor"/>
</clipPath>
</defs>
</svg>
