<svg preserveAspectRatio="none" width="12" height="16" overflow="visible" style="display: block;" viewBox="0 0 12 16" fill="none" xmlns="http://www.w3.org/2000/svg">
<g id="Icon">
<path id="Icon_2" d="M5.79406 3.64665C6.88238 2.76654 8.46366 2.77988 9.53917 3.71697L9.65636 3.82439C10.7858 4.92031 10.8386 6.7233 9.77453 7.88298L9.66417 7.99626L6.48253 11.1135C5.81122 11.7708 4.75851 11.7983 4.0548 11.2062L3.91906 11.0802C3.22763 10.3669 3.24114 9.22903 3.94933 8.5324L6.75988 5.76873L7.18761 5.34783L8.02941 6.2033L7.60167 6.62419L4.79113 9.38787C4.55299 9.62203 4.54821 10.0043 4.78038 10.2443L4.87511 10.3244C5.10954 10.4841 5.432 10.4622 5.64269 10.256L8.82433 7.13982L8.94933 7.0031C9.49306 6.34352 9.46499 5.37703 8.8839 4.75017L8.75109 4.62126C8.11825 4.06997 7.18722 4.06221 6.54699 4.58025L6.42394 4.6906L3.03527 8.0158C1.80291 9.22559 1.9544 11.2532 3.35265 12.2668L3.56261 12.4045C4.63228 13.0424 6.01111 12.8967 6.92394 12.0197L9.98839 9.07537L10.421 8.65935L11.253 9.52459L10.8204 9.9406L7.75499 12.8849C6.40613 14.1808 4.34587 14.3609 2.79699 13.341L2.64855 13.2385C0.648916 11.7889 0.432808 8.88934 2.19542 7.15935L5.58312 3.83415L5.79406 3.64665Z" fill="currentColor"/>
</g>
</svg>
