<svg preserveAspectRatio="none" width="12" height="16" overflow="visible" style="display: block;" viewBox="0 0 12 16" fill="none" xmlns="http://www.w3.org/2000/svg">
<g id="Icon">
<path id="Icon_2" fill-rule="evenodd" clip-rule="evenodd" d="M7 3H5V2H7V3ZM1 6C1 4.89543 1.89543 4 3 4H9C10.1046 4 11 4.89543 11 6V8H11.5H12V8.5V10.5V11H11.5H11V13.5V14H10.5H1.5H1V13.5V11H0.5H0V10.5V8.5V8H0.5H1V6ZM1 9V10H1.5H2V10.5V13H10V10.5V10H10.5H11V9H10.5H10V8.5V6C10 5.44772 9.55228 5 9 5H3C2.44772 5 2 5.44772 2 6V8.5V9H1.5H1ZM5 8C5 8.55229 4.55228 9 4 9C3.44772 9 3 8.55229 3 8C3 7.44772 3.44772 7 4 7C4.55228 7 5 7.44772 5 8ZM8 9C8.55229 9 9 8.55229 9 8C9 7.44772 8.55229 7 8 7C7.44772 7 7 7.44772 7 8C7 8.55229 7.44772 9 8 9ZM9 11H3V12H9V11Z" fill="currentColor"/>
</g>
</svg>
