<svg preserveAspectRatio="none" width="12" height="16" overflow="visible" style="display: block;" viewBox="0 0 12 16" fill="none" xmlns="http://www.w3.org/2000/svg">
<g id="Icon">
<path id="Icon_2" fill-rule="evenodd" clip-rule="evenodd" d="M2 7.99992C2 10.7613 4.23858 12.9999 7 12.9999C7.8673 12.9999 8.68186 12.7797 9.39223 12.3918L3.16938 4.78612C2.43878 5.65576 2 6.7764 2 7.99992ZM2.52692 4.00089C1.57735 5.06229 1 6.46368 1 7.99992C1 11.3136 3.68629 13.9999 7 13.9999C8.1072 13.9999 9.14435 13.7 10.0347 13.177C10.2814 13.0321 10.5168 12.87 10.7394 12.6924C10.7779 12.6617 10.816 12.6305 10.8537 12.5989L7.68617 8.72746C7.8794 8.54512 8.00001 8.28665 8.00001 8C8.00001 7.44772 7.55229 7 7.00001 7C6.785 7 6.58584 7.06785 6.42278 7.18332L3.25515 3.31177C3.22033 3.33962 3.18583 3.36785 3.15165 3.39645C2.92912 3.58267 2.7203 3.78473 2.52692 4.00089ZM6.95575 5.29387C7.25936 5.10754 7.61637 5 8.00004 5C9.1046 5 10 5.89543 10 7C10 7.54196 9.78513 8.03271 9.43479 8.39337L10.1521 9.09014C10.6764 8.55038 11 7.81248 11 7C11 5.34315 9.65689 4 8.00004 4C7.42651 4 6.88916 4.16143 6.43268 4.44158L6.95575 5.29387Z" fill="currentColor"/>
</g>
</svg>
