<svg width="14" height="16" viewBox="0 0 14 16" fill="none" xmlns="http://www.w3.org/2000/svg">
<g clip-path="url(#clip0_2391_179495)">
<path fill-rule="evenodd" clip-rule="evenodd" d="M5 4V3H4V4H1.5C1.22386 4 1 4.22386 1 4.5V13.5C1 13.7761 1.22386 14 1.5 14H12.5C12.7761 14 13 13.7761 13 13.5V4.5C13 4.22386 12.7761 4 12.5 4H10V3H9V4H5ZM4 5V6H5V5H9V6H10V5H12V7H2V5H4ZM2 8V13H12V8H2Z" fill="currentColor"/>
</g>
<defs>
<clipPath id="clip0_2391_179495">
<rect width="14" height="16" fill="currentColor"/>
</clipPath>
</defs>
</svg>
