<svg preserveAspectRatio="none" width="13" height="16" overflow="visible" style="display: block;" viewBox="0 0 13 16" fill="none" xmlns="http://www.w3.org/2000/svg">
<g id="Icon">
<g id="Icon_2">
<path fill-rule="evenodd" clip-rule="evenodd" d="M7.24158 3.42648C7.0006 3.40885 6.75327 3.4 6.4999 3.4C4.65154 3.4 3.12386 3.87116 2.04809 4.7811C0.960394 5.70113 0.399902 7.01547 0.399902 8.55283C0.399902 10.3793 1.1915 11.8707 2.66824 12.7706L2.95417 14.593C2.98811 14.8093 3.13714 14.9899 3.34304 15.0643C3.54894 15.1387 3.77901 15.095 3.94335 14.9504L5.42236 13.6486C5.76727 13.6865 6.1267 13.7057 6.4999 13.7057C8.34827 13.7057 9.87595 13.2345 10.9517 12.3246C12.0394 11.4045 12.5999 10.0902 12.5999 8.55283C12.5999 7.43971 12.3061 6.44351 11.731 5.62924C11.5395 6.00682 11.255 6.32924 10.9076 6.56635C11.2286 7.11906 11.3999 7.78372 11.3999 8.55283C11.3999 9.78137 10.9628 10.7434 10.1767 11.4084C9.37874 12.0834 8.15642 12.5057 6.4999 12.5057C6.07717 12.5057 5.68166 12.4781 5.31382 12.4255C5.14012 12.4007 4.96426 12.4532 4.83255 12.5691L3.97037 13.328L3.80904 12.2997C3.77983 12.1136 3.66487 11.952 3.49861 11.8633C2.26956 11.2079 1.5999 10.0745 1.5999 8.55283C1.5999 7.32428 2.03697 6.36221 2.82306 5.6973C3.62106 5.02231 4.84339 4.6 6.4999 4.6C6.67214 4.6 6.83967 4.60457 7.00253 4.61351C7.00085 4.57588 7 4.53804 7 4.5C7 4.11575 7.08669 3.75174 7.24158 3.42648ZM8.32102 3.57254C8.11996 3.82777 8 4.14988 8 4.5C8 4.5802 8.00629 4.65892 8.01841 4.73571C8.9275 4.91119 9.64598 5.24835 10.1767 5.6973C10.2103 5.72572 10.2433 5.75468 10.2756 5.78417C10.6287 5.57046 10.8866 5.21524 10.9706 4.79713C10.9643 4.79178 10.958 4.78643 10.9517 4.7811C10.2533 4.19036 9.36445 3.78455 8.32102 3.57254Z" fill="currentColor"/>
<path d="M11 4.5C11 5.32843 10.3284 6 9.5 6C8.67157 6 8 5.32843 8 4.5C8 3.67157 8.67157 3 9.5 3C10.3284 3 11 3.67157 11 4.5Z" fill="currentColor"/>
</g>
</g>
</svg>
