<svg preserveAspectRatio="none" width="13" height="16" overflow="visible" style="display: block;" viewBox="0 0 13 16" fill="none" xmlns="http://www.w3.org/2000/svg">
<g id="Icon">
<g id="Icon_2">
<path fill-rule="evenodd" clip-rule="evenodd" d="M2.82306 5.6973C2.03697 6.36221 1.5999 7.32428 1.5999 8.55283C1.5999 10.0745 2.26956 11.2079 3.49861 11.8633C3.66488 11.952 3.77984 12.1136 3.80904 12.2997L3.97037 13.328L4.83255 12.5691C4.96427 12.4532 5.14012 12.4007 5.31383 12.4255C5.68166 12.4781 6.07717 12.5057 6.4999 12.5057C8.15642 12.5057 9.37874 12.0834 10.1767 11.4084C10.9628 10.7434 11.3999 9.78137 11.3999 8.55283C11.3999 7.32428 10.9628 6.36221 10.1767 5.6973C9.37874 5.02231 8.15642 4.6 6.4999 4.6C4.84339 4.6 3.62106 5.02231 2.82306 5.6973ZM2.04809 4.7811C3.12386 3.87116 4.65153 3.4 6.4999 3.4C8.34827 3.4 9.87595 3.87116 10.9517 4.7811C12.0394 5.70113 12.5999 7.01547 12.5999 8.55283C12.5999 10.0902 12.0394 11.4045 10.9517 12.3246C9.87595 13.2345 8.34827 13.7057 6.4999 13.7057C6.1267 13.7057 5.76727 13.6865 5.42237 13.6486L3.94335 14.9504C3.77901 15.095 3.54894 15.1387 3.34304 15.0643C3.13715 14.9899 2.98811 14.8093 2.95417 14.593L2.66824 12.7706C1.1915 11.8707 0.399902 10.3793 0.399902 8.55283C0.399902 7.01547 0.960394 5.70113 2.04809 4.7811Z" fill="currentColor"/>
<path d="M6.4999 10.0251L5.13272 10.9735C5.06269 11.0221 4.96835 11.002 4.922 10.9286C4.8977 10.8901 4.89051 10.8425 4.90227 10.798L5.34035 9.14203L4.0573 8.07221C3.99158 8.01741 3.98069 7.91714 4.03297 7.84825C4.06037 7.81215 4.10135 7.79026 4.14533 7.78825L5.78326 7.71323L6.35748 6.10361C6.38689 6.02116 6.4745 5.97931 6.55316 6.01014C6.59439 6.0263 6.62691 6.06039 6.64233 6.10361L7.21655 7.71323L8.85448 7.78825C8.93838 7.79209 9.00342 7.86649 8.99975 7.95443C8.99783 8.00053 8.97695 8.04349 8.9425 8.07221L7.65946 9.14203L8.09754 10.798C8.11998 10.8828 8.07257 10.9707 7.99164 10.9942C7.94922 11.0065 7.90379 10.999 7.86709 10.9735L6.4999 10.0251Z" fill="currentColor"/>
</g>
</g>
</svg>
