<svg preserveAspectRatio="none" width="16" height="16" overflow="visible" style="display: block;" viewBox="0 0 16 16" fill="none" xmlns="http://www.w3.org/2000/svg">
<g id="Icon">
<path id="Icon_2" fill-rule="evenodd" clip-rule="evenodd" d="M2.09552 5H13.9045C13.9572 5 14 5.04277 14 5.09552V12.9976H2V5.09552C2 5.04277 2.04277 5 2.09552 5ZM1 5.09552C1 4.49048 1.49048 4 2.09552 4H13.9045C14.5095 4 15 4.49048 15 5.09552V12.9976V13.9976H14H2H1V12.9976V5.09552ZM9.55531 10.38L12.0758 7.69146L11.3463 7.00752L8.82577 9.69604C8.73033 9.79785 8.56701 9.79208 8.47898 9.6838L7.53551 8.5232C7.06768 7.94769 6.2008 7.91385 5.68953 8.45113L3.92685 10.3035L4.65127 10.9928L6.41395 9.14049C6.50967 9.0399 6.67197 9.04624 6.75956 9.15398L7.70303 10.3146C8.17318 10.8929 9.04553 10.9237 9.55531 10.38Z" fill="currentColor"/>
</g>
</svg>
