<svg preserveAspectRatio="none" width="11" height="16" overflow="visible" style="display: block;" viewBox="0 0 11 16" fill="none" xmlns="http://www.w3.org/2000/svg">
<g id="Icon">
<path id="Vector 380 (Stroke)" fill-rule="evenodd" clip-rule="evenodd" d="M2.10002 9.25557V4.60002C2.10002 4.37915 2.27913 4.20001 2.50009 4.20001L7.20002 4.2C7.54826 4.2 7.74623 4.37082 7.93139 4.69504C8.02255 4.85468 8.09379 5.02441 8.17196 5.21067C8.17822 5.22558 8.18452 5.24059 8.19088 5.25571C8.23094 5.35098 8.27643 5.45766 8.32547 5.55479C8.37232 5.6476 8.44003 5.76806 8.53624 5.8738C8.6038 5.94805 8.66748 6.01365 8.72638 6.07432C8.98386 6.33953 9.15002 6.51069 9.15002 6.9C9.15002 6.95381 9.14987 7.00551 9.14973 7.05533C9.14864 7.42624 9.14786 7.693 9.21199 7.95123C9.26532 8.16599 9.36925 8.38956 9.50798 8.68796C9.54558 8.76886 9.58575 8.85525 9.62815 8.94846C9.77646 9.27447 9.60023 10 8.65002 10H7.00002C6.61127 10 6.25626 10.0775 5.9625 10.2701C5.66071 10.468 5.48483 10.747 5.38851 11.0342C5.29612 11.3097 5.2732 11.6018 5.27239 11.8638C5.2716 12.1202 5.29272 12.3882 5.31157 12.6273L5.31313 12.6471C5.33321 12.9021 5.35022 13.126 5.34877 13.3301C5.34731 13.5359 5.32655 13.6803 5.29244 13.7791C5.26243 13.866 5.22861 13.9011 5.19326 13.9239C5.15869 13.9462 5.08375 13.9807 4.93502 13.9943C4.92834 13.9757 4.92093 13.9535 4.91292 13.9273C4.8745 13.8013 4.83957 13.6421 4.79346 13.4272L4.78903 13.4065C4.74574 13.2047 4.69484 12.9673 4.62762 12.7143C4.34463 11.6493 3.7657 10.2863 2.10002 9.25557ZM4.05694 14.8566C4.23778 15.0688 4.4932 15.2 4.80002 15.2C5.19152 15.2 5.54806 15.1229 5.84355 14.9324C6.14746 14.7364 6.32715 14.459 6.42668 14.1709C6.52209 13.8947 6.54688 13.6016 6.54874 13.3386C6.5506 13.0758 6.52901 12.8016 6.50981 12.5578L6.50942 12.5529C6.48927 12.297 6.47175 12.0727 6.47238 11.8675C6.47302 11.6607 6.49284 11.5153 6.52622 11.4158C6.55568 11.328 6.58864 11.2945 6.62048 11.2736C6.66035 11.2475 6.76378 11.2 7.00002 11.2H8.65002C10.451 11.2 11.2394 9.5922 10.7204 8.45154C10.6513 8.29953 10.5965 8.18112 10.5528 8.08657C10.4392 7.84099 10.4 7.75638 10.3766 7.66204C10.35 7.5548 10.35 7.45369 10.35 6.95032L10.35 6.9C10.35 5.97515 9.79285 5.43015 9.5223 5.16553C9.48497 5.12901 9.45309 5.09783 9.42889 5.07173C9.42671 5.06829 9.41577 5.05176 9.39668 5.01396C9.36878 4.9587 9.33794 4.88777 9.29705 4.79054C9.29017 4.77418 9.28306 4.75718 9.2757 4.73959C9.20164 4.56262 9.10291 4.32668 8.97344 4.09997C8.677 3.58086 8.15179 3.00001 7.20003 3L2.5001 3.00001C1.61649 3 0.900024 3.7163 0.900024 4.60002V9.30424C0.900024 9.71239 1.12477 10.0656 1.44382 10.2608C2.78073 11.0784 3.23098 12.131 3.46786 13.0225C3.5275 13.2469 3.57312 13.4596 3.6174 13.666L3.62069 13.6814C3.66381 13.8824 3.70916 14.0938 3.76509 14.2772C3.81898 14.454 3.90219 14.675 4.05694 14.8566Z" fill="currentColor"/>
</g>
</svg>
