<svg preserveAspectRatio="none" width="11" height="16" overflow="visible" style="display: block;" viewBox="0 0 11 16" fill="none" xmlns="http://www.w3.org/2000/svg">
<g id="Icon">
<path id="Icon_2" fill-rule="evenodd" clip-rule="evenodd" d="M4.05694 14.8566C4.23778 15.0688 4.4932 15.2 4.80002 15.2C5.19152 15.2 5.54806 15.1229 5.84355 14.9324C6.14746 14.7364 6.32715 14.459 6.42668 14.1709C6.52209 13.8947 6.54688 13.6016 6.54874 13.3386C6.5506 13.0758 6.52901 12.8016 6.50981 12.5578L6.50942 12.5529C6.48927 12.297 6.47175 12.0727 6.47238 11.8675C6.47302 11.6607 6.49284 11.5153 6.52622 11.4158C6.55568 11.328 6.58864 11.2945 6.62048 11.2736C6.66035 11.2475 6.76378 11.2 7.00002 11.2H8.65002C10.451 11.2 11.2394 9.5922 10.7204 8.45154C10.6513 8.29953 10.5965 8.18112 10.5528 8.08657C10.4392 7.84099 10.4 7.75638 10.3766 7.66204C10.35 7.5548 10.35 7.45369 10.35 6.95032L10.35 6.9C10.35 5.97515 9.79285 5.43015 9.5223 5.16553C9.48497 5.12901 9.45309 5.09783 9.42889 5.07173C9.42671 5.06829 9.41577 5.05176 9.39668 5.01396C9.36878 4.9587 9.33794 4.88777 9.29705 4.79054C9.29017 4.77418 9.28306 4.75718 9.2757 4.73959C9.20164 4.56262 9.10291 4.32668 8.97344 4.09997C8.677 3.58086 8.15179 3.00001 7.20003 3L2.5001 3.00001C1.61649 3 0.900024 3.7163 0.900024 4.60002V9.30424C0.900024 9.71239 1.12477 10.0656 1.44382 10.2608C2.78073 11.0784 3.23098 12.131 3.46786 13.0225C3.5275 13.2469 3.57312 13.4596 3.6174 13.666L3.62069 13.6814C3.66381 13.8824 3.70916 14.0938 3.76509 14.2772C3.81898 14.454 3.90219 14.675 4.05694 14.8566Z" fill="currentColor"/>
</g>
</svg>
