<svg width="12" height="16" viewBox="0 0 12 16" fill="none" xmlns="http://www.w3.org/2000/svg">
<path d="M6 10.7002C6.44064 10.7002 6.79785 11.0574 6.79785 11.498C6.79775 11.9386 6.44058 12.2959 6 12.2959C5.55942 12.2959 5.20225 11.9386 5.20215 11.498C5.20215 11.0574 5.55936 10.7002 6 10.7002Z" fill="currentColor"/>
<path d="M6.79785 7.19727L6.39941 10H5.60156L5.20215 7.19727V6H6.79785V7.19727Z" fill="currentColor"/>
<path fill-rule="evenodd" clip-rule="evenodd" d="M6 3C9.31371 3 12 5.68629 12 9C12 12.3137 9.31371 15 6 15C2.68629 15 0 12.3137 0 9C0 5.68629 2.68629 3 6 3ZM6 4.09961C3.2938 4.09961 1.09961 6.2938 1.09961 9C1.09961 11.7062 3.2938 13.9004 6 13.9004C8.70619 13.9004 10.9004 11.7062 10.9004 9C10.9004 6.2938 8.70619 4.09961 6 4.09961Z" fill="currentColor"/>
</svg>
