<svg width="12" height="16" viewBox="0 0 12 16" fill="none" xmlns="http://www.w3.org/2000/svg">
<path fill-rule="evenodd" clip-rule="evenodd" d="M6 3C9.31371 3 12 5.68629 12 9C12 12.3137 9.31371 15 6 15C2.68629 15 0 12.3137 0 9C0 5.68629 2.68629 3 6 3ZM6 10.7002C5.55936 10.7002 5.20215 11.0574 5.20215 11.498C5.20225 11.9386 5.55942 12.2959 6 12.2959C6.44058 12.2959 6.79775 11.9386 6.79785 11.498C6.79785 11.0574 6.44064 10.7002 6 10.7002ZM5.20215 7.19727L5.60156 10H6.39941L6.79785 7.19727V6H5.20215V7.19727Z" fill="currentColor"/>
</svg>
