<svg preserveAspectRatio="none" width="13" height="16" overflow="visible" style="display: block;" viewBox="0 0 13 16" fill="none" xmlns="http://www.w3.org/2000/svg">
<g id="Icon">
<path id="Icon_2" d="M7.30443 3.54013C7.49117 3.46278 7.70635 3.50571 7.84935 3.64853L12.2029 8.00204L7.84935 12.3556C7.70635 12.4986 7.49127 12.5413 7.30443 12.464C7.11777 12.3865 6.99583 12.2042 6.99583 12.002V10.0108C5.33114 10.0694 4.23427 10.4269 3.49583 11.0177C2.69366 11.6594 2.22886 12.6452 1.989 14.0841C1.9478 14.3313 1.72973 14.5102 1.47923 14.502C1.22893 14.4936 1.02369 14.3011 0.998764 14.0518C0.740368 11.4675 1.24888 9.44053 2.42748 8.0538C3.51508 6.77427 5.11057 6.11262 6.99583 6.01474V4.00204C6.99594 3.79997 7.11775 3.61751 7.30443 3.54013ZM7.99583 7.00204H7.49583C5.59896 7.00208 4.13162 7.59252 3.18919 8.70126C2.68089 9.29935 2.3039 10.0734 2.1013 11.0362C2.32076 10.7405 2.5753 10.4728 2.87083 10.2364C3.93581 9.38445 5.44488 9.00207 7.49583 9.00204H7.99583V10.795L10.7888 8.00204L7.99583 5.20907V7.00204Z" fill="currentColor"/>
</g>
</svg>
