<svg preserveAspectRatio="none" width="12" height="16" overflow="visible" style="display: block;" viewBox="0 0 12 16" fill="none" xmlns="http://www.w3.org/2000/svg">
<g id="Icon">
<path id="Icon_2" fill-rule="evenodd" clip-rule="evenodd" d="M7.02315 7.44957L5.99992 4.71311L4.97669 7.44957L2.05796 7.57711L4.34429 9.39587L3.56365 12.2112L5.99992 10.5987L8.43618 12.2112L7.65554 9.39587L9.94187 7.57711L7.02315 7.44957ZM11.5886 6.64811C11.9582 6.66426 12.1097 7.13044 11.8202 7.36076L8.79602 9.76644L9.82857 13.4902C9.92743 13.8467 9.53088 14.1348 9.22235 13.9306L5.99992 11.7979L2.77748 13.9306C2.46895 14.1348 2.0724 13.8467 2.17126 13.4902L3.20381 9.76644L0.17968 7.36076C-0.109855 7.13044 0.0416146 6.66426 0.411235 6.64811L4.27183 6.47942L5.62525 2.8599C5.75483 2.51337 6.245 2.51336 6.37458 2.8599L7.728 6.47942L11.5886 6.64811Z" fill="currentColor"/>
</g>
</svg>
