<svg preserveAspectRatio="none" width="14" height="16" overflow="visible" style="display: block;" viewBox="0 0 14 16" fill="none" xmlns="http://www.w3.org/2000/svg">
<g id="Icon">
<g id="Icon_2">
<path fill-rule="evenodd" clip-rule="evenodd" d="M13.1527 4.62264C13.1828 4.35157 13.0263 4.09429 12.7717 3.99638L10.0906 2.96518C9.78953 2.84939 9.45079 2.99235 9.32372 3.28884L8.08629 6.17619C8.0082 6.3584 8.02515 6.56742 8.13158 6.73467L8.3086 7.01285C8.99571 8.09259 8.98813 9.33844 8.21351 10.1131C7.97919 10.3474 7.97919 10.7273 8.21351 10.9616C8.28837 11.0365 8.37808 11.0874 8.47316 11.1144C8.50019 11.2095 8.55113 11.2992 8.62599 11.3741C8.8603 11.6084 9.2402 11.6084 9.47452 11.3741C11.8178 9.03079 12.9283 6.64183 13.1527 4.62264ZM9.99503 8.96287C10.0761 8.06731 9.81096 7.13854 9.321 6.3686L9.31406 6.3577L10.1991 4.29261L11.8929 4.94406C11.6739 6.13525 11.09 7.51649 9.99503 8.96287Z" fill="currentColor"/>
<path fill-rule="evenodd" clip-rule="evenodd" d="M2.72309 15.0522C2.45202 15.0823 2.19473 14.9258 2.09683 14.6713L1.06563 11.9902C0.949833 11.6891 1.0928 11.3503 1.38928 11.2233L4.27664 9.98584C4.45885 9.90775 4.66787 9.9247 4.83511 10.0311L5.1133 10.2082C6.19304 10.8953 7.43889 10.8877 8.21351 10.1131C8.44782 9.87875 8.82773 9.87875 9.06204 10.1131C9.1369 10.1879 9.18784 10.2776 9.21487 10.3727C9.30995 10.3997 9.39966 10.4507 9.47452 10.5255C9.70884 10.7599 9.70883 11.1398 9.47452 11.3741C7.13123 13.7174 4.74228 14.8279 2.72309 15.0522ZM7.06332 11.8946C6.16776 11.9757 5.23899 11.7105 4.46905 11.2205L4.45814 11.2136L2.39306 12.0986L3.04451 13.7924C4.2357 13.5735 5.61694 12.9895 7.06332 11.8946Z" fill="currentColor"/>
<path fill-rule="evenodd" clip-rule="evenodd" d="M6 8.00006L6 3.40611L4.85151 3.40611L4.85151 6.03947L1.8121 3.00006L1 3.81216L4.03941 6.85157L1.40605 6.85157L1.40605 8.00006H6Z" fill="currentColor"/>
</g>
</g>
</svg>
