<svg width="12" height="16" viewBox="0 0 12 16" fill="none" xmlns="http://www.w3.org/2000/svg">
<g clip-path="url(#clip0_1981_32468)">
<path d="M6.84961 12H5.75V9.0498H5.2998C4.99613 9.04971 4.75 8.8037 4.75 8.5C4.75 8.1963 4.99613 7.95029 5.2998 7.9502H6.84961V12Z" fill="currentColor"/>
<path d="M6.09863 5.5C6.53942 5.50021 6.89648 5.85799 6.89648 6.29883C6.89627 6.73948 6.53929 7.09647 6.09863 7.09668C5.6578 7.09668 5.30002 6.73961 5.2998 6.29883C5.2998 5.85786 5.65767 5.5 6.09863 5.5Z" fill="currentColor"/>
<path fill-rule="evenodd" clip-rule="evenodd" d="M6 3C9.31371 3 12 5.68629 12 9C12 12.3137 9.31371 15 6 15C2.68629 15 0 12.3137 0 9C0 5.68629 2.68629 3 6 3ZM6 4.09961C3.2938 4.09961 1.09961 6.2938 1.09961 9C1.09961 11.7062 3.2938 13.9004 6 13.9004C8.7062 13.9004 10.9004 11.7062 10.9004 9C10.9004 6.2938 8.7062 4.09961 6 4.09961Z" fill="currentColor"/>
</g>
<defs>
<clipPath id="clip0_1981_32468">
<rect width="12" height="16" fill="currentColor"/>
</clipPath>
</defs>
</svg>
