<svg preserveAspectRatio="none" width="11" height="16" overflow="visible" style="display: block;" viewBox="0 0 11 16" fill="none" xmlns="http://www.w3.org/2000/svg">
<g id="Icon">
<path id="Icon_2" fill-rule="evenodd" clip-rule="evenodd" d="M2.1 7.74436V12.3999C2.1 12.6208 2.2791 12.7999 2.50007 12.7999L7.19999 12.7999C7.54823 12.7999 7.74621 12.6291 7.93136 12.3049C8.02253 12.1452 8.09376 11.9755 8.17194 11.7893C8.17819 11.7744 8.18449 11.7593 8.19085 11.7442C8.23092 11.6489 8.2764 11.5423 8.32544 11.4451C8.3723 11.3523 8.44 11.2319 8.53621 11.1261C8.60378 11.0519 8.66746 10.9863 8.72636 10.9256C8.98384 10.6604 9.15 10.4892 9.15 10.0999C9.15 10.0461 9.14985 9.99442 9.1497 9.9446C9.14862 9.57368 9.14784 9.30693 9.21196 9.0487C9.26529 8.83394 9.36923 8.61036 9.50795 8.31196C9.54556 8.23107 9.58572 8.14467 9.62813 8.05146C9.77644 7.72546 9.6002 6.99993 8.65 6.99993H7C6.61125 6.99993 6.25624 6.92242 5.96248 6.72982C5.66068 6.53194 5.48481 6.25289 5.38849 5.96573C5.29609 5.69026 5.27317 5.39812 5.27237 5.13615C5.27158 4.87969 5.29269 4.61175 5.31154 4.3726L5.3131 4.35282C5.33318 4.09781 5.35019 3.87394 5.34875 3.6698C5.34729 3.46403 5.32653 3.31958 5.29241 3.22082C5.26241 3.13397 5.22858 3.09886 5.19324 3.07607C5.15866 3.05377 5.08373 3.0192 4.935 3.00565C4.92832 3.02424 4.9209 3.04641 4.9129 3.07266C4.87448 3.19867 4.83954 3.35781 4.79343 3.57276L4.78901 3.59339C4.74572 3.79525 4.69482 4.03263 4.6276 4.2856C4.3446 5.35063 3.76567 6.71363 2.1 7.74436ZM4.05692 2.14334C4.23775 1.9311 4.49318 1.79993 4.8 1.79993C5.1915 1.79993 5.54803 1.87701 5.84352 2.06754C6.14743 2.2635 6.32712 2.54089 6.42665 2.82903C6.52207 3.10527 6.54685 3.39832 6.54872 3.6613C6.55058 3.92414 6.52898 4.19834 6.50979 4.44211L6.5094 4.44703C6.48925 4.70293 6.47173 4.92725 6.47236 5.13245C6.473 5.33923 6.49281 5.48459 6.5262 5.58412C6.55566 5.67196 6.58862 5.70541 6.62045 5.72629C6.66032 5.75243 6.76375 5.79993 7 5.79993H8.65C10.4509 5.79993 11.2393 7.40773 10.7204 8.54839C10.6512 8.7004 10.5965 8.81881 10.5527 8.91335C10.4392 9.15893 10.4 9.24355 10.3766 9.33789C10.35 9.44513 10.35 9.54624 10.35 10.0496L10.35 10.0999C10.35 11.0248 9.79282 11.5698 9.52228 11.8344C9.48494 11.8709 9.45306 11.9021 9.42886 11.9282C9.42669 11.9316 9.41574 11.9482 9.39666 11.986C9.36875 12.0412 9.33791 12.1122 9.29703 12.2094C9.29015 12.2257 9.28303 12.2428 9.27567 12.2603C9.20162 12.4373 9.10289 12.6732 8.97342 12.9C8.67698 13.4191 8.15177 13.9999 7.20001 13.9999L2.50008 13.9999C1.61646 13.9999 0.9 13.2836 0.9 12.3999V7.69568C0.9 7.28754 1.12474 6.93429 1.4438 6.73916C2.7807 5.92151 3.23095 4.86894 3.46784 3.97744C3.52747 3.75301 3.5731 3.54032 3.61738 3.33388L3.62067 3.31854C3.66378 3.11755 3.70913 2.90613 3.76506 2.7227C3.81895 2.54594 3.90217 2.32496 4.05692 2.14334Z" fill="currentColor"/>
</g>
</svg>
