<svg preserveAspectRatio="none" width="11" height="16" overflow="visible" style="display: block;" viewBox="0 0 11 16" fill="none" xmlns="http://www.w3.org/2000/svg">
<g id="Icon">
<path id="Icon_2" fill-rule="evenodd" clip-rule="evenodd" d="M4.05692 2.14334C4.23775 1.9311 4.49318 1.79993 4.8 1.79993C5.1915 1.79993 5.54803 1.87701 5.84352 2.06754C6.14743 2.2635 6.32712 2.54089 6.42665 2.82903C6.52207 3.10527 6.54685 3.39832 6.54872 3.6613C6.55058 3.92414 6.52898 4.19834 6.50979 4.44211L6.5094 4.44703C6.48925 4.70293 6.47173 4.92725 6.47236 5.13245C6.473 5.33923 6.49281 5.48459 6.5262 5.58412C6.55566 5.67196 6.58862 5.70541 6.62045 5.72629C6.66032 5.75243 6.76375 5.79993 7 5.79993H8.65C10.4509 5.79993 11.2393 7.40773 10.7204 8.54839C10.6512 8.7004 10.5965 8.81881 10.5527 8.91335C10.4392 9.15893 10.4 9.24355 10.3766 9.33789C10.35 9.44513 10.35 9.54624 10.35 10.0496L10.35 10.0999C10.35 11.0248 9.79282 11.5698 9.52228 11.8344C9.48494 11.8709 9.45306 11.9021 9.42886 11.9282C9.42669 11.9316 9.41574 11.9482 9.39666 11.986C9.36875 12.0412 9.33791 12.1122 9.29703 12.2094C9.29015 12.2257 9.28303 12.2428 9.27567 12.2603C9.20162 12.4373 9.10289 12.6732 8.97342 12.9C8.67698 13.4191 8.15177 13.9999 7.20001 13.9999L2.50008 13.9999C1.61646 13.9999 0.9 13.2836 0.9 12.3999V7.69568C0.9 7.28754 1.12474 6.93429 1.4438 6.73916C2.7807 5.92151 3.23095 4.86894 3.46784 3.97744C3.52747 3.75301 3.5731 3.54032 3.61738 3.33388L3.62067 3.31854C3.66378 3.11755 3.70913 2.90613 3.76506 2.7227C3.81895 2.54594 3.90217 2.32496 4.05692 2.14334Z" fill="currentColor"/>
</g>
</svg>
