<svg preserveAspectRatio="none" width="12" height="16" overflow="visible" style="display: block;" viewBox="0 0 12 16" fill="none" xmlns="http://www.w3.org/2000/svg">
<g id="Icon">
<g id="Icon_2">
<path d="M2 8C2 10.2091 3.79086 12 6 12C8.20914 12 10 10.2091 10 8H11C11 8.08614 10.9975 8.17176 10.9932 8.25684C10.9639 8.82561 10.8375 9.38574 10.6191 9.91309C10.4707 10.2714 10.2804 10.6097 10.0547 10.9229C10.039 10.9446 10.0239 10.9668 10.0078 10.9883C9.8639 11.1813 9.70616 11.3642 9.53516 11.5352C9.419 11.6513 9.29744 11.7614 9.1709 11.8652C9.09052 11.9312 9.0073 11.9937 8.92285 12.0547C8.60971 12.2804 8.27138 12.4707 7.91309 12.6191C7.6105 12.7445 7.29719 12.8396 6.97754 12.9033C6.88151 12.9224 6.78444 12.9377 6.68652 12.9512C6.62465 12.9598 6.56218 12.9626 6.5 12.9688V15H5.5V12.9697C5.43746 12.9636 5.37473 12.9598 5.3125 12.9512C5.21459 12.9377 5.1175 12.9224 5.02148 12.9033C4.70216 12.8396 4.3892 12.7443 4.08691 12.6191C3.72837 12.4706 3.38949 12.2806 3.07617 12.0547C2.99174 11.9937 2.90848 11.9313 2.82812 11.8652C2.70179 11.7616 2.58082 11.6511 2.46484 11.5352C2.2937 11.364 2.13521 11.1815 1.99121 10.9883C1.97516 10.9668 1.96005 10.9446 1.94434 10.9229C1.71876 10.6098 1.5292 10.2712 1.38086 9.91309C1.16245 9.38574 1.03609 8.82561 1.00684 8.25684C1.00253 8.17176 1 8.08614 1 8H2Z" fill="currentColor"/>
<path fill-rule="evenodd" clip-rule="evenodd" d="M6 3C7.38073 3 8.49995 4.11928 8.5 5.5V7.90039L8.4873 8.15527C8.35948 9.41617 7.29462 10.4004 6 10.4004L5.74414 10.3877C4.56748 10.2681 3.63198 9.33204 3.5127 8.15527L3.5 7.90039V5.5C3.50005 4.11931 4.61931 3.00005 6 3ZM6 4C5.1716 4.00005 4.50005 4.6716 4.5 5.5V7.90039C4.50016 8.7287 5.17166 9.40034 6 9.40039C6.82838 9.40039 7.49984 8.72874 7.5 7.90039V5.5C7.49995 4.67156 6.82845 4 6 4Z" fill="currentColor"/>
</g>
</g>
</svg>
