<svg preserveAspectRatio="none" width="12" height="16" overflow="visible" style="display: block;" viewBox="0 0 12 16" fill="none" xmlns="http://www.w3.org/2000/svg">
<g id="Icon">
<g id="Icon_2">
<path fill-rule="evenodd" clip-rule="evenodd" d="M11.3994 3.29785L2.40625 15.2988L1.6084 14.7012L3.42188 12.2812C3.30383 12.21 3.18797 12.1353 3.07617 12.0547C2.99174 11.9937 2.90848 11.9313 2.82812 11.8652C2.70179 11.7616 2.58082 11.6511 2.46484 11.5352C2.2937 11.364 2.13521 11.1815 1.99121 10.9883C1.97516 10.9668 1.96005 10.9446 1.94434 10.9229C1.71876 10.6098 1.5292 10.2712 1.38086 9.91309C1.16245 9.38574 1.03609 8.82561 1.00684 8.25684C1.00253 8.17176 1 8.08614 1 8H2C2 9.49009 2.81602 10.7875 4.02441 11.4756L4.99023 10.1855C4.18722 9.82988 3.60599 9.06562 3.51367 8.15527L3.5 7.90039V5.5C3.50005 4.11931 4.62029 3.00005 6.00098 3C7.38126 3.00053 8.50092 4.1196 8.50098 5.5V5.50293L10.6025 2.7002L11.3994 3.29785ZM6.00098 4C5.17257 4.00005 4.50103 4.6716 4.50098 5.5V7.90039C4.50111 8.59635 4.97533 9.17931 5.61816 9.34863L7.50098 6.83691V5.5C7.50092 4.67189 6.82898 4.00053 6.00098 4Z" fill="currentColor"/>
<path d="M10.9932 8.25684C10.9639 8.82561 10.8375 9.38574 10.6191 9.91309C10.4707 10.2714 10.2804 10.6097 10.0547 10.9229C10.039 10.9446 10.0239 10.9668 10.0078 10.9883C9.8639 11.1813 9.70616 11.3642 9.53516 11.5352C9.419 11.6513 9.29744 11.7614 9.1709 11.8652C9.09052 11.9312 9.0073 11.9937 8.92285 12.0547C8.60971 12.2804 8.27138 12.4707 7.91309 12.6191C7.6105 12.7445 7.29719 12.8396 6.97754 12.9033C6.88151 12.9224 6.78444 12.9377 6.68652 12.9512C6.62465 12.9598 6.56218 12.9626 6.5 12.9688V15H5.5V12.9717L6.2334 11.9922C8.33388 11.8713 10 10.1308 10 8H11C11 8.08614 10.9975 8.17176 10.9932 8.25684Z" fill="currentColor"/>
</g>
</g>
</svg>
