<svg preserveAspectRatio="none" width="14" height="16" overflow="visible" style="display: block;" viewBox="0 0 14 16" fill="none" xmlns="http://www.w3.org/2000/svg">
<g id="Icon">
<g id="Icon_2">
<path fill-rule="evenodd" clip-rule="evenodd" d="M0.847322 4.62264C0.817202 4.35157 0.973702 4.09429 1.22826 3.99638L3.90938 2.96518C4.21044 2.84939 4.54919 2.99235 4.67625 3.28884L5.91369 6.17619C5.99178 6.3584 5.97483 6.56742 5.8684 6.73467L5.69137 7.01285C5.00426 8.09259 5.01184 9.33844 5.78647 10.1131C6.02078 10.3474 6.02078 10.7273 5.78647 10.9616C5.71161 11.0365 5.62189 11.0874 5.52681 11.1144C5.49979 11.2095 5.44884 11.2992 5.37399 11.3741C5.13967 11.6084 4.75977 11.6084 4.52546 11.3741C2.18217 9.03079 1.07168 6.64183 0.847322 4.62264ZM4.00494 8.96287C3.92386 8.06731 4.18902 7.13854 4.67898 6.3686L4.68592 6.3577L3.80088 4.29261L2.1071 4.94406C2.32604 6.13525 2.91002 7.51649 4.00494 8.96287Z" fill="currentColor"/>
<path fill-rule="evenodd" clip-rule="evenodd" d="M11.2769 15.0522C11.548 15.0823 11.8052 14.9258 11.9032 14.6713L12.9343 11.9902C13.0501 11.6891 12.9072 11.3503 12.6107 11.2233L9.72334 9.98584C9.54113 9.90775 9.33211 9.9247 9.16486 10.0311L8.88668 10.2082C7.80693 10.8953 6.56109 10.8877 5.78647 10.1131C5.55215 9.87875 5.17225 9.87875 4.93793 10.1131C4.86308 10.1879 4.81214 10.2776 4.78511 10.3727C4.69003 10.3997 4.60031 10.4507 4.52546 10.5255C4.29114 10.7599 4.29114 11.1398 4.52546 11.3741C6.86875 13.7174 9.2577 14.8279 11.2769 15.0522ZM6.93666 11.8946C7.83222 11.9757 8.76099 11.7105 9.53093 11.2205L9.54183 11.2136L11.6069 12.0986L10.9555 13.7924C9.76428 13.5735 8.38304 12.9895 6.93666 11.8946Z" fill="currentColor"/>
<path fill-rule="evenodd" clip-rule="evenodd" d="M13 7.24896L11.2511 5.50006L13 3.75117L12.2489 3.00006L10.5 4.74896L8.75108 3.00006L7.99998 3.75117L9.74887 5.50006L7.99998 7.24896L8.75108 8.00006L10.5 6.25117L12.2489 8.00006L13 7.24896Z" fill="currentColor"/>
</g>
</g>
</svg>
