<svg preserveAspectRatio="none" width="14" height="16" overflow="visible" style="display: block;" viewBox="0 0 14 16" fill="none" xmlns="http://www.w3.org/2000/svg">
<g id="Icon">
<path id="Icon_2" fill-rule="evenodd" clip-rule="evenodd" d="M6.23607 6.49998L6.44721 6.3944L9 5.11801V10.8819L6.44721 9.60555L6.23607 9.49998H6H5H4H3.5C2.67157 9.49998 2 8.8284 2 7.99998C2 7.17155 2.67157 6.49998 3.5 6.49998H6H6.23607ZM4 10.5H5V12.5H4V10.5ZM3 10.5V10.45C1.85888 10.2183 1 9.20946 1 7.99998C1 6.61927 2.11929 5.49998 3.5 5.49998H6L9.27639 3.86178C9.60884 3.69556 10 3.9373 10 4.30899V11.691C10 12.0627 9.60884 12.3044 9.27639 12.1382L6 10.5V12.5V13.5H5H4H3V12.5V10.5ZM11 10.5H11.5C11.7761 10.5 12 10.7238 12 11V11.5H13V11C13 10.1716 12.3284 9.49998 11.5 9.49998H11V10.5ZM13 8.49998V7.49998H11V8.49998H13ZM11 6.49998H11.5C12.3284 6.49998 13 5.8284 13 4.99998V4.49998H12V4.99998C12 5.27612 11.7761 5.49998 11.5 5.49998H11V6.49998Z" fill="currentColor"/>
</g>
</svg>
