<svg preserveAspectRatio="none" width="12" height="16" overflow="visible" style="display: block;" viewBox="0 0 12 16" fill="none" xmlns="http://www.w3.org/2000/svg">
<g id="Icon">
<path id="Icon_2" fill-rule="evenodd" clip-rule="evenodd" d="M9.72341 5.53547L11.4 3.30001L10.6 2.70001L9.18761 4.5832C8.45711 3.6212 7.3011 2.99999 6 3C3.79086 3 2.00001 4.79086 2.00001 7L2.00001 10L1.00001 11V12C1.00001 12.5523 1.44772 13 2.00001 13H2.87501L1.6 14.7L2.4 15.3L4.12501 13L10 13C10.5523 13 11 12.5523 11 12V11L10 10L10 7C10 6.48305 9.90194 5.98901 9.72341 5.53547ZM8.55491 5.42679C8.02659 4.57061 7.07993 3.99999 6 4C4.34315 4 3.00001 5.34314 3.00001 7L3.00001 10.4142L2.00001 11.4142L2.00001 12H3.62501L8.55491 5.42679ZM4.87501 12L8.96581 6.54559C8.98833 6.69378 9.00001 6.84552 9.00001 7L9.00001 10.4142L10 11.4142L10 12L4.87501 12Z" fill="currentColor"/>
</g>
</svg>
