<svg preserveAspectRatio="none" width="12" height="16" overflow="visible" style="display: block;" viewBox="0 0 12 16" fill="none" xmlns="http://www.w3.org/2000/svg">
<g id="Icon">
<g id="Icon_2">
<path fill-rule="evenodd" clip-rule="evenodd" d="M6 5.75C7.02205 5.75003 7.85049 6.57856 7.85059 7.60059C7.85056 8.62268 7.02209 9.45115 6 9.45117C4.97794 9.45111 4.14944 8.62265 4.14941 7.60059C4.14951 6.57858 4.97799 5.75007 6 5.75ZM6 6.84961C5.5855 6.84968 5.24912 7.18609 5.24902 7.60059C5.24905 8.01514 5.58545 8.3515 6 8.35156C6.41458 8.35154 6.75095 8.01517 6.75098 7.60059C6.75088 7.18607 6.41453 6.84964 6 6.84961Z" fill="currentColor"/>
<path fill-rule="evenodd" clip-rule="evenodd" d="M6 3C9.31371 3 12 5.68629 12 9C12 12.3137 9.31371 15 6 15C2.68629 15 0 12.3137 0 9C0 5.68629 2.68629 3 6 3ZM5.16602 11.0498C4.43476 11.0498 3.81826 11.5947 3.72754 12.3203L3.60742 13.2754C4.31526 13.6724 5.13077 13.9004 6 13.9004C6.86923 13.9004 7.68474 13.6724 8.39258 13.2754L8.27344 12.3203C8.18276 11.5949 7.56601 11.0501 6.83496 11.0498H5.16602ZM6 4.09961C3.2938 4.09961 1.09961 6.2938 1.09961 9C1.09961 10.3822 1.67313 11.6296 2.59375 12.5205L2.63574 12.1836C2.79533 10.9076 3.88005 9.9502 5.16602 9.9502H6.83496C8.12073 9.95044 9.2057 10.9077 9.36523 12.1836L9.40625 12.5195C10.3266 11.6286 10.9004 10.3819 10.9004 9C10.9004 6.2938 8.70619 4.09961 6 4.09961Z" fill="currentColor"/>
</g>
</g>
</svg>
