<svg preserveAspectRatio="none" width="12" height="16" overflow="visible" style="display: block;" viewBox="0 0 12 16" fill="none" xmlns="http://www.w3.org/2000/svg">
<g id="Icon">
<g id="Icon_2">
<path d="M6 10.7002C6.44064 10.7002 6.79785 11.0574 6.79785 11.498C6.79775 11.9386 6.44058 12.2959 6 12.2959C5.55942 12.2959 5.20225 11.9386 5.20215 11.498C5.20215 11.0574 5.55936 10.7002 6 10.7002Z" fill="currentColor"/>
<path d="M6.00293 5.25C7.14794 5.25 8.07402 6.17962 8.07422 7.32422C8.07422 8.09217 7.65778 8.76296 7.04004 9.12109C6.73072 9.30036 6.55273 9.44141 6.55273 9.87793V10.0039H5.45312V9.87793C5.45312 9.12109 5.75108 8.59457 6.48828 8.16895C7.34603 7.67373 6.99219 6.34961 6.00293 6.34961C5.5473 6.34965 5.16242 6.66576 5.05859 7.09277L4.92871 7.62695L3.86035 7.36719L3.99023 6.83301C4.21076 5.92558 5.0268 5.25004 6.00293 5.25Z" fill="currentColor"/>
<path fill-rule="evenodd" clip-rule="evenodd" d="M6 3C9.31371 3 12 5.68629 12 9C12 12.3137 9.31371 15 6 15C2.68629 15 0 12.3137 0 9C0 5.68629 2.68629 3 6 3ZM6 4.09961C3.2938 4.09961 1.09961 6.2938 1.09961 9C1.09961 11.7062 3.2938 13.9004 6 13.9004C8.70619 13.9004 10.9004 11.7062 10.9004 9C10.9004 6.2938 8.70619 4.09961 6 4.09961Z" fill="currentColor"/>
</g>
</g>
</svg>
