<svg preserveAspectRatio="none" width="13" height="16" overflow="visible" style="display: block;" viewBox="0 0 13 16" fill="none" xmlns="http://www.w3.org/2000/svg">
<g id="Icon">
<path id="Icon_2" fill-rule="evenodd" clip-rule="evenodd" d="M11.5125 14.5021C11.763 14.4939 11.9687 14.3015 11.9937 14.0521C12.2521 11.4675 11.7434 9.44028 10.5646 8.05351C9.477 6.77394 7.8815 6.11297 5.99617 6.01512V4.00233C5.99617 3.8001 5.87435 3.61778 5.68751 3.54039C5.50067 3.463 5.28561 3.50578 5.14262 3.64878L0.789062 8.00233L5.14262 12.3559C5.28561 12.4989 5.50067 12.5417 5.68751 12.4643C5.87435 12.3869 5.99617 12.2046 5.99617 12.0023V10.0109C7.66098 10.0694 8.75786 10.427 9.49632 11.0178C10.2986 11.6596 10.7631 12.6455 11.003 14.0845C11.0442 14.3318 11.262 14.5103 11.5125 14.5021ZM10.121 10.2369C9.05601 9.3849 7.54723 9.00233 5.49617 9.00233H4.99617V10.7952L2.20328 8.00233L4.99617 5.20944V7.00233H5.49617C7.39314 7.00233 8.86024 7.59238 9.8027 8.70116C10.3111 9.2993 10.6882 10.0734 10.8908 11.0364C10.6713 10.7406 10.4166 10.4733 10.121 10.2369Z" fill="currentColor"/>
</g>
</svg>
