<svg preserveAspectRatio="none" width="14" height="16" overflow="visible" style="display: block;" viewBox="0 0 14 16" fill="none" xmlns="http://www.w3.org/2000/svg">
<g id="Icon">
<path id="Icon_2" fill-rule="evenodd" clip-rule="evenodd" d="M6.33026 6.02115L6.3301 6.021C5.38528 5.12347 3.85343 4.86292 2.90861 5.76045C1.9638 6.65798 1.9638 8.37371 2.90861 9.27124L7.2 13.0001L9.95643 10.605L8.69995 9.34851L8.12422 9.92425C7.33762 10.7108 6.06229 10.7108 5.27569 9.92425C4.48909 9.13765 4.48909 7.86232 5.27569 7.07572L6.33026 6.02115ZM7.2125 6.83597L6.12421 7.92425C5.80624 8.24222 5.80624 8.75775 6.12422 9.07572C6.44219 9.39369 6.95772 9.39369 7.27569 9.07572L8.27569 8.07572L8.69995 7.65146L9.12422 8.07572L10.8645 9.81598L11.4914 9.27124C12.4362 8.37371 12.4362 6.65797 11.4914 5.76045C10.5466 4.86292 9.01472 5.12346 8.0699 6.02099L7.2125 6.83597ZM7.24317 5.15122L7.2 5.19225L7.15658 5.15097C5.92525 3.98127 3.64826 3.40269 2.08214 4.89043C1.33268 5.60238 1 6.59085 1 7.51584C1 8.44084 1.33268 9.42931 2.08214 10.1413L6.87198 14.3047C7.0601 14.4682 7.3399 14.4682 7.52802 14.3047L12.3179 10.1413C13.0673 9.42931 13.4 8.44083 13.4 7.51584C13.4 6.59085 13.0673 5.60237 12.3179 4.89042C10.7517 3.40268 8.4745 3.98151 7.24317 5.15122Z" fill="currentColor"/>
</g>
</svg>
