<svg preserveAspectRatio="none" width="14" height="16" overflow="visible" style="display: block;" viewBox="0 0 14 16" fill="none" xmlns="http://www.w3.org/2000/svg">
<g id="Icon">
<path id="Icon_2" fill-rule="evenodd" clip-rule="evenodd" d="M7.00003 2.89999C9.49137 2.89999 11.72 4.02475 13.2059 5.79416L12.3535 6.64649C11.0883 5.09256 9.1601 4.09999 7.00003 4.09999C4.83996 4.09999 2.91172 5.09257 1.64652 6.64649L0.794189 5.79417C2.28004 4.02475 4.50869 2.89999 7.00003 2.89999ZM7.00003 5.89999C8.66334 5.89999 10.1407 6.69625 11.0716 7.92838L10.2123 8.78773C9.5088 7.76817 8.33244 7.09999 7.00003 7.09999C5.66761 7.09999 4.49125 7.76817 3.78775 8.78773L2.9284 7.92838C3.85938 6.69625 5.33671 5.89999 7.00003 5.89999ZM8.70005 11.5C8.70005 12.4389 7.93893 13.2 7.00005 13.2C6.06116 13.2 5.30005 12.4389 5.30005 11.5C5.30005 10.5611 6.06116 9.8 7.00005 9.8C7.93893 9.8 8.70005 10.5611 8.70005 11.5ZM7.50005 11.5C7.50005 11.7761 7.27619 12 7.00005 12C6.72391 12 6.50005 11.7761 6.50005 11.5C6.50005 11.2239 6.72391 11 7.00005 11C7.27619 11 7.50005 11.2239 7.50005 11.5Z" fill="currentColor"/>
</g>
</svg>
