<svg preserveAspectRatio="none" width="14" height="16" overflow="visible" style="display: block;" viewBox="0 0 14 16" fill="none" xmlns="http://www.w3.org/2000/svg">
<g id="Icon">
<path id="Icon_2" fill-rule="evenodd" clip-rule="evenodd" d="M4 4C4 3.44772 4.44772 3 5 3H9C9.55228 3 10 3.44772 10 4V5H12.5C12.7761 5 13 5.22386 13 5.5V13.5C13 13.7761 12.7761 14 12.5 14H1.5C1.22386 14 1 13.7761 1 13.5V5.5C1 5.22386 1.22386 5 1.5 5H4V4ZM9 4V5H5V4H9ZM2 6H4H5H9H10H12V8H2V6ZM2 13V9H6V10H8V9H12V13H2Z" fill="currentColor"/>
</g>
</svg>
