<svg width="16" height="16" viewBox="0 0 16 16" fill="none" xmlns="http://www.w3.org/2000/svg">
<path d="M9.87793 2.11613C10.6945 1.91939 11.5529 1.97359 12.3379 2.2714C13.1228 2.56923 13.7984 3.0974 14.2744 3.78605C14.75 4.47411 15.0034 5.28989 15 6.12492L14.9873 6.44523C14.8568 8.0213 13.7833 9.17485 12.9023 10.0468L12.8945 10.0546L12.8936 10.0536L9.41602 13.3847C9.24282 13.5701 9.03596 13.721 8.80469 13.8261C8.556 13.9391 8.28583 13.9982 8.0127 13.9999C7.73943 14.0016 7.46799 13.9458 7.21777 13.8359C6.98196 13.7322 6.77074 13.5813 6.59375 13.3944V13.3964L3.10547 10.0536L3.09766 10.0468C2.15869 9.11741 1.00004 7.87318 1 6.12492C1.00002 5.29094 1.25583 4.47696 1.73242 3.79093C2.20896 3.10503 2.88393 2.57926 3.66699 2.28214C4.45008 1.98507 5.30609 1.9306 6.12109 2.12492C6.87785 2.30549 7.52079 2.8113 7.99902 3.29191C8.47678 2.80783 9.12002 2.2988 9.87793 2.11613ZM2.33398 6.12492C2.33403 7.25703 3.07118 8.14252 4.02832 9.09074L7.5166 12.4335C7.52825 12.4447 7.53997 12.4567 7.55078 12.4687C7.60689 12.5307 7.67597 12.5808 7.75391 12.6152C7.8322 12.6495 7.91777 12.6674 8.00391 12.6669C8.09006 12.6664 8.17509 12.6476 8.25293 12.6122C8.33068 12.5769 8.39966 12.5258 8.45508 12.4628L8.49414 12.4218L11.9727 9.09074C12.9291 8.14312 13.667 7.25108 13.667 6.12492V6.12199L13.6602 5.91105C13.6249 5.42298 13.4589 4.95069 13.1777 4.54386C12.8562 4.07886 12.3981 3.72099 11.8643 3.51847C11.3303 3.31595 10.7464 3.27907 10.1904 3.413C9.70827 3.52923 9.20279 3.9344 8.75488 4.43253C8.75134 4.43647 8.74778 4.4404 8.74414 4.44425C8.64822 4.54577 8.53213 4.62665 8.4043 4.68156C8.27657 4.73637 8.13878 4.76457 8 4.76457C7.86122 4.76452 7.72342 4.73641 7.5957 4.68156C7.46797 4.62666 7.35269 4.5457 7.25684 4.44425L7.24805 4.43449C6.79802 3.93878 6.29281 3.53659 5.81152 3.42179C5.25627 3.28941 4.67365 3.32706 4.14062 3.52921C3.60768 3.7314 3.15021 4.08817 2.82812 4.55168C2.50609 5.01519 2.33399 5.5638 2.33398 6.12492Z" fill="currentColor"/>
</svg>
