<svg width="24" height="24" viewBox="0 0 24 24" fill="none" xmlns="http://www.w3.org/2000/svg">
<path d="M2.5 9.18704C2.50002 8.14067 2.82071 7.11893 3.41972 6.25675C4.01873 5.39457 4.86788 4.73251 5.85502 4.35803C6.84215 3.98355 7.92083 3.91425 8.94859 4.15929C9.97635 4.40434 10.9048 5.20146 11.6114 5.97977C11.6612 6.03244 11.7213 6.07443 11.7882 6.10313C11.855 6.13184 11.9271 6.14665 11.9999 6.14665C12.0728 6.14665 12.1449 6.13184 12.2117 6.10313C12.2786 6.07443 12.3387 6.03244 12.3885 5.97977C13.0929 5.1964 14.0216 4.39467 15.051 4.14665C16.0804 3.89863 17.1618 3.96682 18.1511 4.34212C19.1404 4.71743 19.9908 5.38207 20.589 6.24757C21.1872 7.11307 21.505 8.13838 21.4999 9.18704C21.4999 11.3403 20.0749 12.9482 18.65 14.3587L13.4326 19.3545C13.2556 19.5557 13.0373 19.7174 12.7923 19.8287C12.5473 19.94 12.2812 19.9985 12.0116 20.0002C11.7421 20.0019 11.4752 19.9467 11.2288 19.8385C10.9825 19.7303 10.7622 19.5714 10.5826 19.3724L5.34999 14.3587C3.925 12.9482 2.5 11.3497 2.5 9.18704Z" fill="currentColor"/>
<path d="M14.8164 3.17403C16.0413 2.87892 17.3283 2.9607 18.5059 3.40742C19.6835 3.85419 20.6979 4.64571 21.4121 5.67891C22.1253 6.71083 22.505 7.9344 22.5 9.18672C22.5 11.7993 20.7629 13.6746 19.3535 15.0695C19.3496 15.0734 19.3458 15.0774 19.3418 15.0813L14.1445 20.0559C13.8807 20.3442 13.5622 20.5776 13.2061 20.7395C12.8329 20.909 12.4274 20.9976 12.0176 21.0002C11.608 21.0027 11.2022 20.9188 10.8271 20.7541C10.474 20.599 10.1559 20.3744 9.89062 20.0949L4.6582 15.0813C4.6543 15.0775 4.65033 15.0733 4.64648 15.0695C3.23801 13.6754 1.5 11.8092 1.5 9.18672C1.50009 7.93578 1.88372 6.71474 2.59863 5.68574C3.31343 4.65706 4.32555 3.86867 5.5 3.42305C6.67463 2.97744 7.95815 2.89525 9.18066 3.18672C10.316 3.45746 11.2806 4.21666 11.998 4.9377C12.7147 4.21157 13.6795 3.44802 14.8164 3.17403ZM3.5 9.18672C3.5 10.8896 4.61223 12.2209 6.05371 13.6477L11.2744 18.6506L11.3252 18.7023C11.4096 18.7958 11.5135 18.8715 11.6309 18.923C11.7483 18.9747 11.8766 19.001 12.0059 19.0002C12.1349 18.9993 12.2623 18.9712 12.3789 18.9182C12.4954 18.8652 12.5986 18.7889 12.6816 18.6945L12.7412 18.632L17.9463 13.6477C19.3869 12.2218 20.5 10.8807 20.5 9.18672V9.18184C20.504 8.33898 20.2486 7.51404 19.7666 6.8166C19.2844 6.11899 18.5976 5.58143 17.7969 5.27754C16.9958 4.97365 16.1192 4.9184 15.2852 5.11934C14.5619 5.29368 13.8037 5.90143 13.1318 6.64863C13.1264 6.65463 13.1208 6.66035 13.1152 6.66621C12.9714 6.81845 12.7981 6.93933 12.6064 7.02168C12.4147 7.10403 12.2083 7.14668 12 7.14668C11.7917 7.14668 11.5853 7.10403 11.3936 7.02168C11.2019 6.93933 11.0286 6.81845 10.8848 6.66621C10.8802 6.66142 10.8755 6.65645 10.8711 6.65156C10.1961 5.90805 9.43869 5.30417 8.7168 5.13203C7.88383 4.93343 7.00957 4.98985 6.20996 5.29317C5.41045 5.59647 4.72435 6.13198 4.24121 6.82735C3.75823 7.52252 3.50009 8.34517 3.5 9.18672Z" fill="currentColor"/>
</svg>
