<svg width="20" height="20" viewBox="0 0 20 20" fill="none" xmlns="http://www.w3.org/2000/svg">
<path d="M2.08334 7.65588C2.08335 6.7839 2.3506 5.93245 2.84977 5.21396C3.34895 4.49548 4.05658 3.94376 4.87919 3.63169C5.7018 3.31962 6.60071 3.26188 7.45717 3.46608C8.31364 3.67028 9.08736 4.33455 9.67618 4.98314C9.71765 5.02703 9.76779 5.06203 9.82349 5.08595C9.87918 5.10987 9.93925 5.12222 9.99997 5.12222C10.0607 5.12222 10.1208 5.10987 10.1765 5.08595C10.2321 5.06203 10.2823 5.02703 10.3238 4.98314C10.9107 4.33034 11.6847 3.66223 12.5425 3.45555C13.4004 3.24886 14.3015 3.30568 15.1259 3.61844C15.9504 3.9312 16.659 4.48506 17.1575 5.20631C17.6561 5.92756 17.9209 6.78199 17.9167 7.65588C17.9167 9.45029 16.7292 10.7902 15.5417 11.9656L11.1938 16.1288C11.0463 16.2965 10.8644 16.4312 10.6603 16.5239C10.4561 16.6167 10.2344 16.6654 10.0097 16.6668C9.78508 16.6682 9.56272 16.6223 9.35739 16.5321C9.15206 16.4419 8.96848 16.3095 8.81883 16.1437L4.45833 11.9656C3.27083 10.7902 2.08334 9.45812 2.08334 7.65588Z" fill="currentColor"/>
<path d="M12.347 2.64502C13.3677 2.3991 14.4403 2.46725 15.4216 2.83952C16.4029 3.21183 17.2483 3.87142 17.8435 4.73243C18.4378 5.59236 18.7542 6.61201 18.75 7.65561C18.75 9.83273 17.3024 11.3955 16.128 12.558C16.1247 12.5612 16.1215 12.5646 16.1182 12.5677L11.7871 16.7132C11.5673 16.9536 11.3018 17.1481 11.0051 17.2829C10.6941 17.4242 10.3562 17.4981 10.0147 17.5002C9.67331 17.5023 9.33522 17.4324 9.02264 17.2951C8.72838 17.1658 8.46324 16.9787 8.2422 16.7458L3.88184 12.5677C3.87859 12.5646 3.87528 12.5611 3.87208 12.558C2.69834 11.3962 1.25 9.84101 1.25 7.65561C1.25008 6.61316 1.56977 5.59562 2.16553 4.73812C2.7612 3.88088 3.60463 3.22389 4.58334 2.85254C5.5622 2.4812 6.63181 2.4127 7.65057 2.6556C8.59672 2.88122 9.40049 3.51389 9.99839 4.11475C10.5956 3.50965 11.3996 2.87335 12.347 2.64502ZM2.91667 7.65561C2.91667 9.07468 3.84353 10.1841 5.04477 11.3731L9.39536 15.5422L9.43768 15.5853C9.508 15.6632 9.59461 15.7262 9.6924 15.7692C9.79029 15.8122 9.89721 15.8342 10.0049 15.8335C10.1125 15.8328 10.2186 15.8093 10.3158 15.7652C10.4129 15.721 10.4988 15.6574 10.5681 15.5788L10.6177 15.5267L14.9553 11.3731C16.1558 10.1848 17.0834 9.0673 17.0834 7.65561V7.65154C17.0867 6.94916 16.8738 6.26171 16.4722 5.68051C16.0704 5.09916 15.498 4.6512 14.8308 4.39795C14.1632 4.14471 13.4327 4.09867 12.7377 4.26612C12.135 4.41141 11.5031 4.91786 10.9432 5.54054C10.9387 5.54553 10.934 5.5503 10.9294 5.55518C10.8095 5.68205 10.6651 5.78278 10.5054 5.85141C10.3456 5.92003 10.1736 5.95557 10 5.95557C9.82641 5.95557 9.65442 5.92003 9.49465 5.85141C9.3349 5.78278 9.19053 5.68205 9.07065 5.55518C9.06688 5.55119 9.06295 5.54704 9.05926 5.54298C8.49673 4.92338 7.86559 4.42015 7.26401 4.2767C6.56987 4.1112 5.84132 4.15821 5.17498 4.41098C4.50871 4.66373 3.93696 5.10999 3.53435 5.68946C3.13186 6.26877 2.91675 6.95432 2.91667 7.65561Z" fill="currentColor"/>
</svg>
