<svg xmlns="http://www.w3.org/2000/svg" viewBox="0 0 320 320" role="img" aria-labelledby="title desc">
  <title id="title">PerfAgency abstract logo</title>
  <desc id="desc">Abstract teal and graphite monogram for a fictional agency.</desc>
  <defs>
    <linearGradient id="avatarBackground" x1="46" y1="34" x2="274" y2="286" gradientUnits="userSpaceOnUse">
      <stop offset="0" stop-color="#e9fbff" />
      <stop offset="0.48" stop-color="#d9f4f0" />
      <stop offset="1" stop-color="#f0f2ff" />
    </linearGradient>
    <linearGradient id="avatarMark" x1="93" y1="72" x2="232" y2="245" gradientUnits="userSpaceOnUse">
      <stop offset="0" stop-color="#00aaff" />
      <stop offset="1" stop-color="#00c48c" />
    </linearGradient>
    <filter id="avatarShadow" x="54" y="44" width="218" height="234" filterUnits="userSpaceOnUse">
      <feDropShadow dx="0" dy="18" stdDeviation="16" flood-color="#14243d" flood-opacity="0.18" />
    </filter>
  </defs>
  <rect width="320" height="320" rx="96" fill="url(#avatarBackground)" />
  <circle cx="248" cy="70" r="28" fill="#ffffff" opacity="0.78" />
  <circle cx="72" cy="252" r="36" fill="#ffffff" opacity="0.68" />
  <g filter="url(#avatarShadow)">
    <path d="M97 232V94c0-11.046 8.954-20 20-20h74c45.84 0 76 26.94 76 68 0 40.275-30.759 68-75 68h-43v22c0 11.046-8.954 20-20 20h-12c-11.046 0-20-8.954-20-20Z" fill="#17202c" />
    <path d="M149 123v40h42c15.552 0 25-7.578 25-20 0-12.694-9.448-20-25-20h-42Z" fill="url(#avatarMark)" />
    <path d="M152 221c23.731-52.526 54.802-87.184 93-104 6.051 7.147 10 15.845 10 26 0 40.275-30.759 68-75 68h-28v10Z" fill="url(#avatarMark)" opacity="0.92" />
  </g>
  <path d="M83 82c21.547-27.187 51.673-42 88-42 25.291 0 48.124 7.406 68.5 22.219" fill="none" stroke="#ffffff" stroke-width="14" stroke-linecap="round" opacity="0.86" />
</svg>
