<svg width="206" height="40" viewBox="0 0 206 40" fill="none" xmlns="http://www.w3.org/2000/svg">
<g clip-path="url(#clip0_1428_102436)">
<path d="M33.8091 8.92578L26.1523 28.9881H30.2753L31.8459 24.8183H39.9739L41.5445 28.9881H45.6283L38.0106 8.92578H33.8091ZM33.2595 21.1205L35.9295 14.079L38.5996 21.1205H33.2595Z" fill="black"/>
<path d="M81.3599 14.627C77.3548 14.627 74.0957 17.892 74.0957 21.9044C74.0957 25.9169 77.3548 29.182 81.3599 29.182C85.3651 29.182 88.6242 25.8776 88.6242 21.9044C88.6242 17.892 85.3651 14.627 81.3599 14.627ZM81.3599 25.4842C79.3966 25.4842 77.826 23.9107 77.826 21.9438C77.826 19.9769 79.3966 18.4034 81.3599 18.4034C83.3233 18.4034 84.8939 19.9769 84.8939 21.9438C84.8939 23.9107 83.3233 25.4842 81.3599 25.4842Z" fill="black"/>
<path d="M50.5336 23.7928L47.2352 14.9023H43.3086L48.6488 28.9853H52.5361L57.7978 14.9023H53.8712L50.5336 23.7928Z" fill="black"/>
<path d="M70.1303 11.168H66.4002V14.9051H64.2012V18.2487H66.4002V24.2281C66.4002 27.6112 68.2848 29.0666 70.8764 29.0666C71.8972 29.0666 72.7612 28.87 73.468 28.5552V25.0936C73.468 25.0936 72.8396 25.3297 72.0937 25.3297C70.955 25.3297 70.1303 24.8968 70.1303 23.3627V18.2095H73.468V14.8657H70.1303V11.168Z" fill="black"/>
<path d="M60.8617 13.8817C62.358 13.8817 63.571 12.6665 63.571 11.1674C63.571 9.66836 62.358 8.45312 60.8617 8.45312C59.3654 8.45312 58.1523 9.66836 58.1523 11.1674C58.1523 12.6665 59.3654 13.8817 60.8617 13.8817Z" fill="black"/>
<path d="M62.7467 14.9023H59.0176V28.9853H62.7467V14.9023Z" fill="black"/>
<path d="M7.18802 30.9516C11.1999 30.9516 14.4522 27.6933 14.4522 23.6741C14.4522 19.6547 11.1999 16.3965 7.18802 16.3965C3.17616 16.3965 -0.0761719 19.6547 -0.0761719 23.6741C-0.0761719 27.6933 3.17616 30.9516 7.18802 30.9516Z" fill="#04E061"/>
<path d="M19.8295 30.046C22.2584 30.046 24.2273 28.0734 24.2273 25.6402C24.2273 23.2069 22.2584 21.2344 19.8295 21.2344C17.4007 21.2344 15.4316 23.2069 15.4316 25.6402C15.4316 28.0734 17.4007 30.046 19.8295 30.046Z" fill="#FF4053"/>
<path d="M8.56089 15.411C10.0572 15.411 11.2702 14.1958 11.2702 12.6967C11.2702 11.1977 10.0572 9.98242 8.56089 9.98242C7.06458 9.98242 5.85156 11.1977 5.85156 12.6967C5.85156 14.1958 7.06458 15.411 8.56089 15.411Z" fill="#965EEB"/>
<path d="M18.101 20.2902C21.3757 20.2902 24.0302 17.6308 24.0302 14.3502C24.0302 11.0696 21.3757 8.41016 18.101 8.41016C14.8265 8.41016 12.1719 11.0696 12.1719 14.3502C12.1719 17.6308 14.8265 20.2902 18.101 20.2902Z" fill="#00AAFF"/>
<path d="M98 28.1367V8.47361H100.431V17.7043L109.033 8.47361H112.092L103.162 18.0184L112.788 28.1367H109.648L100.431 18.5236V28.1367H98Z" fill="black"/>
<path d="M118.887 28.5463C117.786 28.5463 116.862 28.346 116.115 27.9455C115.378 27.5358 114.818 26.9988 114.436 26.3342C114.063 25.6697 113.876 24.9414 113.876 24.1494C113.876 23.3757 114.022 22.7066 114.313 22.1422C114.613 21.5687 115.032 21.0953 115.569 20.7221C116.106 20.3397 116.748 20.0393 117.494 19.8208C118.195 19.6297 118.978 19.4658 119.843 19.3293C120.717 19.1836 121.6 19.0516 122.492 18.9333C123.384 18.8149 124.217 18.7011 124.991 18.5919L124.117 19.0971C124.144 17.7863 123.88 16.8168 123.325 16.1886C122.779 15.5605 121.832 15.2464 120.485 15.2464C119.593 15.2464 118.81 15.4513 118.136 15.8609C117.472 16.2615 117.003 16.9169 116.73 17.8272L114.422 17.1308C114.777 15.8382 115.464 14.8231 116.484 14.0858C117.504 13.3484 118.846 12.9797 120.512 12.9797C121.85 12.9797 122.997 13.221 123.953 13.7034C124.918 14.1768 125.61 14.896 126.029 15.8609C126.238 16.3161 126.37 16.8122 126.425 17.3493C126.479 17.8773 126.507 18.4326 126.507 19.0152V28.1367H124.349V24.6L124.854 24.9278C124.299 26.1203 123.521 27.0215 122.52 27.6314C121.527 28.2414 120.317 28.5463 118.887 28.5463ZM119.256 26.5117C120.13 26.5117 120.885 26.357 121.523 26.0475C122.169 25.7289 122.688 25.3147 123.079 24.8049C123.471 24.286 123.726 23.7216 123.844 23.1117C123.981 22.6565 124.053 22.1513 124.063 21.596C124.081 21.0316 124.09 20.5992 124.09 20.2988L124.936 20.6674C124.144 20.7767 123.366 20.8814 122.601 20.9815C121.837 21.0816 121.113 21.1909 120.43 21.3092C119.748 21.4185 119.133 21.5505 118.587 21.7052C118.186 21.8327 117.809 21.9965 117.454 22.1968C117.108 22.3971 116.825 22.6565 116.607 22.9751C116.398 23.2846 116.293 23.6715 116.293 24.1358C116.293 24.5363 116.393 24.9187 116.593 25.2828C116.803 25.6469 117.121 25.9428 117.549 26.1704C117.986 26.3979 118.555 26.5117 119.256 26.5117Z" fill="black"/>
<path d="M136.052 28.56C134.659 28.5509 133.471 28.2505 132.488 27.6587C131.504 27.0579 130.74 26.1795 130.194 25.0233C129.647 23.8672 129.342 22.4517 129.279 20.7767C129.242 20.0029 129.251 19.1517 129.306 18.2232C129.37 17.2947 129.47 16.4026 129.606 15.5468C129.752 14.6911 129.934 13.9856 130.153 13.4303C130.398 12.7658 130.744 12.1513 131.19 11.5869C131.646 11.0134 132.155 10.5401 132.72 10.1668C133.293 9.77538 133.935 9.47042 134.645 9.25194C135.355 9.03346 136.097 8.86505 136.871 8.74671C137.654 8.61926 138.437 8.51002 139.219 8.41899C140.002 8.31886 140.749 8.20051 141.459 8.06396L141.705 10.2487C141.204 10.358 140.612 10.4536 139.929 10.5355C139.247 10.6083 138.537 10.6948 137.799 10.7949C137.071 10.8951 136.37 11.0362 135.696 11.2182C135.032 11.3912 134.458 11.6324 133.976 11.942C133.266 12.3698 132.72 13.0116 132.337 13.8673C131.964 14.7139 131.737 15.6652 131.655 16.7212C132.219 15.8473 132.952 15.2055 133.853 14.7958C134.754 14.3862 135.715 14.1814 136.734 14.1814C138.054 14.1814 139.192 14.4909 140.148 15.1099C141.104 15.7198 141.837 16.5619 142.346 17.636C142.865 18.7102 143.125 19.9346 143.125 21.3092C143.125 22.7657 142.833 24.0402 142.251 25.1326C141.668 26.225 140.844 27.0716 139.779 27.6724C138.723 28.2732 137.481 28.5691 136.052 28.56ZM136.202 26.2523C137.631 26.2523 138.714 25.8108 139.452 24.9278C140.189 24.0356 140.558 22.8522 140.558 21.3775C140.558 19.8663 140.175 18.6784 139.411 17.8136C138.646 16.9396 137.572 16.5027 136.188 16.5027C134.786 16.5027 133.712 16.9396 132.965 17.8136C132.228 18.6784 131.859 19.8663 131.859 21.3775C131.859 22.8977 132.233 24.0903 132.979 24.9551C133.726 25.8199 134.8 26.2523 136.202 26.2523Z" fill="black"/>
<path d="M158.21 13.3894V28.1367H155.861V17.2674L148.132 28.1367H146.125V13.3894H148.474V24.1085L156.216 13.3894H158.21Z" fill="black"/>
<path d="M162.02 28.1367V13.3894H164.451V19.6024H172.207V13.3894H174.637V28.1367H172.207V21.91H164.451V28.1367H162.02Z" fill="black"/>
<path d="M184.853 28.5463C183.406 28.5463 182.14 28.2277 181.057 27.5905C179.983 26.9441 179.145 26.0475 178.544 24.9005C177.944 23.7443 177.643 22.3971 177.643 20.8586C177.643 19.2473 177.939 17.8545 178.531 16.6802C179.123 15.4968 179.946 14.5865 181.002 13.9492C182.067 13.3029 183.315 12.9797 184.744 12.9797C186.228 12.9797 187.488 13.3211 188.526 14.0038C189.573 14.6866 190.356 15.6606 190.875 16.926C191.403 18.1913 191.63 19.6979 191.558 21.4458H189.1V20.5719C189.072 18.7603 188.704 17.4085 187.994 16.5163C187.284 15.6151 186.228 15.1645 184.826 15.1645C183.324 15.1645 182.181 15.647 181.398 16.6119C180.615 17.5769 180.224 18.9606 180.224 20.763C180.224 22.5017 180.615 23.849 181.398 24.8049C182.181 25.7607 183.296 26.2386 184.744 26.2386C185.718 26.2386 186.564 26.0156 187.284 25.5695C188.003 25.1235 188.567 24.4817 188.977 23.6442L191.312 24.4498C190.738 25.7516 189.873 26.7621 188.717 27.4812C187.57 28.1913 186.282 28.5463 184.853 28.5463ZM179.405 19.4931H190.301V21.4458H179.405V19.4931Z" fill="black"/>
<path d="M198.236 28.1367V15.6015H193.102V13.3894H205.801V15.6015H200.667V28.1367H198.236Z" fill="black"/>
</g>
<defs>
<clipPath id="clip0_1428_102436">
<rect width="206" height="40" fill="white"/>
</clipPath>
</defs>
</svg>
